<svg width="75" height="75" viewBox="0 0 75 75" fill="none" xmlns="http://www.w3.org/2000/svg">
<circle cx="37.5" cy="37.5" r="37.5" fill="#9533C2"/>
<path d="M25.5604 28.145C25.8432 28.145 26.0725 27.9157 26.0725 27.6329C26.0725 27.3501 25.8432 27.1208 25.5604 27.1208C25.2776 27.1208 25.0483 27.3501 25.0483 27.6329C25.0483 27.9157 25.2776 28.145 25.5604 28.145Z" fill="white"/>
<path d="M27.0966 28.145C27.3795 28.145 27.6087 27.9157 27.6087 27.6329C27.6087 27.3501 27.3795 27.1208 27.0966 27.1208C26.8138 27.1208 26.5846 27.3501 26.5846 27.6329C26.5846 27.9157 26.8138 28.145 27.0966 28.145Z" fill="white"/>
<path d="M28.6329 28.145C28.9157 28.145 29.145 27.9157 29.145 27.6329C29.145 27.3501 28.9157 27.1208 28.6329 27.1208C28.3501 27.1208 28.1208 27.3501 28.1208 27.6329C28.1208 27.9157 28.3501 28.145 28.6329 28.145Z" fill="white"/>
<path d="M50.1403 38.8986C50.4233 38.8986 50.6523 38.6696 50.6523 38.3865V32.2416C50.6523 31.9585 50.4233 31.7295 50.1403 31.7295C49.8572 31.7295 49.6282 31.9585 49.6282 32.2416V38.3865C49.6282 38.6696 49.8572 38.8986 50.1403 38.8986Z" fill="white"/>
<path d="M43.4832 23.0242C43.766 23.0242 43.9953 22.7949 43.9953 22.5121C43.9953 22.2293 43.766 22 43.4832 22C43.2004 22 42.9711 22.2293 42.9711 22.5121C42.9711 22.7949 43.2004 23.0242 43.4832 23.0242Z" fill="white"/>
<path d="M48.03 24.6224C48.13 24.7224 48.2611 24.7724 48.392 24.7724C48.523 24.7724 48.6541 24.7224 48.7541 24.6224L49.1161 24.2604L49.4781 24.6224C49.5781 24.7224 49.7092 24.7724 49.8402 24.7724C49.9712 24.7724 50.1022 24.7224 50.2022 24.6224C50.4022 24.4224 50.4022 24.0983 50.2022 23.8983L49.8402 23.5363L50.2022 23.1742C50.4022 22.9743 50.4022 22.6501 50.2022 22.4501C50.0023 22.2502 49.6781 22.2502 49.4781 22.4501L49.1161 22.8122L48.7541 22.4501C48.5541 22.2502 48.23 22.2502 48.03 22.4501C47.83 22.6501 47.83 22.9743 48.03 23.1742L48.392 23.5363L48.03 23.8983C47.8299 24.0984 47.8299 24.4224 48.03 24.6224Z" fill="white"/>
<path d="M26.0725 31.7296H31.1933C31.4763 31.7296 31.7054 31.5005 31.7054 31.2175C31.7054 30.9344 31.4763 30.7054 31.1933 30.7054H26.0725C25.7894 30.7054 25.5604 30.9344 25.5604 31.2175C25.5604 31.5005 25.7894 31.7296 26.0725 31.7296Z" fill="white"/>
<path d="M46.5557 34.802H34.7779C34.4948 34.802 34.2658 35.031 34.2658 35.3141C34.2658 35.5971 34.4948 35.8261 34.7779 35.8261H46.5557C46.8388 35.8261 47.0678 35.5971 47.0678 35.3141C47.0678 35.031 46.8388 34.802 46.5557 34.802Z" fill="white"/>
<path d="M39.3866 33.2658C39.3866 33.5489 39.6156 33.7779 39.8987 33.7779H46.5557C46.8388 33.7779 47.0678 33.5489 47.0678 33.2658C47.0678 32.9828 46.8388 32.7537 46.5557 32.7537H39.8987C39.6156 32.7537 39.3866 32.9828 39.3866 33.2658Z" fill="white"/>
<path d="M32.7295 42.9953H26.0725C25.7894 42.9953 25.5604 43.2243 25.5604 43.5074C25.5604 43.7904 25.7894 44.0195 26.0725 44.0195H32.7295C33.0126 44.0195 33.2416 43.7904 33.2416 43.5074C33.2416 43.2243 33.0126 42.9953 32.7295 42.9953Z" fill="white"/>
<path d="M26.0725 35.8261H32.7295C33.0126 35.8261 33.2416 35.5971 33.2416 35.3141C33.2416 35.031 33.0126 34.802 32.7295 34.802H26.0725C25.7894 34.802 25.5604 35.031 25.5604 35.3141C25.5604 35.5971 25.7894 35.8261 26.0725 35.8261Z" fill="white"/>
<path d="M41.4349 31.7296H43.4832C43.7663 31.7296 43.9953 31.5005 43.9953 31.2175C43.9953 30.9344 43.7663 30.7054 43.4832 30.7054H41.4349C41.1518 30.7054 40.9228 30.9344 40.9228 31.2175C40.9228 31.5005 41.1518 31.7296 41.4349 31.7296Z" fill="white"/>
<path d="M33.2416 31.7296H39.3866C39.6696 31.7296 39.8987 31.5005 39.8987 31.2175C39.8987 30.9344 39.6696 30.7054 39.3866 30.7054H33.2416C32.9586 30.7054 32.7295 30.9344 32.7295 31.2175C32.7295 31.5005 32.9586 31.7296 33.2416 31.7296Z" fill="white"/>
<path d="M26.0725 39.9228H29.6571C29.9401 39.9228 30.1691 39.6938 30.1691 39.4107C30.1691 39.1277 29.9401 38.8987 29.6571 38.8987H26.0725C25.7894 38.8987 25.5604 39.1277 25.5604 39.4107C25.5604 39.6938 25.7894 39.9228 26.0725 39.9228Z" fill="white"/>
<path d="M35.2899 39.9228C35.573 39.9228 35.802 39.6938 35.802 39.4107C35.802 39.1277 35.573 38.8987 35.2899 38.8987H31.7054C31.4223 38.8987 31.1933 39.1277 31.1933 39.4107C31.1933 39.6938 31.4223 39.9228 31.7054 39.9228H35.2899Z" fill="white"/>
<path d="M36.8262 36.8503H26.0725C25.7894 36.8503 25.5604 37.0793 25.5604 37.3624C25.5604 37.6454 25.7894 37.8745 26.0725 37.8745H36.8262C37.1092 37.8745 37.3383 37.6454 37.3383 37.3624C37.3383 37.0793 37.1092 36.8503 36.8262 36.8503Z" fill="white"/>
<path d="M35.802 40.947H26.0725C25.7894 40.947 25.5604 41.176 25.5604 41.4591C25.5604 41.7421 25.7894 41.9711 26.0725 41.9711H35.802C36.0851 41.9711 36.3141 41.7421 36.3141 41.4591C36.3141 41.176 36.0851 40.947 35.802 40.947Z" fill="white"/>
<path d="M26.0725 33.7779H37.8503C38.1334 33.7779 38.3624 33.5489 38.3624 33.2658C38.3624 32.9828 38.1334 32.7537 37.8503 32.7537H26.0725C25.7894 32.7537 25.5604 32.9828 25.5604 33.2658C25.5604 33.5489 25.7894 33.7779 26.0725 33.7779Z" fill="white"/>
<path d="M52.6257 51.2017L50.9983 49.5743C51.6842 49.3671 52.1886 48.7368 52.1886 47.9843V27.2528C52.1886 26.3331 51.4399 25.5846 50.5204 25.5846H24.6682C23.7485 25.5846 23 26.3332 23 27.2528V47.9841C23 48.9038 23.7487 49.6524 24.6682 49.6524H40.4567C41.5348 50.3296 42.7639 50.6736 43.9953 50.6736C45.2082 50.6736 46.4182 50.3386 47.4845 49.6816L50.8153 53.012C51.0648 53.2615 51.3924 53.3866 51.7204 53.3866C52.0484 53.3866 52.376 53.2615 52.6255 53.012C53.1248 52.5128 53.1248 51.7007 52.6257 51.2017ZM24.6682 26.6087H50.5204C50.8754 26.6087 51.1644 26.8978 51.1644 27.2528V28.6571H24.0242V27.2528C24.0242 26.8978 24.3132 26.6087 24.6682 26.6087ZM24.0242 47.9841V29.6812H51.1644V47.9841C51.1644 48.3391 50.8754 48.6282 50.5204 48.6282H50.0523L49.3651 47.941C51.267 45.3389 51.0513 41.6608 48.7026 39.3123C46.1073 36.717 41.8835 36.717 39.2881 39.3123C36.7244 41.876 36.6979 46.0257 39.1992 48.6283H24.6682C24.3132 48.6282 24.0242 48.3391 24.0242 47.9841ZM40.0122 48.0026C37.8159 45.8063 37.8159 42.2327 40.0122 40.0363C41.1104 38.9381 42.5532 38.389 43.9953 38.389C45.4374 38.389 46.8802 38.9381 47.9784 40.0363C50.1747 42.2326 50.1747 45.8061 47.9784 48.0026C45.7821 50.199 42.2085 50.199 40.0122 48.0026ZM51.9016 52.2878C51.8016 52.3878 51.6395 52.3878 51.5395 52.2878L48.3219 49.0706C48.451 48.9599 48.5802 48.849 48.7025 48.7267L51.9014 51.9256C52.001 52.0257 52.001 52.1878 51.9016 52.2878Z" fill="white"/>
<path d="M42.4591 45.0436H39.8987C39.6156 45.0436 39.3866 45.2727 39.3866 45.5557V46.5214C39.3866 46.8044 39.6156 47.0335 39.8987 47.0335C40.1817 47.0335 40.4107 46.8044 40.4107 46.5214V46.0678H41.947V48.3152C41.947 48.5982 42.176 48.8273 42.4591 48.8273C42.7421 48.8273 42.9711 48.5982 42.9711 48.3152V45.5557C42.9711 45.2727 42.7421 45.0436 42.4591 45.0436Z" fill="white"/>
<path d="M44.5074 45.0436C44.2243 45.0436 43.9953 45.2727 43.9953 45.5557V48.1161C43.9953 48.3992 44.2243 48.6282 44.5074 48.6282C44.7904 48.6282 45.0195 48.3992 45.0195 48.1161V45.5557C45.0195 45.2727 44.7904 45.0436 44.5074 45.0436Z" fill="white"/>
<path d="M46.5557 45.0436C46.2726 45.0436 46.0436 45.2727 46.0436 45.5557V48.1161C46.0436 48.3992 46.2726 48.6282 46.5557 48.6282C46.8387 48.6282 47.0678 48.3992 47.0678 48.1161V45.5557C47.0678 45.2727 46.8387 45.0436 46.5557 45.0436Z" fill="white"/>
<path d="M46.5557 39.9228C46.2726 39.9228 46.0436 40.1518 46.0436 40.4349V44.0195C46.0436 44.3025 46.2726 44.5315 46.5557 44.5315C46.8387 44.5315 47.0678 44.3025 47.0678 44.0195V40.4349C47.0678 40.1518 46.8387 39.9228 46.5557 39.9228Z" fill="white"/>
<path d="M44.5074 39.9228H41.947C41.6639 39.9228 41.4349 40.1518 41.4349 40.4349V44.0195C41.4349 44.3025 41.6639 44.5315 41.947 44.5315H44.5074C44.7904 44.5315 45.0195 44.3025 45.0195 44.0195V40.4349C45.0195 40.1518 44.7904 39.9228 44.5074 39.9228ZM43.9953 43.5074H42.4591V40.947H43.9953V43.5074Z" fill="white"/>
</svg>
