<svg width="114" height="114" viewBox="0 0 114 114" fill="none" xmlns="http://www.w3.org/2000/svg">
<path d="M84.1428 67.8084V81.4137C84.1428 87.4183 79.2897 92.2857 73.2852 92.2857H33.4766C27.4803 92.2857 22.6189 87.4347 22.6189 81.4137V32.5863C22.6189 26.5817 27.4721 21.7143 33.4766 21.7143H73.2852C79.2815 21.7143 84.1428 26.5653 84.1428 32.5863V56.0951" fill="white"/>
<path d="M73.2849 94.0953H33.4772C26.4924 94.0953 20.8096 88.407 20.8096 81.4145V32.5855C20.8096 25.593 26.4924 19.9047 33.4772 19.9047H73.2849C80.2697 19.9047 85.9525 25.593 85.9525 32.5855V56.0953C85.9525 57.0954 85.1422 57.9049 84.1429 57.9049C83.1436 57.9049 82.3332 57.0957 82.3332 56.0953V32.5855C82.3332 27.5879 78.274 23.5239 73.2847 23.5239H33.4769C28.4875 23.5239 24.4283 27.5882 24.4283 32.5855V81.4145C24.4283 86.4121 28.4875 90.4761 33.4769 90.4761H73.2847C78.274 90.4761 82.3332 86.4118 82.3332 81.4145V67.8078C82.3332 66.8077 83.1436 65.9982 84.1429 65.9982C85.1422 65.9982 85.9525 66.8075 85.9525 67.8078V81.4145C85.9525 88.407 80.2697 94.0953 73.2849 94.0953Z" fill="black"/>
<path d="M34.3158 7.14351C34.8515 4.19756 37.7164 1.80957 40.7039 1.80957H66.0581C69.0507 1.80957 71.9129 4.21028 72.4462 7.14351L75.0953 21.7142H31.6667L34.3158 7.14351Z" fill="#2639A1"/>
<path d="M75.0953 23.5239H31.6668C31.1303 23.5239 30.6213 23.2856 30.2781 22.8734C29.9348 22.4612 29.7904 21.9194 29.8868 21.3909L32.5357 6.82097C33.2315 2.99526 36.8197 0 40.704 0H66.0587C69.9437 0 73.5312 2.99526 74.2272 6.82097L76.876 21.3909C76.9723 21.9192 76.8286 22.4618 76.4848 22.8734C76.1407 23.2851 75.6318 23.5239 75.0953 23.5239ZM33.835 19.9047H72.9271L70.666 7.46773C70.2859 5.38272 68.1763 3.61896 66.0581 3.61896H40.7034C38.5853 3.61896 36.4753 5.38086 36.0955 7.46773L33.835 19.9047Z" fill="#2639A1"/>
<path d="M34.3158 106.856C34.8515 109.802 37.7164 112.19 40.7039 112.19H66.0581C69.0507 112.19 71.9129 109.79 72.4462 106.856L75.0953 92.2857H31.6667L34.3158 106.856Z" fill="#2639A1"/>
<path d="M66.0581 114H40.7034C36.8194 114 33.2309 111.005 32.5348 107.179L29.886 92.6091C29.7896 92.0808 29.9335 91.5383 30.2773 91.1266C30.6211 90.715 31.13 90.4761 31.6665 90.4761H75.0951C75.6315 90.4761 76.1405 90.7144 76.4837 91.1266C76.827 91.5388 76.9715 92.0806 76.875 92.6091L74.2262 107.179C73.5304 111.005 69.943 114 66.0581 114ZM36.096 106.532C36.4761 108.619 38.5858 110.381 40.7039 110.381H66.0587C68.1768 110.381 70.2865 108.617 70.6666 106.532L72.9271 94.0951H33.835L36.096 106.532Z" fill="#2639A1"/>
<path d="M88.0301 56.0953H84.1429V39.8096H88.0301C89.8808 39.8096 91.3808 41.3096 91.3808 43.1603V52.7444C91.381 54.5951 89.8808 56.0953 88.0301 56.0953Z" fill="#2639A1"/>
<path d="M88.0306 57.9047H84.1429C83.1436 57.9047 82.3333 57.0955 82.3333 56.0951V39.8094C82.3333 38.8093 83.1436 37.9998 84.1429 37.9998H88.0306C90.8756 37.9998 93.1904 40.3146 93.1904 43.1596V52.7446C93.1904 55.5899 90.8756 57.9047 88.0306 57.9047ZM85.9525 54.2857H88.0306C88.8807 54.2857 89.5714 53.595 89.5714 52.7449V43.1598C89.5714 42.3097 88.8807 41.619 88.0306 41.619H85.9525V54.2857Z" fill="#2639A1"/>
<path d="M28.9525 35.2857C28.4897 35.2857 28.0263 35.1089 27.6733 34.7555C26.9666 34.0489 26.9666 32.9035 27.6733 32.1968L32.1972 27.6729C32.9038 26.9663 34.0492 26.9663 34.7559 27.6729C35.4625 28.3796 35.4625 29.525 34.7559 30.2316L30.232 34.7555C29.8784 35.1089 29.4153 35.2857 28.9525 35.2857Z" fill="#9533C2"/>
<path d="M30.7618 40.7142C30.299 40.7142 29.8357 40.5374 29.4826 40.1841C28.7759 39.4774 28.7759 38.3321 29.4826 37.6254L39.4351 27.6729C40.1417 26.9663 41.2871 26.9663 41.9938 27.6729C42.7004 28.3796 42.7004 29.525 41.9938 30.2316L32.0413 40.1841C31.688 40.5374 31.2246 40.7142 30.7618 40.7142Z" fill="#9533C2"/>
</svg>
