<svg width="115" height="115" viewBox="0 0 115 115" fill="none" xmlns="http://www.w3.org/2000/svg">
<path d="M50.7617 1.68457C38.3525 1.68457 27.0212 6.29221 18.3793 13.8871C9.23504 24.5961 3.93066 33.8603 3.93066 46.2695C3.93066 77.9956 28.1494 97.5928 55.2539 97.5928C55.2665 97.5928 96.6124 68.2896 96.6124 68.2896C98.6949 62.8457 99.8389 56.9378 99.8389 50.7617C99.8389 23.6572 77.8662 1.68457 50.7617 1.68457Z" fill="white"/>
<path d="M54.917 90.8545C54.917 92.3852 55.0466 93.8851 55.2916 95.3462C55.2791 95.3462 55.2665 95.3467 55.2539 95.3467C28.1494 95.3467 6.17676 73.3741 6.17676 46.2695C6.17676 33.8603 10.7844 22.529 18.3793 13.8871C8.14546 22.8816 1.68457 36.0662 1.68457 50.7617C1.68457 77.8662 23.6572 99.8389 50.7617 99.8389C71.6904 99.8389 89.556 86.7372 96.6124 68.2896C92.376 65.5159 87.312 63.9014 81.8701 63.9014C66.9844 63.9014 54.917 75.9687 54.917 90.8545Z" fill="#9EC8FC"/>
<path d="M86.3623 59.4092C80.064 59.4092 74.2707 61.5699 69.6821 65.19C64.4779 70.628 61.6553 75.8111 61.6553 84.1162C61.6553 99.002 73.7226 111.069 88.6084 111.069C94.9067 111.069 102.844 107.688 107.535 103.042C111.155 98.4539 113.315 92.6606 113.315 86.3623C113.315 71.4765 101.248 59.4092 86.3623 59.4092Z" fill="#F5FCFF"/>
<path d="M63.9014 81.8701C63.9014 75.5718 66.0621 69.7785 69.6821 65.1899C63.4256 70.1257 59.4092 77.7748 59.4092 86.3623C59.4092 101.248 71.4765 113.315 86.3623 113.315C94.9498 113.315 102.599 109.299 107.535 103.042C102.946 106.662 97.1528 108.823 90.8545 108.823C75.9687 108.823 63.9014 96.7559 63.9014 81.8701Z" fill="#D3EFFD"/>
<path d="M86.3623 99.8389C93.8052 99.8389 99.8389 93.8052 99.8389 86.3623C99.8389 78.9194 93.8052 72.8857 86.3623 72.8857C78.9194 72.8857 72.8857 78.9194 72.8857 86.3623C72.8857 93.8052 78.9194 99.8389 86.3623 99.8389Z" fill="#2639A1"/>
<path d="M50.7617 101.523C54.9954 101.523 56.9225 101.362 61.4096 100.404C66.3278 109.111 75.67 115 86.3623 115C102.153 115 115 102.153 115 86.3623C115 77.8339 111.238 69.8095 104.678 64.3463C103.963 63.7511 102.901 63.8477 102.305 64.5628C101.71 65.2778 101.807 66.34 102.522 66.9354C108.311 71.7564 111.631 78.8372 111.631 86.3623C111.631 100.296 100.296 111.631 86.3623 111.631C72.4291 111.631 61.0938 100.296 61.0938 86.3623C61.0938 72.4291 72.4291 61.0938 86.3623 61.0938C90.3563 61.0938 94.178 61.9994 97.721 63.7857C98.1804 64.0175 98.7205 64.0262 99.1875 63.8099C99.6542 63.5937 99.9968 63.1757 100.117 62.6754C101.05 58.7964 101.523 54.7881 101.523 50.7617C101.523 42.7928 99.7288 35.1635 96.1892 28.0858C92.8147 21.3383 87.8742 15.3163 81.902 10.671C81.168 10.0998 80.1096 10.2321 79.5382 10.9663C78.967 11.7008 79.0993 12.7592 79.8336 13.3303C91.4767 22.3868 98.1543 36.03 98.1543 50.7617C98.1543 53.8315 97.8601 56.8895 97.2783 59.8788C93.8236 58.4483 90.1611 57.7246 86.3623 57.7246C83.2193 57.7246 80.1939 58.2334 77.3624 59.1731V39.9117C77.3624 38.9814 76.6084 38.2272 75.6779 38.2272C74.7473 38.2272 73.9933 38.9814 73.9933 39.9117V60.536C64.3771 65.1594 57.7246 74.9982 57.7246 86.3623C57.7246 90.2251 58.4932 93.9114 59.8858 97.277C56.8951 97.8596 53.833 98.1543 50.7617 98.1543C24.6293 98.1543 3.36914 76.8941 3.36914 50.7617C3.36914 24.6293 24.6293 3.36914 50.7617 3.36914C59.2414 3.36914 67.5611 5.63478 74.8212 9.92145C75.6228 10.3945 76.6558 10.1285 77.1282 9.32713C77.6012 8.52595 77.3353 7.49297 76.5341 7.02017C68.7556 2.42758 59.8438 0 50.7617 0C22.7716 0 0 22.7716 0 50.7617C0 78.7519 22.7716 101.523 50.7617 101.523ZM86.3623 101.523C78.0023 101.523 71.2012 94.7223 71.2012 86.3623C71.2012 78.0023 78.0023 71.2012 86.3623 71.2012C94.7223 71.2012 101.523 78.0023 101.523 86.3623C101.523 94.7223 94.7223 101.523 86.3623 101.523ZM86.3623 74.5703C79.8603 74.5703 74.5703 79.8601 74.5703 86.3623C74.5703 92.8645 79.8603 98.1543 86.3623 98.1543C92.8643 98.1543 98.1543 92.8645 98.1543 86.3623C98.1543 79.8601 92.8643 74.5703 86.3623 74.5703ZM42.4563 76.1954C41.5258 76.1954 40.7718 75.4411 40.7718 74.5108V27.0126C40.7718 26.0823 41.5258 25.3281 42.4563 25.3281C43.3869 25.3281 44.1409 26.0823 44.1409 27.0126V74.5108C44.1409 75.4411 43.3869 76.1954 42.4563 76.1954ZM34.1512 70.2688C33.2206 70.2688 32.4666 69.5146 32.4666 68.5843V32.9392C32.4666 32.0089 33.2206 31.2546 34.1512 31.2546C35.0817 31.2546 35.8358 32.0089 35.8358 32.9392V68.5843C35.8358 69.5146 35.0815 70.2688 34.1512 70.2688ZM59.0671 65.8923C58.1365 65.8923 57.3825 65.1381 57.3825 64.2077V37.3157C57.3825 36.3854 58.1365 35.6311 59.0671 35.6311C59.9977 35.6311 60.7517 36.3854 60.7517 37.3157V64.2077C60.7517 65.1381 59.9974 65.8923 59.0671 65.8923ZM25.8456 65.6414C24.915 65.6414 24.161 64.8872 24.161 63.9568V37.5666C24.161 36.6363 24.915 35.882 25.8456 35.882C26.7761 35.882 27.5301 36.6363 27.5301 37.5666V63.9566C27.5301 64.8872 26.7761 65.6414 25.8456 65.6414ZM50.7617 62.1335C49.8312 62.1335 49.0771 61.3792 49.0771 60.4489V41.0743C49.0771 40.144 49.8312 39.3897 50.7617 39.3897C51.6923 39.3897 52.4463 40.144 52.4463 41.0743V60.4489C52.4463 61.3792 51.6923 62.1335 50.7617 62.1335ZM67.3723 60.9543C66.4417 60.9543 65.6877 60.2 65.6877 59.2697V42.2535C65.6877 41.3232 66.4417 40.5689 67.3723 40.5689C68.3028 40.5689 69.0568 41.3232 69.0568 42.2535V59.2697C69.0568 60.2 68.3028 60.9543 67.3723 60.9543ZM17.5404 55.9374C16.6099 55.9374 15.8559 55.1832 15.8559 54.2528V47.2706C15.8559 46.3403 16.6099 45.586 17.5404 45.586C18.471 45.586 19.225 46.3403 19.225 47.2706V54.2528C19.225 55.1832 18.4708 55.9374 17.5404 55.9374ZM83.983 55.1315C83.0525 55.1315 82.2984 54.3773 82.2984 53.4469V48.0767C82.2984 47.1464 83.0525 46.3922 83.983 46.3922C84.9136 46.3922 85.6676 47.1464 85.6676 48.0767V53.4469C85.6676 54.3773 84.9136 55.1315 83.983 55.1315ZM9.23504 53.9606C8.30448 53.9606 7.55047 53.2064 7.55047 52.276V49.2476C7.55047 48.3173 8.30448 47.5631 9.23504 47.5631C10.1656 47.5631 10.9196 48.3173 10.9196 49.2476V52.276C10.9196 53.2064 10.1656 53.9606 9.23504 53.9606ZM92.2884 53.8562C91.3578 53.8562 90.6038 53.1019 90.6038 52.1716V49.3516C90.6038 48.4213 91.3578 47.667 92.2884 47.667C93.219 47.667 93.973 48.4213 93.973 49.3516V52.1716C93.973 53.1019 93.2187 53.8562 92.2884 53.8562Z" fill="black"/>
</svg>
