<svg width="885" height="678" viewBox="0 0 885 678" fill="none" xmlns="http://www.w3.org/2000/svg">
<g clip-path="url(#clip0)">
<path opacity="0.1" d="M988.619 634.298C984.463 644.892 979.334 655.077 973.298 664.724L973.149 664.958C970.528 669.001 966.929 672.319 962.686 674.603C958.443 676.888 953.693 678.066 948.874 678.028H82.3374C19.0835 678.028 -20.5494 612.676 11.1663 560.572C68.2395 466.735 122.166 336.507 56.9145 246.742C-47.9049 102.444 64.9531 76.2566 139.401 73.2224C168.046 72.075 196.616 76.8947 223.298 87.3758C257.693 100.904 320.555 121.574 402.454 131.059C405.142 131.367 407.85 131.666 410.595 131.993C453.945 136.551 497.608 137.369 541.099 134.439C542.378 134.364 543.657 134.271 544.964 134.177C588.019 131.047 630.725 124.222 672.611 113.778C675.328 113.097 678.007 112.452 680.668 111.799C820.378 78.4226 949.163 192.182 916.962 320.739C905.058 368.287 908.083 418.972 947.772 459.976C1012.75 526.869 1004.88 592.772 988.619 634.298Z" fill="#6C63FF"/>
<path d="M592.617 335.919C592.693 337.602 593.316 339.215 594.391 340.512C596.364 342.93 598.759 344.97 601.458 346.534V353.742C601.458 353.742 622.689 371.48 627.096 378.221C631.307 384.625 635.611 391.142 641.614 395.912C643.166 397.281 645.017 398.266 647.02 398.788C647.132 398.788 647.253 398.788 647.375 398.844C646.786 399.417 646.078 399.854 645.302 400.123C645.393 400.784 645.617 401.419 645.961 401.99C646.305 402.562 646.762 403.057 647.303 403.446C647.845 403.836 648.459 404.111 649.11 404.256C649.762 404.4 650.435 404.411 651.091 404.287C652.122 403.975 653.094 403.492 653.966 402.858L662.369 397.406C663.771 396.56 665.082 395.572 666.281 394.456C667.859 392.888 668.96 390.899 670.482 389.284C673.096 386.483 676.924 384.877 678.773 381.554C679.921 379.472 680.127 377.007 680.836 374.738C681.303 373.254 681.985 371.844 682.433 370.36C682.701 369.467 682.882 368.551 682.974 367.624C683.273 367.876 683.581 368.119 683.908 368.362C684.571 367.942 685.775 369.053 685.523 369.781C685.271 370.509 684.524 371.013 684.291 371.751C683.759 373.459 685.859 374.71 686.727 376.279C687.596 377.847 687.166 379.817 687.26 381.638C687.362 383.636 688.193 385.531 688.408 387.519C689.015 392.141 686.737 397.014 688.343 401.383C686.373 401.141 684.608 402.849 684.02 404.754C683.612 406.71 683.673 408.735 684.197 410.663C682.921 411.429 681.879 412.53 681.186 413.847C680.493 415.164 680.175 416.647 680.267 418.132C680.376 418.583 680.306 419.058 680.071 419.458C679.857 419.662 679.598 419.812 679.314 419.897C677.929 420.457 676.743 421.421 675.911 422.662C675.079 423.904 674.638 425.367 674.646 426.861C674.708 427.357 674.66 427.861 674.506 428.336C674.237 428.792 673.863 429.176 673.414 429.457C672.403 430.273 671.589 431.306 671.031 432.479C670.474 433.652 670.187 434.936 670.193 436.235C670.193 437.98 670.921 439.885 672.48 440.679H672.574C668.134 444.563 665.282 449.948 664.563 455.803C664.021 460.863 664.824 466.465 665.609 471.487L666.085 471.553C666.085 471.693 666.085 471.786 666.085 471.777C666.085 471.768 666.085 471.88 666.085 471.936C666.211 472.725 666.466 473.489 666.841 474.195C668.506 477.866 669.478 481.813 669.707 485.837C669.696 486.828 669.828 487.815 670.099 488.768C670.511 489.677 671.012 490.543 671.593 491.354C673.376 494.239 673.787 497.722 674.394 501.055C675.162 505.382 676.299 509.636 677.793 513.77C679.819 519.372 682.554 525.179 681.63 531.089C681.277 532.483 681.099 533.916 681.098 535.355C681.361 536.942 681.929 538.464 682.769 539.836C683.45 541.181 684.067 542.572 684.636 543.982C684.629 544.808 684.924 545.608 685.467 546.232C685.616 546.67 685.747 547.109 685.887 547.548C686.027 547.987 686.121 548.257 686.223 548.622C686.4 549.216 686.537 549.821 686.634 550.433C686.634 550.89 686.578 551.366 686.559 551.814C686.541 552.263 686.559 552.692 686.559 553.131C686.431 553.565 686.215 553.969 685.925 554.317C685.817 554.454 685.702 554.585 685.579 554.709C685.467 554.821 685.364 554.942 685.262 555.054C685.116 555.208 684.996 555.385 684.907 555.577C684.719 556.062 684.683 556.593 684.804 557.099C684.804 557.304 684.879 557.5 684.926 557.706C685.271 559.134 685.626 560.572 685.981 562L686.317 563.279C686.606 564.409 686.896 565.529 687.25 566.649C687.25 566.649 687.25 566.743 687.25 566.799C687.316 567.042 687.39 567.284 687.456 567.536L688.212 570.272L688.688 571.896C688.875 572.55 689.062 573.213 689.258 573.875C689.718 575.413 690.185 576.953 690.658 578.497C695.41 594.153 700.489 609.716 703.626 625.774C703.911 626.894 704.57 627.882 705.494 628.575C706.487 629.356 707.609 629.959 708.808 630.358C709.116 632.711 709.863 635.577 709.956 636.959C710.246 641.627 710.46 646.538 708.771 650.767C708.59 650.736 708.405 650.75 708.231 650.807C708.057 650.864 707.899 650.962 707.772 651.094C706.695 652.113 705.676 653.191 704.719 654.324L698.519 660.99C697.994 661.515 697.522 662.09 697.109 662.708C696.667 663.435 696.385 664.249 696.282 665.094C696.179 665.939 696.257 666.797 696.512 667.609C697.048 669.242 698.196 670.604 699.714 671.409C700.07 671.572 700.41 671.766 700.732 671.988C700.924 672.18 701.13 672.358 701.348 672.52C701.772 672.734 702.248 672.822 702.721 672.772C706.264 672.564 709.774 671.966 713.187 670.989C714.746 670.597 716.417 670.158 717.5 668.963C718.177 668.111 718.678 667.134 718.975 666.087L720.217 662.633C721.018 660.542 721.643 658.387 722.084 656.191C722.532 653.982 722.413 651.695 721.739 649.544C721.588 649.694 721.478 649.88 721.421 650.085C721.726 648.15 722.038 646.217 722.355 644.288C722.448 643.7 722.532 643.111 722.616 642.533C723.009 647.695 722.252 652.905 722.486 658.086C722.236 659.039 722.064 660.01 721.972 660.99C722.318 665.751 724.297 670.951 728.144 673.771C728.766 674.278 729.483 674.655 730.254 674.882C730.972 675.013 731.705 675.031 732.429 674.938C735.255 674.832 738.05 674.304 740.72 673.369C742.053 672.894 743.273 672.145 744.3 671.171C745.327 670.196 746.14 669.018 746.686 667.712C747.104 666.387 747.306 665.003 747.283 663.613C747.356 662.165 747.231 660.714 746.91 659.3C746.324 657.56 745.59 655.873 744.716 654.259C743.696 651.855 742.872 649.373 742.251 646.836L741.102 642.626C740.776 641.431 740.449 640.236 740.038 639.069C739.804 638.019 739.291 637.052 738.554 636.268C738.068 635.885 737.751 635.867 737.545 636.072C737.545 635.923 737.545 635.773 737.545 635.624C737.545 633.971 738.04 632.328 737.844 630.685C737.527 627.978 735.426 625.868 734.054 623.506C733.366 622.319 732.854 621.039 732.532 619.706C732.466 619.417 732.401 619.127 732.354 618.828C732.579 618.625 732.834 618.457 733.111 618.334L735.473 619.715C733.381 604.04 734.492 587.59 728.405 573.035C725.753 566.696 720.628 560.077 721.207 553.224C718.406 551.105 718.733 546.017 721.823 544.318C722.85 543.758 724.11 543.487 724.81 542.553C725.151 542.032 725.383 541.448 725.492 540.835C728.857 527.383 733.249 514.209 738.628 501.428C739.814 498.627 741.037 495.826 742.26 493.072C743.642 489.96 745.018 486.848 746.387 483.736C748.067 479.933 749.745 476.131 751.419 472.328C753.109 468.491 754.818 464.112 753.212 460.191C752.586 458.669 751.447 457.222 751.615 455.579C751.718 454.524 752.362 453.59 752.549 452.545C752.704 451.437 752.615 450.309 752.287 449.24C751.961 447.802 751.597 446.374 751.214 444.945C752.292 445.072 753.359 445.278 754.407 445.561C755.051 444.478 754.024 443.227 753.398 442.135C752.679 440.655 752.285 439.038 752.241 437.392C751.818 432.917 751.394 428.445 750.971 423.976C750.723 422.119 750.692 420.239 750.878 418.375C751.148 416.405 751.895 414.528 752.278 412.568C753.006 408.833 752.343 404.922 752.512 401.085C752.78 397.704 753.368 394.356 754.267 391.086C754.388 390.6 754.509 390.152 754.622 389.629C755.247 389.816 755.893 389.925 756.545 389.956H757.189H757.394L757.936 389.891H758.197C758.44 389.846 758.68 389.787 758.916 389.713L759.094 389.648C759.359 389.563 759.618 389.46 759.869 389.34C759.561 388.668 759.262 387.986 758.935 387.295C758.823 387.024 758.711 386.744 758.608 386.464C758.505 386.184 758.3 385.671 758.16 385.279C758.02 384.887 757.899 384.55 757.777 384.186C757.656 383.822 757.581 383.58 757.488 383.253C757.394 382.926 757.226 382.422 757.105 381.992C756.984 381.563 756.872 381.115 756.76 380.667C756.76 380.508 756.844 380.34 756.881 380.172C757.552 380.751 758.285 381.255 759.066 381.675C761.686 386.256 764.114 390.939 766.348 395.726C766.69 395.209 766.921 394.627 767.03 394.017C767.303 394.449 767.616 394.855 767.963 395.231C768.886 396.126 769.926 396.892 771.054 397.509C772.15 398.259 773.412 398.733 774.732 398.891C776.491 398.826 778.16 398.095 779.4 396.846C783.266 393.457 785.198 388.444 786.981 383.598C789.344 377.212 791.65 370.761 792.705 363.993C793.797 356.766 793.33 349.279 795.403 342.268C793.536 338.599 792.387 334.547 790.305 331.008C788.976 328.9 787.803 326.697 786.795 324.417C784.849 319.572 784.632 314.205 786.178 309.218C785.811 308.983 785.379 308.869 784.944 308.892C784.508 308.916 784.091 309.076 783.751 309.349C783.085 309.918 782.58 310.652 782.285 311.477C781.088 314.292 780.588 317.354 780.829 320.403C780.982 321.138 780.897 321.903 780.586 322.587C780.299 322.931 779.934 323.201 779.522 323.375C779.109 323.549 778.661 323.621 778.215 323.586C776.352 323.498 774.51 323.165 772.734 322.597C767.787 321.361 762.682 320.877 757.591 321.159C757.171 320.665 756.712 320.206 756.218 319.787C756.041 319.637 755.845 319.488 755.649 319.338L755.07 318.872L754.771 318.638L754.22 318.143C753.498 317.566 753.015 316.741 752.866 315.828C752.866 315.707 752.866 315.595 752.866 315.473C752.866 315.352 752.866 315.259 752.866 315.156C752.928 314.834 753.028 314.52 753.165 314.222C753.258 314.017 753.352 313.821 753.454 313.625C753.557 313.429 753.557 313.429 753.604 313.326C753.651 313.223 753.707 313.13 753.753 313.027C753.918 312.666 754.062 312.295 754.183 311.916C754.296 311.536 754.386 311.15 754.453 310.759C754.517 310.369 754.558 309.976 754.575 309.582C754.598 309.181 754.598 308.779 754.575 308.378C754.575 308.182 754.575 307.986 754.528 307.78C754.433 306.98 754.268 306.19 754.033 305.418C753.852 304.84 753.637 304.273 753.389 303.719C753.059 302.994 752.684 302.289 752.269 301.609C751.412 300.253 750.458 298.961 749.412 297.744L748.628 296.811C748.366 296.512 748.095 296.213 747.834 295.877C747.01 294.99 746.24 294.055 745.528 293.076C745.006 292.345 744.576 291.551 744.249 290.714C744.137 290.434 744.044 290.147 743.969 289.855C743.842 289.319 743.76 288.772 743.726 288.221C743.726 288.035 743.726 287.848 743.726 287.671C743.718 286.929 743.752 286.187 743.829 285.449C743.931 284.403 744.071 283.357 744.221 282.302C744.314 281.602 744.417 280.893 744.51 280.192L744.613 279.147C744.697 278.437 744.772 277.737 744.818 277.037C745.022 274.978 744.908 272.9 744.482 270.875C744.322 270.204 744.113 269.546 743.857 268.905C743.517 268.068 743.088 267.27 742.578 266.525C740.691 263.961 738.136 261.965 735.193 260.755C733.027 259.814 730.771 259.095 728.461 258.608C727.527 258.402 726.594 258.234 725.66 258.085C711.842 255.863 697.166 260.073 688.417 271.389C683.871 277.27 680.015 283.852 678.362 291.106C676.71 298.36 677.428 306.371 681.527 312.579C683.245 315.203 685.504 317.462 687.026 320.197C688.277 322.438 689.015 324.949 690.359 327.134C692.142 329.89 694.711 332.047 697.735 333.324C697.539 333.51 697.352 333.688 697.156 333.856C695.778 333.728 694.391 333.759 693.02 333.949C691.601 334.183 690.219 334.724 688.819 334.883C687.064 335.107 685.271 334.771 683.516 334.995C680.248 335.415 677.559 337.674 675.113 339.84C672.209 342.37 669.082 345.339 668.858 349.176V349.288L666.906 351.893C666.423 352.482 666.012 353.128 665.683 353.816C664.89 355.684 665.328 357.803 664.908 359.763C664.578 361.017 664.059 362.214 663.368 363.311C661.395 366.78 659.167 370.097 656.702 373.235C655.557 374.819 654.156 376.201 652.556 377.324C651.285 378.164 649.785 378.591 648.262 378.547C645.974 377.442 643.853 376.022 641.96 374.328C639.841 372.237 637.962 369.917 636.358 367.41C633.211 362.854 643.005 376.484 639.85 371.919L611.532 324.557C610.961 322.351 610.586 320.098 610.412 317.826C610.347 316.958 610.048 315.809 609.18 315.791C608.794 315.819 608.433 315.992 608.171 316.276C607.492 316.889 606.969 317.655 606.644 318.511C606.319 319.366 606.203 320.287 606.304 321.196C604.801 321.122 603.176 321.084 601.963 321.962C600.749 322.839 600.487 324.613 601.412 325.491V325.827C601.05 326.008 600.758 326.302 600.577 326.664C600.397 327.026 600.339 327.437 600.413 327.834C598.854 327.517 597.126 327.265 595.745 328.049C594.363 328.833 593.821 331.139 595.175 331.989C594.395 332.299 593.729 332.843 593.271 333.547C592.813 334.251 592.584 335.08 592.617 335.919ZM770.288 342.697C771.102 342.963 771.931 343.178 772.771 343.341C775.424 343.952 778.008 344.831 780.483 345.965C781.286 346.251 781.983 346.776 782.481 347.468C783.153 348.588 782.705 350.017 782.257 351.249C781.081 354.404 779.908 357.563 778.737 360.725C778.187 362.209 777.636 363.694 776.954 365.122C776.674 365.701 776.375 366.261 776.077 366.821C775.965 366.513 775.852 366.205 775.75 365.888C774.731 363.004 773.89 360.061 773.229 357.075C772.641 354.498 772.146 351.893 771.735 349.279C771.45 347.046 770.965 344.844 770.288 342.697ZM766.619 335.275C766.702 335.342 766.789 335.405 766.88 335.462C767.231 335.608 767.549 335.824 767.814 336.097C767.932 336.306 767.993 336.542 767.993 336.783C767.993 337.023 767.932 337.259 767.814 337.469L766.619 335.275ZM760.279 326.135L764.471 326.751C765.472 326.803 766.441 327.125 767.272 327.685C767.477 327.831 767.65 328.018 767.781 328.234C767.912 328.449 767.998 328.689 768.034 328.938C768.07 329.188 768.054 329.442 767.989 329.685C767.924 329.929 767.811 330.157 767.655 330.355C767.367 330.597 767.054 330.806 766.721 330.98C766.31 331.295 765.997 331.72 765.82 332.207C765.643 332.693 765.609 333.22 765.722 333.725C765.015 332.422 764.209 331.173 763.314 329.991C762.487 328.934 761.548 327.97 760.513 327.115C760.485 326.817 760.382 326.471 760.279 326.135ZM719.918 628.314C720.422 628.314 720.945 628.314 721.468 628.314C721.233 629.544 721.148 630.798 721.216 632.048L719.918 628.314Z" fill="url(#paint0_linear)"/>
<path d="M725.501 260.792C732.793 261.969 740.897 264.769 743.689 271.613C745.799 276.775 744.165 282.592 743.623 288.137C743.423 289.605 743.477 291.095 743.782 292.544C744.38 294.878 746.041 296.773 747.638 298.584C749.886 300.883 751.775 303.508 753.24 306.371C754.556 309.293 754.967 312.766 753.613 315.707C753.143 316.452 752.826 317.284 752.68 318.153C752.586 320.02 754.547 321.252 756.031 322.457C761.512 326.994 761.269 335.247 761.316 342.352C761.424 356.877 764.669 371.209 770.829 384.364C768.525 385.534 765.92 385.982 763.357 385.649C760.793 385.316 758.39 384.217 756.461 382.497C757.218 385.738 758.31 388.892 759.719 391.907C755.051 394.148 749.505 390.46 747.18 385.867C744.856 381.274 744.585 375.943 742.932 371.069C741.28 366.196 738.358 361.957 737.097 357.065C736.677 355.441 736.434 353.704 735.435 352.397C734.601 351.422 733.618 350.584 732.522 349.914C727.723 346.43 724.133 341.534 722.252 335.91C716.585 337.161 710.797 338.421 705.017 337.889C699.238 337.357 693.338 334.752 690.285 329.804C688.94 327.629 688.203 325.136 686.952 322.886C685.43 320.151 683.217 317.891 681.462 315.268C677.391 309.05 676.635 301.058 678.287 293.795C679.94 286.532 683.796 279.968 688.343 274.096C696.997 262.781 711.693 258.608 725.501 260.792Z" fill="#3A3768"/>
<path opacity="0.2" d="M725.501 260.792C732.793 261.969 740.897 264.769 743.689 271.613C745.799 276.775 744.165 282.592 743.623 288.137C743.423 289.605 743.477 291.095 743.782 292.544C744.38 294.878 746.041 296.773 747.638 298.584C749.886 300.883 751.775 303.508 753.24 306.371C754.556 309.293 754.967 312.766 753.613 315.707C753.143 316.452 752.826 317.284 752.68 318.153C752.586 320.02 754.547 321.252 756.031 322.457C761.512 326.994 761.269 335.247 761.316 342.352C761.424 356.877 764.669 371.209 770.829 384.364C768.525 385.534 765.92 385.982 763.357 385.649C760.793 385.316 758.39 384.217 756.461 382.497C757.218 385.738 758.31 388.892 759.719 391.907C755.051 394.148 749.505 390.46 747.18 385.867C744.856 381.274 744.585 375.943 742.932 371.069C741.28 366.196 738.358 361.957 737.097 357.065C736.677 355.441 736.434 353.704 735.435 352.397C734.601 351.422 733.618 350.584 732.522 349.914C727.723 346.43 724.133 341.534 722.252 335.91C716.585 337.161 710.797 338.421 705.017 337.889C699.238 337.357 693.338 334.752 690.285 329.804C688.94 327.629 688.203 325.136 686.952 322.886C685.43 320.151 683.217 317.891 681.462 315.268C677.391 309.05 676.635 301.058 678.287 293.795C679.94 286.532 683.796 279.968 688.343 274.096C696.997 262.781 711.693 258.608 725.501 260.792Z" fill="black"/>
<path d="M771.511 351.968C771.922 354.582 772.42 357.177 773.005 359.754C773.667 362.737 774.509 365.677 775.526 368.558C776.118 369.819 776.388 371.209 776.31 372.6C776.144 373.452 775.828 374.268 775.376 375.009C772.043 380.928 767.552 386.642 767.17 393.42C767.076 395.109 767.17 396.939 766.236 398.33C763.647 392.779 760.796 387.373 757.684 382.114C754.444 376.606 750.84 371.051 749.907 364.73C749.533 361.761 749.571 358.754 750.019 355.796C750.448 352.472 751.195 349.064 753.23 346.404C755.424 343.519 761.465 339.177 765.368 340.074C769.98 341.129 770.932 348.233 771.511 351.968Z" fill="#3F3D56"/>
<path d="M654.05 383.804C649.69 382.02 645.255 380.144 641.791 376.951C639.68 374.858 637.801 372.541 636.19 370.042L625.92 355.226C623.492 351.716 620.99 348.019 620.467 343.78C614.453 337.448 610.823 329.225 610.197 320.515C610.132 319.646 609.842 318.507 608.965 318.489C608.584 318.516 608.227 318.686 607.966 318.965C607.289 319.578 606.767 320.343 606.443 321.196C606.118 322.05 606 322.968 606.099 323.876C604.605 323.81 602.98 323.773 601.757 324.641C600.534 325.509 600.217 327.685 601.524 328.376C601.083 328.506 600.707 328.795 600.465 329.186C600.224 329.577 600.136 330.043 600.217 330.495C598.658 330.187 596.93 329.935 595.549 330.719C594.167 331.503 593.635 333.8 594.979 334.649C594.195 334.949 593.524 335.484 593.057 336.181C592.59 336.879 592.352 337.704 592.374 338.543C592.455 340.225 593.077 341.836 594.148 343.136C598.088 348.42 605.034 350.558 609.6 355.273C611.1 356.935 612.444 358.732 613.614 360.641L626.975 380.825C631.185 387.221 635.489 393.737 641.483 398.498C643.039 399.859 644.89 400.841 646.889 401.365C647.891 401.617 648.941 401.605 649.937 401.328C650.932 401.051 651.838 400.52 652.566 399.787C653.891 398.284 654.087 396.127 654.218 394.129C654.414 390.722 653.835 387.221 654.05 383.804Z" fill="#EE8E9E"/>
<path d="M698.332 663.249C697.81 663.773 697.338 664.345 696.923 664.958C696.482 665.686 696.201 666.499 696.098 667.344C695.995 668.189 696.073 669.046 696.325 669.859C696.862 671.495 698.014 672.857 699.537 673.659C699.891 673.819 700.229 674.013 700.545 674.238C700.738 674.427 700.944 674.602 701.161 674.76C701.585 674.975 702.062 675.063 702.534 675.013C706.076 674.815 709.584 674.217 712.991 673.229C714.559 672.847 716.221 672.398 717.304 671.203C717.98 670.358 718.482 669.387 718.779 668.347L720.021 664.883C720.839 662.797 721.479 660.645 721.935 658.45C722.382 656.244 722.264 653.96 721.589 651.812C721.281 652.199 721.119 652.681 721.132 653.176C720.765 655.503 719.854 657.71 718.471 659.617C718.181 660.091 717.829 660.524 717.425 660.906C716.524 661.606 715.455 662.059 714.326 662.222C712.147 662.692 709.933 662.976 707.706 663.072C707.39 663.109 707.071 663.07 706.773 662.96C706.593 662.861 706.434 662.728 706.306 662.567C706.178 662.407 706.083 662.223 706.026 662.026C705.704 661.149 705.704 660.186 706.026 659.309C706.614 657.629 708.266 656.509 709.06 654.921C709.639 653.736 708.836 652.438 707.632 653.428C706.555 654.447 705.536 655.525 704.579 656.658L698.332 663.249Z" fill="#3F3D56"/>
<path d="M709.788 639.302C710.143 644.904 710.395 650.879 707.351 655.556C706.25 657.237 704.784 658.646 703.533 660.224C702.823 661.01 702.35 661.981 702.17 663.025C701.992 665.06 703.906 666.759 705.904 667.189C707.902 667.618 709.975 666.946 711.926 666.321C713.77 665.859 715.505 665.041 717.033 663.912C719.685 661.671 720.385 657.937 720.917 654.511L722.159 646.547C723.102 642.512 722.712 638.28 721.048 634.485L719.003 628.501C718.863 627.917 718.535 627.395 718.07 627.016C717.597 626.756 717.054 626.654 716.52 626.727C714.559 626.82 709.639 627.53 708.687 629.602C707.912 631.423 709.658 637.164 709.788 639.302Z" fill="#EE8E9E"/>
<path opacity="0.05" d="M709.788 639.302C710.143 644.904 710.395 650.879 707.351 655.556C706.25 657.237 704.784 658.646 703.533 660.224C702.823 661.01 702.35 661.981 702.17 663.025C701.992 665.06 703.906 666.759 705.904 667.189C707.902 667.618 709.975 666.946 711.926 666.321C713.77 665.859 715.505 665.041 717.033 663.912C719.685 661.671 720.385 657.937 720.917 654.511L722.159 646.547C723.102 642.512 722.712 638.28 721.048 634.485L719.003 628.501C718.863 627.917 718.535 627.395 718.07 627.016C717.597 626.756 717.054 626.654 716.52 626.727C714.559 626.82 709.639 627.53 708.687 629.602C707.912 631.423 709.658 637.164 709.788 639.302Z" fill="black"/>
<path d="M665.991 474.27C665.991 474.27 665.991 474.372 665.991 474.419C666.114 475.209 666.37 475.973 666.748 476.678C668.414 480.332 669.386 484.264 669.614 488.274C669.605 489.268 669.74 490.259 670.015 491.214C670.424 492.122 670.924 492.986 671.509 493.791C673.283 496.676 673.694 500.149 674.31 503.482C675.075 507.803 676.208 512.051 677.699 516.179C679.725 521.781 682.461 527.569 681.536 533.479C681.184 534.87 681.006 536.3 681.004 537.736C681.266 539.321 681.834 540.839 682.675 542.208C683.36 543.565 683.982 544.946 684.543 546.353C685.15 547.875 685.672 549.415 686.13 551.021C686.681 552.888 687.064 555.185 685.784 556.716C685.399 557.093 685.058 557.513 684.767 557.967C684.52 558.661 684.52 559.42 684.767 560.114C685.483 563.158 686.251 566.186 687.073 569.198C687.695 571.569 688.364 573.925 689.08 576.265C694.206 593.462 699.994 610.491 703.44 628.099C703.934 630.629 707.174 632.45 709.704 633.01C710.971 633.279 712.283 633.245 713.534 632.911C714.785 632.577 715.939 631.952 716.903 631.087C717.077 630.928 717.242 630.76 717.397 630.582C720.04 627.782 720.422 623.375 720.198 619.445C719.265 601.323 710.19 584.733 705.839 567.163C704.272 560.794 703.334 554.287 703.038 547.735C702.02 525.851 701.61 502.735 707.8 481.71C709.079 477.341 710.6 472.374 708.294 468.481C706.829 466.007 704.121 464.541 701.451 463.477C695.988 461.345 690.154 460.324 684.291 460.475C678.428 460.625 672.654 461.944 667.308 464.355C667.303 464.791 667.322 465.227 667.364 465.662C667.599 467.702 667.363 469.768 666.673 471.702C666.294 472.51 666.063 473.38 665.991 474.27Z" fill="#3A3768"/>
<path d="M740.878 644.904L742.027 649.114C742.649 651.647 743.474 654.126 744.492 656.527C745.368 658.136 746.1 659.82 746.676 661.559C747.004 662.972 747.133 664.424 747.059 665.873C747.072 667.258 746.871 668.638 746.461 669.962C745.914 671.267 745.101 672.445 744.074 673.419C743.047 674.393 741.828 675.142 740.496 675.619C737.825 676.547 735.03 677.073 732.205 677.178C731.481 677.272 730.747 677.253 730.03 677.122C729.261 676.896 728.545 676.521 727.919 676.021C724.082 673.22 722.103 668.001 721.758 663.249C721.853 662.143 722.069 661.05 722.402 659.991C722.7 659.589 725.604 661.223 724.362 662.596C722.495 664.621 727.91 663.529 730.646 663.399C731.844 663.294 733.033 663.1 734.203 662.82L738.628 661.886C740.075 661.578 741.756 661.083 742.26 659.692C742.764 658.301 741.653 656.649 740.776 655.295C738.46 651.719 737.872 647.331 737.331 643.158C737.228 642.327 736.192 636.95 738.33 638.621C739.067 639.404 739.579 640.372 739.814 641.421C740.262 642.514 740.589 643.709 740.878 644.904Z" fill="#3F3D56"/>
<path opacity="0.05" d="M685.794 556.706C687.045 555.175 686.681 552.916 686.13 551.012C685.924 550.302 685.7 549.602 685.467 548.902L702.861 543.02C702.926 544.579 702.991 546.129 703.066 547.688C703.366 554.24 704.304 560.746 705.867 567.116C710.218 584.733 719.339 601.323 720.226 619.398C720.432 623.562 719.984 628.22 716.903 631.04C715.938 631.907 714.783 632.535 713.531 632.872C712.279 633.21 710.964 633.247 709.695 632.982C707.174 632.431 703.925 630.601 703.43 628.071C699.994 610.463 694.197 593.434 689.071 576.237C687.471 570.897 686.03 565.513 684.748 560.086C684.51 559.393 684.51 558.641 684.748 557.948C685.045 557.493 685.396 557.076 685.794 556.706Z" fill="black"/>
<path d="M733.839 625.812C735.211 628.174 737.312 630.274 737.639 632.982C737.825 634.625 737.321 636.259 737.331 637.911C737.396 639.275 737.641 640.625 738.059 641.926C739.739 648.038 741.688 654.072 743.903 660.028C744.263 660.794 744.424 661.639 744.37 662.483C744.146 663.875 742.792 664.789 741.495 665.35C737.349 667.123 732.681 667.002 728.181 666.815C726.88 666.879 725.586 666.578 724.446 665.947C722.831 664.845 722.439 662.661 722.327 660.71C722.019 655.108 722.981 649.385 722.327 643.774C722.103 641.73 721.673 639.713 721.393 637.678C720.945 634.877 720.721 631.889 721.655 629.182C722.419 627.24 723.491 625.434 724.829 623.832C726.016 622.1 727.517 620.605 729.255 619.426C729.777 619.108 731.29 618.147 731.822 618.744C732.102 619.062 731.981 619.883 732.018 620.266C732.087 620.853 732.19 621.436 732.326 622.012C732.649 623.343 733.159 624.622 733.839 625.812Z" fill="#EE8E9E"/>
<path opacity="0.05" d="M700.396 481.328C701.208 482.429 701.04 483.951 700.723 485.286C700.134 487.695 699.182 489.954 698.398 492.344C697.109 496.547 696.108 500.833 695.401 505.172C694.673 509.093 693.123 513.453 693.758 517.393C689.012 526.427 685.884 536.222 684.515 546.334C684.169 548.93 689.93 552.291 689.827 554.905C689.612 560.114 685.448 560.506 688.52 564.689C688.669 564.903 687.372 569.553 687.586 569.758C688.837 571.252 690.387 572.447 691.76 573.866C693.49 575.82 694.968 577.984 696.157 580.308C704.093 594.629 715.549 610.865 712.029 626.857C711.951 627.434 712.055 628.021 712.326 628.537C712.597 629.052 713.022 629.47 713.541 629.733C714.587 630.238 715.732 630.503 716.893 630.508H717.444C720.086 627.707 720.469 623.3 720.245 619.37C719.311 601.249 710.236 584.659 705.886 567.088C704.319 560.719 703.381 554.212 703.085 547.66C702.067 525.776 701.656 502.66 707.846 481.636C709.125 477.266 710.647 472.3 708.341 468.406C706.875 465.932 704.168 464.467 701.498 463.402C696.034 461.27 690.2 460.249 684.337 460.4C678.475 460.551 672.701 461.87 667.354 464.28C667.35 464.716 667.368 465.153 667.41 465.587C667.646 467.627 667.409 469.693 666.72 471.627C666.334 472.453 666.103 473.342 666.038 474.251C666.038 474.251 665.721 470.722 665.73 470.778C672.835 471.805 680.257 476.445 687.362 477.462C691.04 477.866 694.663 478.674 698.164 479.871C699.031 480.135 699.805 480.64 700.396 481.328Z" fill="black"/>
<path d="M749.599 442.527C750.557 445.564 751.397 448.633 752.119 451.732C752.444 452.802 752.53 453.93 752.371 455.037C752.147 456.074 751.494 457.007 751.438 458.062C751.27 459.705 752.371 461.143 753.044 462.665C754.649 466.539 752.932 470.918 751.242 474.755L746.219 486.145L742.092 495.481C740.869 498.282 739.646 501.082 738.46 503.827C733.088 516.594 728.7 529.753 725.333 543.188C725.219 543.796 724.987 544.376 724.652 544.896C723.951 545.83 722.691 546.101 721.664 546.661C718.574 548.36 718.219 553.448 721.048 555.558C720.469 562.401 725.595 569.011 728.237 575.351C734.324 589.924 733.223 606.346 735.305 622.031L732.952 620.649C730.683 621.685 730.758 624.906 729.535 627.081C727.667 630.349 723.233 630.816 719.489 630.564C718.328 630.559 717.182 630.294 716.137 629.789C715.619 629.525 715.196 629.106 714.927 628.591C714.657 628.076 714.555 627.489 714.634 626.913C718.154 610.921 706.707 594.685 698.762 580.364C697.566 578.044 696.089 575.881 694.365 573.922C693.02 572.503 691.442 571.308 690.191 569.805C686.681 565.604 686.242 559.685 686.457 554.223C687.018 541.367 690.413 528.793 696.4 517.402C695.765 513.462 697.334 509.102 698.034 505.181C698.745 500.843 699.746 496.557 701.031 492.353C701.815 490.001 702.777 487.685 703.355 485.295C703.682 483.96 703.85 482.439 703.038 481.337C702.431 480.632 701.628 480.122 700.732 479.871C697.215 478.674 693.577 477.869 689.883 477.472L665.459 473.971C664.675 468.948 663.872 463.356 664.414 458.305C665.002 453.631 666.947 449.232 670.008 445.651C673.07 442.071 677.113 439.466 681.639 438.158C682.703 437.868 683.955 437.691 684.823 438.372C706.411 434.131 728.729 435.563 749.599 442.527Z" fill="#3A3768"/>
<path d="M727.397 310.479C727.035 312.867 727.41 315.31 728.47 317.481C729.202 318.672 730.153 319.714 731.271 320.552C733.636 322.452 736.385 323.815 739.329 324.548C741.056 324.987 743.007 325.276 744.146 326.658C745.855 328.73 744.706 331.858 743.213 334.127C740.692 338.057 737.163 341.596 732.653 342.856C729.059 343.845 725.184 343.239 721.533 343.873C718.863 344.34 716.342 345.442 713.71 346.077C709.962 346.932 706.06 346.839 702.358 345.806C698.655 344.772 695.269 342.831 692.507 340.158C696.419 337.152 700.489 333.949 702.515 329.449C703.957 326.219 704.224 322.586 703.271 319.18C702.338 315.847 700.218 312.644 700.881 309.19C701.544 305.736 704.887 303.449 708.21 302.3C711.21 301.374 714.293 300.749 717.416 300.433C719.134 300.2 730.067 297.791 730.748 298.986C731.131 299.658 728.881 303.654 728.582 304.522C727.901 306.44 727.502 308.446 727.397 310.479Z" fill="#EE8E9E"/>
<path opacity="0.05" d="M727.397 310.479C727.035 312.867 727.41 315.31 728.47 317.481C729.202 318.672 730.153 319.714 731.271 320.552C733.636 322.452 736.385 323.815 739.329 324.548C741.056 324.987 743.007 325.276 744.146 326.658C745.855 328.73 744.706 331.858 743.213 334.127C740.692 338.057 737.163 341.596 732.653 342.856C729.059 343.845 725.184 343.239 721.533 343.873C718.863 344.34 716.342 345.442 713.71 346.077C709.962 346.932 706.06 346.839 702.358 345.806C698.655 344.772 695.269 342.831 692.507 340.158C696.419 337.152 700.489 333.949 702.515 329.449C703.957 326.219 704.224 322.586 703.271 319.18C702.338 315.847 700.218 312.644 700.881 309.19C701.544 305.736 704.887 303.449 708.21 302.3C711.21 301.374 714.293 300.749 717.416 300.433C719.134 300.2 730.067 297.791 730.748 298.986C731.131 299.658 728.881 303.654 728.582 304.522C727.901 306.44 727.502 308.446 727.397 310.479Z" fill="black"/>
<path d="M713.635 318.461C725.886 318.461 735.818 308.529 735.818 296.278C735.818 284.027 725.886 274.096 713.635 274.096C701.383 274.096 691.452 284.027 691.452 296.278C691.452 308.529 701.383 318.461 713.635 318.461Z" fill="#EE8E9E"/>
<path d="M725.352 332.941L710.311 335.471C706.624 336.221 702.87 336.6 699.107 336.601C697.049 336.395 694.976 336.395 692.917 336.601C691.498 336.834 690.117 337.376 688.716 337.534C686.961 337.749 685.168 337.422 683.413 337.646C680.145 338.057 677.466 340.316 675.01 342.482C672.107 345.012 668.979 347.972 668.755 351.818C668.704 352.257 668.768 352.701 668.942 353.107C669.223 353.572 669.602 353.97 670.053 354.274C672.854 356.542 674.366 359.875 676.327 362.91C678.352 365.991 680.876 368.714 683.796 370.966C684.459 370.556 685.663 371.657 685.411 372.386C685.159 373.114 684.412 373.618 684.179 374.355C683.646 376.064 685.747 377.315 686.615 378.874C687.484 380.433 687.054 382.412 687.148 384.224C687.25 386.222 688.081 388.126 688.296 390.105C688.903 394.717 686.625 399.591 688.231 403.951C686.261 403.708 684.496 405.407 683.908 407.321C683.5 409.274 683.561 411.296 684.085 413.221C682.809 413.987 681.767 415.088 681.074 416.405C680.38 417.722 680.063 419.205 680.155 420.69C680.264 421.141 680.194 421.616 679.959 422.016C679.745 422.22 679.486 422.37 679.202 422.455C677.818 423.015 676.633 423.976 675.801 425.216C674.969 426.456 674.528 427.917 674.534 429.41C674.595 429.902 674.55 430.402 674.403 430.876C674.135 431.331 673.76 431.716 673.311 431.996C672.301 432.811 671.487 433.842 670.93 435.013C670.372 436.185 670.085 437.467 670.09 438.765C670.09 440.52 670.818 442.415 672.377 443.199C675.561 444.824 678.988 445.449 682.479 446.205C685.702 446.97 688.966 447.549 692.255 447.942C695.3 448.199 698.358 448.292 701.414 448.222L721.533 448.147C727.191 448.147 732.849 448.101 738.488 447.718C743.754 447.363 749.141 446.71 754.239 448.091C754.883 447.008 753.856 445.757 753.23 444.674C752.511 443.198 752.119 441.583 752.082 439.941L750.812 426.534C750.561 424.678 750.526 422.798 750.71 420.933C750.98 418.963 751.727 417.086 752.11 415.135C752.848 411.401 752.175 407.489 752.353 403.671C752.611 400.291 753.199 396.946 754.108 393.681L758.095 377.259C758.739 374.626 759.075 371.564 760.055 369.034C763.13 361.167 766.345 353.356 769.7 345.601C769.825 345.262 769.875 344.901 769.846 344.541C769.817 344.181 769.71 343.832 769.532 343.519L766.199 337.562C765.314 335.866 764.296 334.243 763.155 332.708C760.351 329.158 756.383 326.715 751.951 325.808C747.5 324.944 742.888 325.63 738.88 327.75C737.331 328.572 735.893 329.617 734.324 330.392C731.617 331.737 728.349 333.146 725.352 332.941Z" fill="#3F3D56"/>
<path d="M671.976 347.552L666.738 354.535C666.254 355.128 665.844 355.777 665.515 356.468C664.731 358.335 665.16 360.445 664.74 362.405C664.415 363.667 663.895 364.87 663.2 365.972C661.229 369.436 659.001 372.747 656.534 375.877C655.397 377.468 653.999 378.854 652.398 379.976C651.589 380.532 650.67 380.908 649.704 381.078C648.738 381.249 647.746 381.211 646.796 380.965C647.604 381.266 648.271 381.859 648.663 382.627C650.652 386.576 650.801 391.254 649.951 395.604C649.711 397.09 649.219 398.523 648.495 399.843C647.764 401.175 646.577 402.199 645.153 402.728C645.243 403.388 645.468 404.024 645.812 404.595C646.156 405.166 646.612 405.662 647.154 406.051C647.695 406.441 648.31 406.716 648.961 406.86C649.612 407.005 650.286 407.015 650.941 406.891C651.972 406.578 652.944 406.095 653.817 405.463L662.219 400.011C663.624 399.171 664.935 398.186 666.131 397.07C667.709 395.502 668.811 393.513 670.333 391.907C672.947 389.106 676.775 387.501 678.614 384.177C679.762 382.104 679.968 379.649 680.677 377.38C681.144 375.896 681.826 374.486 682.274 373.002C683.656 368.39 682.657 363.33 680.547 358.998C678.437 354.666 675.085 351.221 671.976 347.552Z" fill="#3F3D56"/>
<path d="M691.722 283.637C693.776 280.452 696.426 277.694 699.528 275.515C703.664 272.425 708.435 269.858 713.598 269.568C715.76 269.455 717.921 269.805 719.937 270.595C720.03 264.331 721.589 260.167 725.539 260.792C732.83 261.969 740.934 264.769 743.726 271.613C745.836 276.776 744.202 282.592 743.661 288.137C743.46 289.605 743.514 291.095 743.819 292.544C744.417 294.878 746.079 296.773 747.675 298.584C749.924 300.883 751.812 303.508 753.277 306.371C754.594 309.293 755.004 312.766 753.651 315.707C753.181 316.452 752.863 317.284 752.717 318.153C752.624 320.02 754.584 321.252 756.069 322.457C761.549 326.994 761.306 335.247 761.353 342.352C761.461 356.877 764.706 371.209 770.867 384.364C768.562 385.534 765.958 385.982 763.394 385.649C760.831 385.316 758.427 384.217 756.498 382.497C757.255 385.738 758.347 388.892 759.757 391.907C755.088 394.148 749.543 390.46 747.218 385.867C744.893 381.274 744.622 375.943 742.97 371.069C741.317 366.196 738.395 361.957 737.135 357.065C736.714 355.441 736.472 353.704 735.473 352.397C734.638 351.422 733.655 350.584 732.56 349.914C727.78 346.478 734.81 320.524 732.952 314.941C730.151 315.557 725.063 302.151 722.159 288.53C720.133 289.228 717.972 289.445 715.848 289.164C715.11 288.996 714.351 288.942 713.598 289.006C712.894 289.148 712.222 289.421 711.618 289.809C709.449 291.098 707.183 292.215 704.84 293.151C700.032 294.943 694.738 294.71 689.612 294.458C688.927 290.714 689.68 286.849 691.722 283.637Z" fill="#3A3768"/>
<path opacity="0.2" d="M691.722 283.637C693.776 280.452 696.426 277.694 699.528 275.515C703.664 272.425 708.435 269.858 713.598 269.568C715.76 269.455 717.921 269.805 719.937 270.595C720.03 264.331 721.589 260.167 725.539 260.792C732.83 261.969 740.934 264.769 743.726 271.613C745.836 276.776 744.202 282.592 743.661 288.137C743.46 289.605 743.514 291.095 743.819 292.544C744.417 294.878 746.079 296.773 747.675 298.584C749.924 300.883 751.812 303.508 753.277 306.371C754.594 309.293 755.004 312.766 753.651 315.707C753.181 316.452 752.863 317.284 752.717 318.153C752.624 320.02 754.584 321.252 756.069 322.457C761.549 326.994 761.306 335.247 761.353 342.352C761.461 356.877 764.706 371.209 770.867 384.364C768.562 385.534 765.958 385.982 763.394 385.649C760.831 385.316 758.427 384.217 756.498 382.497C757.255 385.738 758.347 388.892 759.757 391.907C755.088 394.148 749.543 390.46 747.218 385.867C744.893 381.274 744.622 375.943 742.97 371.069C741.317 366.196 738.395 361.957 737.135 357.065C736.714 355.441 736.472 353.704 735.473 352.397C734.638 351.422 733.655 350.584 732.56 349.914C727.78 346.478 734.81 320.524 732.952 314.941C730.151 315.557 725.063 302.151 722.159 288.53C720.133 289.228 717.972 289.445 715.848 289.164C715.11 288.996 714.351 288.942 713.598 289.006C712.894 289.148 712.222 289.421 711.618 289.809C709.449 291.098 707.183 292.215 704.84 293.151C700.032 294.943 694.738 294.71 689.612 294.458C688.927 290.714 689.68 286.849 691.722 283.637Z" fill="black"/>
<g opacity="0.1">
<path opacity="0.1" d="M768.197 384.373C762.033 371.219 758.784 356.887 758.673 342.361C758.673 335.256 758.87 327.003 753.398 322.466C751.933 321.262 749.953 320.057 750.037 318.162C750.184 317.293 750.502 316.462 750.971 315.716C752.325 312.813 751.905 309.34 750.597 306.38C749.144 303.523 747.271 300.898 745.042 298.594C743.446 296.783 741.784 294.859 741.186 292.553C740.877 291.105 740.823 289.614 741.028 288.147C741.569 282.601 743.194 276.785 741.093 271.622C738.386 265.003 730.702 262.165 723.597 260.923C724.201 260.737 724.841 260.695 725.464 260.802C732.756 261.978 740.86 264.779 743.651 271.622C745.761 276.785 744.127 282.601 743.586 288.147C743.386 289.614 743.439 291.104 743.745 292.553C744.342 294.887 746.004 296.783 747.601 298.594C749.849 300.893 751.737 303.518 753.202 306.38C754.519 309.302 754.93 312.775 753.576 315.716C753.106 316.462 752.789 317.293 752.642 318.162C752.549 320.029 754.509 321.262 755.994 322.466C761.474 327.003 761.232 335.256 761.278 342.361C761.386 356.887 764.631 371.218 770.792 384.373C768.624 385.49 766.177 385.948 763.752 385.689C765.305 385.54 766.814 385.093 768.197 384.373Z" fill="black"/>
<path opacity="0.1" d="M757.086 391.898C755.674 388.883 754.579 385.729 753.819 382.487C754.751 383.349 755.817 384.055 756.974 384.578C757.682 387.087 758.59 389.535 759.691 391.898C758.357 392.53 756.857 392.723 755.406 392.449C755.987 392.336 756.551 392.151 757.086 391.898Z" fill="black"/>
<path opacity="0.1" d="M717.323 270.595C715.969 270.07 714.549 269.737 713.103 269.605H713.598C714.849 269.542 716.104 269.636 717.332 269.886L717.323 270.595Z" fill="black"/>
<path opacity="0.1" d="M702.226 293.151C704.552 292.177 706.799 291.025 708.948 289.706C709.549 289.318 710.217 289.046 710.918 288.903C711.608 288.835 712.305 288.879 712.981 289.034C712.484 289.21 712.005 289.435 711.553 289.706C709.408 291.027 707.164 292.179 704.84 293.151C701.232 294.344 697.43 294.842 693.636 294.617C696.561 294.606 699.463 294.111 702.226 293.151Z" fill="black"/>
<path opacity="0.1" d="M719.489 288.483C719.489 288.688 719.573 288.884 719.619 289.08C718.526 289.247 717.416 289.278 716.314 289.174C717.395 289.066 718.461 288.834 719.489 288.483Z" fill="black"/>
</g>
<path d="M765.657 391.319C765.529 392.493 765.658 393.681 766.035 394.799C766.413 395.918 767.029 396.942 767.842 397.798C768.762 398.69 769.798 399.453 770.923 400.067C772.018 400.821 773.281 401.296 774.601 401.449C776.36 401.391 778.031 400.663 779.27 399.413C783.126 396.024 785.067 391.011 786.841 386.184C789.203 379.798 791.51 373.357 792.565 366.635C793.657 359.418 793.19 351.94 795.263 344.938C793.396 341.269 792.247 337.226 790.165 333.688C788.839 331.582 787.669 329.382 786.664 327.106C784.721 322.267 784.5 316.908 786.038 311.926C785.671 311.69 785.239 311.576 784.804 311.6C784.368 311.623 783.951 311.783 783.611 312.056C782.948 312.626 782.446 313.36 782.155 314.185C780.947 316.993 780.446 320.054 780.698 323.101C780.847 323.833 780.762 324.594 780.455 325.276C780.173 325.625 779.809 325.899 779.395 326.073C778.981 326.247 778.531 326.317 778.084 326.275C776.221 326.191 774.378 325.858 772.603 325.285C767.097 323.882 761.394 323.412 755.733 323.894C754.593 323.927 753.473 324.201 752.446 324.697C751.936 324.952 751.508 325.343 751.209 325.829C750.911 326.314 750.754 326.873 750.756 327.442L764.219 329.421C765.22 329.476 766.187 329.799 767.02 330.355C767.424 330.659 767.69 331.111 767.762 331.611C767.834 332.111 767.705 332.62 767.403 333.025C767.113 333.261 766.8 333.467 766.469 333.641C766.135 333.911 765.867 334.255 765.687 334.645C765.506 335.035 765.418 335.461 765.429 335.891C765.44 336.32 765.55 336.742 765.749 337.122C765.949 337.503 766.234 337.832 766.581 338.085C766.932 338.228 767.249 338.441 767.515 338.711C768.066 339.458 767.338 340.438 767.104 341.325C766.999 341.984 767.099 342.659 767.389 343.26C767.68 343.861 768.147 344.358 768.729 344.686C769.89 345.325 771.154 345.754 772.463 345.955C775.113 346.562 777.694 347.438 780.166 348.569C780.971 348.857 781.671 349.381 782.173 350.073C782.836 351.193 782.397 352.621 781.94 353.807L778.429 363.274C777.878 364.758 777.328 366.243 776.646 367.671C775.712 369.538 774.639 371.265 773.724 373.114C772.904 374.84 772.172 376.607 771.53 378.407C769.821 383.309 766.255 386.203 765.657 391.319Z" fill="#EE8E9E"/>
<path d="M352.429 674.331H210.573C208.97 674.331 207.434 673.695 206.301 672.562C205.168 671.429 204.532 669.893 204.532 668.291V601.155C204.535 600.138 204.794 599.138 205.287 598.247C205.779 597.357 206.489 596.606 207.349 596.063C208.21 595.52 209.193 595.203 210.209 595.142C211.225 595.081 212.239 595.277 213.159 595.712C253.931 615.057 297.849 621.704 349.768 596.011C350.688 595.549 351.71 595.33 352.738 595.375C353.766 595.42 354.765 595.727 355.641 596.266C356.517 596.806 357.24 597.561 357.742 598.459C358.243 599.358 358.507 600.369 358.507 601.398V668.291C358.507 669.087 358.35 669.875 358.044 670.611C357.738 671.346 357.29 672.014 356.725 672.575C356.16 673.136 355.49 673.581 354.752 673.882C354.015 674.183 353.226 674.336 352.429 674.331Z" fill="#6C63FF"/>
<path opacity="0.1" d="M352.429 674.331H210.573C208.97 674.331 207.434 673.695 206.301 672.562C205.168 671.429 204.532 669.893 204.532 668.291V601.155C204.535 600.138 204.794 599.138 205.287 598.247C205.779 597.357 206.489 596.606 207.349 596.063C208.21 595.52 209.193 595.203 210.209 595.142C211.225 595.081 212.239 595.277 213.159 595.712C253.931 615.057 297.849 621.704 349.768 596.011C350.688 595.549 351.71 595.33 352.738 595.375C353.766 595.42 354.765 595.727 355.641 596.266C356.517 596.806 357.24 597.561 357.742 598.459C358.243 599.358 358.507 600.369 358.507 601.398V668.291C358.507 669.087 358.35 669.875 358.044 670.611C357.738 671.346 357.29 672.014 356.725 672.575C356.16 673.136 355.49 673.581 354.752 673.882C354.015 674.183 353.226 674.336 352.429 674.331Z" fill="black"/>
<path d="M280.493 623.263C285.133 623.263 288.895 618.339 288.895 612.265C288.895 606.191 285.133 601.267 280.493 601.267C275.852 601.267 272.09 606.191 272.09 612.265C272.09 618.339 275.852 623.263 280.493 623.263Z" fill="#3F3D56"/>
<path d="M280.493 609.819C285.133 609.819 288.895 604.895 288.895 598.821C288.895 592.747 285.133 587.823 280.493 587.823C275.852 587.823 272.09 592.747 272.09 598.821C272.09 604.895 275.852 609.819 280.493 609.819Z" fill="#3F3D56"/>
<path d="M280.493 596.375C285.133 596.375 288.895 591.451 288.895 585.377C288.895 579.304 285.133 574.38 280.493 574.38C275.852 574.38 272.09 579.304 272.09 585.377C272.09 591.451 275.852 596.375 280.493 596.375Z" fill="#3F3D56"/>
<path d="M280.493 582.931C285.133 582.931 288.895 578.007 288.895 571.934C288.895 565.86 285.133 560.936 280.493 560.936C275.852 560.936 272.09 565.86 272.09 571.934C272.09 578.007 275.852 582.931 280.493 582.931Z" fill="#3F3D56"/>
<path d="M280.493 569.487C285.133 569.487 288.895 564.564 288.895 558.49C288.895 552.416 285.133 547.492 280.493 547.492C275.852 547.492 272.09 552.416 272.09 558.49C272.09 564.564 275.852 569.487 280.493 569.487Z" fill="#3F3D56"/>
<path d="M280.493 556.044C285.133 556.044 288.895 551.12 288.895 545.046C288.895 538.972 285.133 534.048 280.493 534.048C275.852 534.048 272.09 538.972 272.09 545.046C272.09 551.12 275.852 556.044 280.493 556.044Z" fill="#3F3D56"/>
<path d="M280.493 542.6C285.133 542.6 288.895 537.676 288.895 531.602C288.895 525.528 285.133 520.604 280.493 520.604C275.852 520.604 272.09 525.528 272.09 531.602C272.09 537.676 275.852 542.6 280.493 542.6Z" fill="#3F3D56"/>
<path d="M311.947 439.605C313.096 438.143 314.141 436.602 315.075 434.993L292.994 431.371L316.876 431.548C319.17 426.565 320.421 421.165 320.552 415.681C320.684 410.197 319.694 404.744 317.642 399.656L285.609 416.274L315.14 394.559C312.375 389.769 308.652 385.601 304.205 382.314C299.757 379.026 294.68 376.691 289.29 375.452C283.9 374.214 278.312 374.099 272.876 375.116C267.44 376.132 262.271 378.257 257.692 381.36C253.114 384.462 249.224 388.474 246.264 393.146C243.305 397.818 241.34 403.05 240.492 408.515C239.644 413.98 239.932 419.561 241.336 424.91C242.741 430.259 245.232 435.261 248.656 439.605C246.862 441.875 245.325 444.336 244.071 446.943L272.725 461.834L242.167 451.564C240.024 457.907 239.496 464.683 240.629 471.282C241.762 477.88 244.52 484.092 248.656 489.356C243.983 495.294 241.075 502.427 240.265 509.939C239.456 517.451 240.776 525.04 244.077 531.837C247.377 538.633 252.524 544.364 258.928 548.374C265.332 552.384 272.736 554.51 280.292 554.51C287.848 554.51 295.251 552.384 301.656 548.374C308.06 544.364 313.207 538.633 316.507 531.837C319.807 525.04 321.128 517.451 320.318 509.939C319.509 502.427 316.601 495.294 311.928 489.356C317.51 482.264 320.545 473.501 320.545 464.476C320.545 455.451 317.51 446.688 311.928 439.596L311.947 439.605Z" fill="#6C63FF"/>
<path opacity="0.1" d="M240.066 464.485C240.049 473.512 243.082 482.28 248.674 489.366C244.001 495.303 241.094 502.436 240.284 509.948C239.474 517.461 240.795 525.049 244.095 531.846C247.396 538.643 252.542 544.374 258.947 548.383C265.351 552.393 272.755 554.519 280.311 554.519C287.867 554.519 295.27 552.393 301.674 548.383C308.079 544.374 313.225 538.643 316.526 531.846C319.826 525.049 321.147 517.461 320.337 509.948C319.527 502.436 316.62 495.303 311.947 489.366C317.343 482.523 240.066 459.967 240.066 464.485Z" fill="black"/>
<path d="M352.429 677.879H210.573C208.972 677.879 207.437 677.244 206.304 676.113C205.172 674.982 204.534 673.448 204.532 671.848V601.155C204.535 600.138 204.794 599.138 205.287 598.247C205.779 597.357 206.489 596.606 207.349 596.063C208.21 595.52 209.193 595.203 210.209 595.142C211.225 595.081 212.239 595.277 213.159 595.712C253.884 615.057 286.197 637.65 349.684 596.011C353.419 593.546 358.423 596.945 358.423 601.398V671.848C358.423 673.441 357.793 674.969 356.67 676.099C355.547 677.229 354.022 677.869 352.429 677.879Z" fill="#6C63FF"/>
<path d="M640.316 191.304H635.34C634.159 191.304 633.202 192.261 633.202 193.442V265.47C633.202 266.65 634.159 267.607 635.34 267.607H640.316C641.497 267.607 642.454 266.65 642.454 265.47V193.442C642.454 192.261 641.497 191.304 640.316 191.304Z" fill="#3A3768"/>
<path d="M328.556 131.516H327.641C326.46 131.516 325.503 132.474 325.503 133.654V154.502C325.503 155.682 326.46 156.64 327.641 156.64H328.556C329.737 156.64 330.694 155.682 330.694 154.502V133.654C330.694 132.474 329.737 131.516 328.556 131.516Z" fill="#3A3768"/>
<path d="M329.032 177.515H327.455C326.274 177.515 325.317 178.472 325.317 179.653V219.107C325.317 220.288 326.274 221.245 327.455 221.245H329.032C330.213 221.245 331.17 220.288 331.17 219.107V179.653C331.17 178.472 330.213 177.515 329.032 177.515Z" fill="#3A3768"/>
<path d="M328.846 236.537H327.548C326.367 236.537 325.41 237.494 325.41 238.675V278.503C325.41 279.683 326.367 280.641 327.548 280.641H328.846C330.026 280.641 330.984 279.683 330.984 278.503V238.675C330.984 237.494 330.026 236.537 328.846 236.537Z" fill="#3A3768"/>
<path d="M601.795 48.5006H364.847C344.742 48.5006 328.444 64.7979 328.444 84.9017V641.599C328.444 661.703 344.742 678 364.847 678H601.795C621.899 678 638.197 661.703 638.197 641.599V84.9017C638.197 64.7979 621.899 48.5006 601.795 48.5006Z" fill="#3A3768"/>
<path d="M493.082 67.3033H457.053C455.057 67.3033 453.44 68.921 453.44 70.9164V72.4755C453.44 74.4709 455.057 76.0885 457.053 76.0885H493.082C495.077 76.0885 496.695 74.4709 496.695 72.4755V70.9164C496.695 68.921 495.077 67.3033 493.082 67.3033Z" fill="#E6E8EC"/>
<path d="M508.216 76.6767C510.97 76.6767 513.202 74.4446 513.202 71.6912C513.202 68.9379 510.97 66.7058 508.216 66.7058C505.463 66.7058 503.23 68.9379 503.23 71.6912C503.23 74.4446 505.463 76.6767 508.216 76.6767Z" fill="#E6E8EC"/>
<path d="M594.465 64.9039H558.987V69.1705C558.988 71.8305 558.466 74.4647 557.448 76.9226C556.431 79.3805 554.94 81.6139 553.059 83.4953C551.179 85.3767 548.946 86.8691 546.488 87.8873C544.031 88.9055 541.397 89.4296 538.737 89.4296H425.701C420.328 89.4296 415.175 87.2952 411.375 83.4959C407.576 79.6965 405.441 74.5435 405.441 69.1705V64.9039H372.176C368.946 64.9039 365.747 65.5403 362.763 66.7767C359.778 68.0131 357.067 69.8253 354.783 72.1098C352.5 74.3943 350.688 77.1063 349.453 80.0909C348.218 83.0755 347.583 86.2742 347.584 89.5043V637.006C347.583 640.236 348.218 643.434 349.453 646.419C350.688 649.404 352.5 652.116 354.783 654.4C357.067 656.685 359.778 658.497 362.763 659.733C365.747 660.97 368.946 661.606 372.176 661.606H594.465C597.696 661.606 600.895 660.97 603.88 659.733C606.865 658.497 609.577 656.685 611.861 654.401C614.146 652.116 615.958 649.404 617.194 646.42C618.43 643.435 619.067 640.236 619.067 637.006V89.5043C619.067 86.2738 618.43 83.0748 617.194 80.0902C615.958 77.1055 614.146 74.3936 611.861 72.1092C609.577 69.8249 606.865 68.0128 603.88 66.7765C600.895 65.5402 597.696 64.9039 594.465 64.9039Z" fill="#E6E8EC"/>
<path d="M384.136 560.693V594.023L410.277 577.358L384.136 560.693Z" fill="#3A3768"/>
<path opacity="0.1" d="M482.168 597.888C493.512 597.888 502.708 588.692 502.708 577.348C502.708 566.005 493.512 556.809 482.168 556.809C470.824 556.809 461.628 566.005 461.628 577.348C461.628 588.692 470.824 597.888 482.168 597.888Z" fill="black"/>
<path d="M482.168 596.02C492.48 596.02 500.84 587.661 500.84 577.348C500.84 567.036 492.48 558.676 482.168 558.676C471.855 558.676 463.495 567.036 463.495 577.348C463.495 587.661 471.855 596.02 482.168 596.02Z" fill="#F86D70"/>
<path d="M563.665 592.286H557.269C556.422 592.286 555.608 591.95 555.008 591.351C554.408 590.753 554.069 589.941 554.067 589.093V565.622C554.069 564.774 554.408 563.961 555.008 563.361C555.608 562.761 556.421 562.423 557.269 562.42H563.665C564.514 562.42 565.329 562.758 565.929 563.358C566.53 563.959 566.867 564.773 566.867 565.622V589.103C566.866 589.522 566.782 589.937 566.62 590.324C566.459 590.711 566.223 591.062 565.925 591.358C565.628 591.653 565.275 591.887 564.887 592.047C564.499 592.206 564.084 592.287 563.665 592.286ZM583.934 589.103V565.622C583.934 564.775 583.598 563.962 582.999 563.361C582.401 562.761 581.589 562.423 580.741 562.42H574.336C573.488 562.423 572.675 562.761 572.074 563.361C571.474 563.961 571.136 564.774 571.134 565.622V589.103C571.136 589.95 571.475 590.762 572.075 591.361C572.675 591.959 573.488 592.295 574.336 592.295H580.741C581.588 592.295 582.4 591.959 582.999 591.36C583.598 590.761 583.934 589.949 583.934 589.103Z" fill="#3A3768"/>
<path opacity="0.2" d="M553.703 127.353H415.3C413.3 127.353 411.678 128.974 411.678 130.975V174.145C411.678 176.145 413.3 177.767 415.3 177.767H553.703C555.704 177.767 557.325 176.145 557.325 174.145V130.975C557.325 128.974 555.704 127.353 553.703 127.353Z" fill="#6C63FF"/>
<path d="M606.332 248.721H361.738C358.897 248.721 356.593 251.024 356.593 253.865V392.953C356.593 395.794 358.897 398.097 361.738 398.097H606.332C609.173 398.097 611.476 395.794 611.476 392.953V253.865C611.476 251.024 609.173 248.721 606.332 248.721Z" fill="white"/>
<path d="M375.266 304.774C375.266 304.238 374.831 303.803 374.295 303.803C373.759 303.803 373.324 304.238 373.324 304.774V342.044C373.324 342.58 373.759 343.014 374.295 343.014C374.831 343.014 375.266 342.58 375.266 342.044V304.774Z" fill="#6C63FF"/>
<path d="M380.616 297.305C380.616 296.769 380.181 296.334 379.645 296.334C379.109 296.334 378.674 296.769 378.674 297.305V349.512C378.674 350.049 379.109 350.483 379.645 350.483C380.181 350.483 380.616 350.049 380.616 349.512V297.305Z" fill="#6C63FF"/>
<path d="M385.956 292.637C385.956 292.101 385.522 291.666 384.985 291.666C384.449 291.666 384.014 292.101 384.014 292.637V354.18C384.014 354.717 384.449 355.151 384.985 355.151C385.522 355.151 385.956 354.717 385.956 354.18V292.637Z" fill="#6C63FF"/>
<path d="M391.306 280.034C391.306 279.497 390.871 279.063 390.335 279.063C389.799 279.063 389.364 279.497 389.364 280.034V366.784C389.364 367.32 389.799 367.755 390.335 367.755C390.871 367.755 391.306 367.32 391.306 366.784V280.034Z" fill="#6C63FF"/>
<path d="M396.646 292.171C396.646 291.634 396.212 291.2 395.675 291.2C395.139 291.2 394.704 291.634 394.704 292.171V354.647C394.704 355.183 395.139 355.618 395.675 355.618C396.212 355.618 396.646 355.183 396.646 354.647V292.171Z" fill="#6C63FF"/>
<path d="M401.987 297.305C401.987 296.769 401.552 296.334 401.016 296.334C400.48 296.334 400.045 296.769 400.045 297.305V349.512C400.045 350.049 400.48 350.483 401.016 350.483C401.552 350.483 401.987 350.049 401.987 349.512V297.305Z" fill="#6C63FF"/>
<path d="M407.337 304.774C407.337 304.238 406.902 303.803 406.366 303.803C405.829 303.803 405.395 304.238 405.395 304.774V342.044C405.395 342.58 405.829 343.014 406.366 343.014C406.902 343.014 407.337 342.58 407.337 342.044V304.774Z" fill="#6C63FF"/>
<path d="M412.677 311.309C412.677 310.773 412.242 310.339 411.706 310.339C411.17 310.339 410.735 310.773 410.735 311.309V335.508C410.735 336.045 411.17 336.479 411.706 336.479C412.242 336.479 412.677 336.045 412.677 335.508V311.309Z" fill="#6C63FF"/>
<path d="M418.027 304.774C418.027 304.238 417.592 303.803 417.056 303.803C416.519 303.803 416.085 304.238 416.085 304.774V342.044C416.085 342.58 416.519 343.014 417.056 343.014C417.592 343.014 418.027 342.58 418.027 342.044V304.774Z" fill="#6C63FF"/>
<path d="M423.367 288.903C423.367 288.367 422.932 287.932 422.396 287.932C421.86 287.932 421.425 288.367 421.425 288.903V357.915C421.425 358.451 421.86 358.886 422.396 358.886C422.932 358.886 423.367 358.451 423.367 357.915V288.903Z" fill="#6C63FF"/>
<path d="M428.717 269.764C428.717 269.228 428.282 268.793 427.746 268.793C427.21 268.793 426.775 269.228 426.775 269.764V377.054C426.775 377.59 427.21 378.025 427.746 378.025C428.282 378.025 428.717 377.59 428.717 377.054V269.764Z" fill="#6C63FF"/>
<path d="M434.057 277.233C434.057 276.697 433.623 276.262 433.086 276.262C432.55 276.262 432.115 276.697 432.115 277.233V369.585C432.115 370.121 432.55 370.556 433.086 370.556C433.623 370.556 434.057 370.121 434.057 369.585V277.233Z" fill="#6C63FF"/>
<path d="M439.407 288.903C439.407 288.367 438.972 287.932 438.436 287.932C437.9 287.932 437.465 288.367 437.465 288.903V357.915C437.465 358.451 437.9 358.886 438.436 358.886C438.972 358.886 439.407 358.451 439.407 357.915V288.903Z" fill="#6C63FF"/>
<path d="M444.747 297.305C444.747 296.769 444.313 296.334 443.776 296.334C443.24 296.334 442.805 296.769 442.805 297.305V349.512C442.805 350.049 443.24 350.483 443.776 350.483C444.313 350.483 444.747 350.049 444.747 349.512V297.305Z" fill="#6C63FF"/>
<path d="M450.088 304.774C450.088 304.238 449.653 303.803 449.117 303.803C448.581 303.803 448.146 304.238 448.146 304.774V342.044C448.146 342.58 448.581 343.014 449.117 343.014C449.653 343.014 450.088 342.58 450.088 342.044V304.774Z" fill="#6C63FF"/>
<path d="M455.438 311.309C455.438 310.773 455.003 310.339 454.467 310.339C453.93 310.339 453.496 310.773 453.496 311.309V335.508C453.496 336.045 453.93 336.479 454.467 336.479C455.003 336.479 455.438 336.045 455.438 335.508V311.309Z" fill="#6C63FF"/>
<path d="M460.778 304.774C460.778 304.238 460.343 303.803 459.807 303.803C459.271 303.803 458.836 304.238 458.836 304.774V342.044C458.836 342.58 459.271 343.014 459.807 343.014C460.343 343.014 460.778 342.58 460.778 342.044V304.774Z" fill="#6C63FF"/>
<path d="M466.128 297.305C466.128 296.769 465.693 296.334 465.157 296.334C464.62 296.334 464.186 296.769 464.186 297.305V349.512C464.186 350.049 464.62 350.483 465.157 350.483C465.693 350.483 466.128 350.049 466.128 349.512V297.305Z" fill="#6C63FF"/>
<path d="M471.468 288.903C471.468 288.367 471.033 287.932 470.497 287.932C469.961 287.932 469.526 288.367 469.526 288.903V357.915C469.526 358.451 469.961 358.886 470.497 358.886C471.033 358.886 471.468 358.451 471.468 357.915V288.903Z" fill="#6C63FF"/>
<path d="M476.818 297.305C476.818 296.769 476.383 296.334 475.847 296.334C475.311 296.334 474.876 296.769 474.876 297.305V349.512C474.876 350.049 475.311 350.483 475.847 350.483C476.383 350.483 476.818 350.049 476.818 349.512V297.305Z" fill="#6C63FF"/>
<path d="M482.158 311.309C482.158 310.773 481.724 310.339 481.187 310.339C480.651 310.339 480.216 310.773 480.216 311.309V335.508C480.216 336.045 480.651 336.479 481.187 336.479C481.724 336.479 482.158 336.045 482.158 335.508V311.309Z" fill="#6C63FF"/>
<path d="M487.853 304.774C487.853 304.238 487.419 303.803 486.882 303.803C486.346 303.803 485.911 304.238 485.911 304.774V342.044C485.911 342.58 486.346 343.014 486.882 343.014C487.419 343.014 487.853 342.58 487.853 342.044V304.774Z" fill="#6C63FF"/>
<path d="M493.203 297.305C493.203 296.769 492.768 296.334 492.232 296.334C491.696 296.334 491.261 296.769 491.261 297.305V349.512C491.261 350.049 491.696 350.483 492.232 350.483C492.768 350.483 493.203 350.049 493.203 349.512V297.305Z" fill="#6C63FF"/>
<path d="M498.544 292.637C498.544 292.101 498.109 291.666 497.573 291.666C497.036 291.666 496.602 292.101 496.602 292.637V354.18C496.602 354.717 497.036 355.151 497.573 355.151C498.109 355.151 498.544 354.717 498.544 354.18V292.637Z" fill="#6C63FF"/>
<path d="M503.893 280.034C503.893 279.497 503.459 279.063 502.922 279.063C502.386 279.063 501.951 279.497 501.951 280.034V366.784C501.951 367.32 502.386 367.755 502.922 367.755C503.459 367.755 503.893 367.32 503.893 366.784V280.034Z" fill="#6C63FF"/>
<path d="M509.234 292.171C509.234 291.634 508.799 291.2 508.263 291.2C507.727 291.2 507.292 291.634 507.292 292.171V354.647C507.292 355.183 507.727 355.618 508.263 355.618C508.799 355.618 509.234 355.183 509.234 354.647V292.171Z" fill="#6C63FF"/>
<path d="M514.574 297.305C514.574 296.769 514.139 296.334 513.603 296.334C513.067 296.334 512.632 296.769 512.632 297.305V349.512C512.632 350.049 513.067 350.483 513.603 350.483C514.139 350.483 514.574 350.049 514.574 349.512V297.305Z" fill="#6C63FF"/>
<path d="M519.924 304.774C519.924 304.238 519.489 303.803 518.953 303.803C518.417 303.803 517.982 304.238 517.982 304.774V342.044C517.982 342.58 518.417 343.014 518.953 343.014C519.489 343.014 519.924 342.58 519.924 342.044V304.774Z" fill="#6C63FF"/>
<path d="M525.264 311.309C525.264 310.773 524.83 310.339 524.293 310.339C523.757 310.339 523.322 310.773 523.322 311.309V335.508C523.322 336.045 523.757 336.479 524.293 336.479C524.83 336.479 525.264 336.045 525.264 335.508V311.309Z" fill="#6C63FF"/>
<path d="M530.614 304.774C530.614 304.238 530.179 303.803 529.643 303.803C529.107 303.803 528.672 304.238 528.672 304.774V342.044C528.672 342.58 529.107 343.014 529.643 343.014C530.179 343.014 530.614 342.58 530.614 342.044V304.774Z" fill="#6C63FF"/>
<path d="M535.954 288.903C535.954 288.367 535.52 287.932 534.983 287.932C534.447 287.932 534.012 288.367 534.012 288.903V357.915C534.012 358.451 534.447 358.886 534.983 358.886C535.52 358.886 535.954 358.451 535.954 357.915V288.903Z" fill="#6C63FF"/>
<path d="M541.304 269.764C541.304 269.228 540.869 268.793 540.333 268.793C539.797 268.793 539.362 269.228 539.362 269.764V377.054C539.362 377.59 539.797 378.025 540.333 378.025C540.869 378.025 541.304 377.59 541.304 377.054V269.764Z" fill="#6C63FF"/>
<path d="M546.645 277.233C546.645 276.697 546.21 276.262 545.674 276.262C545.137 276.262 544.703 276.697 544.703 277.233V369.585C544.703 370.121 545.137 370.556 545.674 370.556C546.21 370.556 546.645 370.121 546.645 369.585V277.233Z" fill="#6C63FF"/>
<path d="M551.994 288.903C551.994 288.367 551.56 287.932 551.023 287.932C550.487 287.932 550.052 288.367 550.052 288.903V357.915C550.052 358.451 550.487 358.886 551.023 358.886C551.56 358.886 551.994 358.451 551.994 357.915V288.903Z" fill="#6C63FF"/>
<path d="M557.335 297.305C557.335 296.769 556.9 296.334 556.364 296.334C555.827 296.334 555.393 296.769 555.393 297.305V349.512C555.393 350.049 555.827 350.483 556.364 350.483C556.9 350.483 557.335 350.049 557.335 349.512V297.305Z" fill="#6C63FF"/>
<path d="M562.675 304.774C562.675 304.238 562.24 303.803 561.704 303.803C561.168 303.803 560.733 304.238 560.733 304.774V342.044C560.733 342.58 561.168 343.014 561.704 343.014C562.24 343.014 562.675 342.58 562.675 342.044V304.774Z" fill="#6C63FF"/>
<path d="M568.025 311.309C568.025 310.773 567.59 310.339 567.054 310.339C566.518 310.339 566.083 310.773 566.083 311.309V335.508C566.083 336.045 566.518 336.479 567.054 336.479C567.59 336.479 568.025 336.045 568.025 335.508V311.309Z" fill="#6C63FF"/>
<path d="M573.365 304.774C573.365 304.238 572.931 303.803 572.394 303.803C571.858 303.803 571.423 304.238 571.423 304.774V342.044C571.423 342.58 571.858 343.014 572.394 343.014C572.931 343.014 573.365 342.58 573.365 342.044V304.774Z" fill="#6C63FF"/>
<path d="M578.715 297.305C578.715 296.769 578.28 296.334 577.744 296.334C577.208 296.334 576.773 296.769 576.773 297.305V349.512C576.773 350.049 577.208 350.483 577.744 350.483C578.28 350.483 578.715 350.049 578.715 349.512V297.305Z" fill="#6C63FF"/>
<path d="M584.055 288.903C584.055 288.367 583.621 287.932 583.084 287.932C582.548 287.932 582.113 288.367 582.113 288.903V357.915C582.113 358.451 582.548 358.886 583.084 358.886C583.621 358.886 584.055 358.451 584.055 357.915V288.903Z" fill="#6C63FF"/>
<path d="M589.405 297.305C589.405 296.769 588.97 296.334 588.434 296.334C587.898 296.334 587.463 296.769 587.463 297.305V349.512C587.463 350.049 587.898 350.483 588.434 350.483C588.97 350.483 589.405 350.049 589.405 349.512V297.305Z" fill="#6C63FF"/>
<path d="M594.746 311.309C594.746 310.773 594.311 310.339 593.775 310.339C593.238 310.339 592.804 310.773 592.804 311.309V335.508C592.804 336.045 593.238 336.479 593.775 336.479C594.311 336.479 594.746 336.045 594.746 335.508V311.309Z" fill="#6C63FF"/>
<path d="M502.922 248.721V398.097" stroke="#F86D70" stroke-miterlimit="10"/>
<g opacity="0.2">
<path opacity="0.2" d="M400.017 233.783H381.325C380.557 233.783 379.934 234.406 379.934 235.174V240.795C379.934 241.563 380.557 242.186 381.325 242.186H400.017C400.785 242.186 401.408 241.563 401.408 240.795V235.174C401.408 234.406 400.785 233.783 400.017 233.783Z" fill="#6C63FF"/>
<path opacity="0.2" d="M437.362 233.783H418.671C417.903 233.783 417.28 234.406 417.28 235.174V240.795C417.28 241.563 417.903 242.186 418.671 242.186H437.362C438.131 242.186 438.753 241.563 438.753 240.795V235.174C438.753 234.406 438.131 233.783 437.362 233.783Z" fill="#6C63FF"/>
<path opacity="0.2" d="M474.708 233.783H456.016C455.248 233.783 454.625 234.406 454.625 235.174V240.795C454.625 241.563 455.248 242.186 456.016 242.186H474.708C475.476 242.186 476.099 241.563 476.099 240.795V235.174C476.099 234.406 475.476 233.783 474.708 233.783Z" fill="#6C63FF"/>
<path opacity="0.2" d="M512.053 233.783H493.362C492.594 233.783 491.971 234.406 491.971 235.174V240.795C491.971 241.563 492.594 242.186 493.362 242.186H512.053C512.822 242.186 513.444 241.563 513.444 240.795V235.174C513.444 234.406 512.822 233.783 512.053 233.783Z" fill="#6C63FF"/>
<path opacity="0.2" d="M549.399 233.783H530.707C529.939 233.783 529.316 234.406 529.316 235.174V240.795C529.316 241.563 529.939 242.186 530.707 242.186H549.399C550.167 242.186 550.79 241.563 550.79 240.795V235.174C550.79 234.406 550.167 233.783 549.399 233.783Z" fill="#6C63FF"/>
<path opacity="0.2" d="M586.744 233.783H568.053C567.285 233.783 566.662 234.406 566.662 235.174V240.795C566.662 241.563 567.285 242.186 568.053 242.186H586.744C587.513 242.186 588.135 241.563 588.135 240.795V235.174C588.135 234.406 587.513 233.783 586.744 233.783Z" fill="#6C63FF"/>
</g>
<path opacity="0.1" d="M882.913 113.825L893.183 98.579C893.593 97.969 893.832 97.2598 893.874 96.5257C893.916 95.7917 893.76 95.0598 893.422 94.4068C893.084 93.7538 892.577 93.2037 891.953 92.8142C891.33 92.4248 890.613 92.2103 889.878 92.1932L872.792 91.7824C872.103 91.7653 871.42 91.9224 870.807 92.2392C870.195 92.556 869.672 93.0222 869.288 93.5947C868.903 94.1672 868.67 94.8274 868.608 95.5143C868.547 96.2011 868.659 96.8924 868.936 97.524L875.77 113.181C876.066 113.85 876.535 114.428 877.13 114.855C877.725 115.282 878.423 115.541 879.152 115.607C879.881 115.673 880.614 115.542 881.275 115.229C881.937 114.915 882.502 114.431 882.913 113.825Z" fill="#6C63FF"/>
<path opacity="0.1" d="M129.346 538.52L127.591 556.8C127.521 557.532 127.65 558.269 127.962 558.934C128.275 559.599 128.76 560.169 129.367 560.583C129.975 560.997 130.682 561.24 131.416 561.287C132.15 561.335 132.882 561.184 133.538 560.852L148.766 553.084C149.381 552.771 149.907 552.307 150.295 551.737C150.684 551.166 150.921 550.506 150.986 549.819C151.052 549.132 150.942 548.439 150.668 547.805C150.394 547.172 149.965 546.617 149.419 546.194L135.956 535.672C135.376 535.221 134.685 534.934 133.955 534.841C133.226 534.748 132.485 534.852 131.81 535.143C131.134 535.434 130.55 535.901 130.116 536.495C129.683 537.089 129.417 537.788 129.346 538.52Z" fill="#6C63FF"/>
<path opacity="0.1" d="M25.7124 341.53L23.9571 359.81C23.8877 360.542 24.0159 361.279 24.3284 361.944C24.6409 362.61 25.1262 363.179 25.7337 363.593C26.3412 364.007 27.0487 364.25 27.7823 364.297C28.5159 364.345 29.2487 364.194 29.9044 363.862L45.132 356.094C45.7472 355.781 46.2734 355.317 46.6616 354.747C47.0498 354.176 47.2875 353.516 47.3527 352.829C47.4179 352.142 47.3084 351.449 47.0345 350.815C46.7605 350.182 46.3309 349.628 45.7856 349.204L32.3225 338.683C31.742 338.231 31.051 337.944 30.3216 337.851C29.5923 337.758 28.8513 337.862 28.176 338.153C27.5007 338.444 26.9158 338.911 26.4825 339.505C26.0492 340.099 25.7832 340.798 25.7124 341.53Z" fill="#6C63FF"/>
<path opacity="0.1" d="M242.008 6.32982L277.216 61.515C277.612 62.1337 278.167 62.6348 278.824 62.9658C279.48 63.2969 280.213 63.4459 280.946 63.3973C281.679 63.3486 282.386 63.1042 282.993 62.6893C283.6 62.2745 284.084 61.7046 284.395 61.0389L310.07 5.83502C310.361 5.20852 310.488 4.51895 310.442 3.83003C310.395 3.14111 310.175 2.47509 309.803 1.8935C309.431 1.31191 308.918 0.833538 308.312 0.502585C307.706 0.171632 307.026 -0.00122124 306.336 6.49475e-06H245.453C244.715 -0.00127371 243.99 0.196819 243.355 0.573364C242.72 0.94991 242.199 1.49093 241.846 2.13928C241.493 2.78763 241.322 3.51924 241.351 4.25684C241.379 4.99444 241.606 5.71065 242.008 6.32982Z" fill="#6C63FF"/>
<path opacity="0.1" d="M845.688 507.562L828.136 512.995C827.433 513.212 826.801 513.614 826.306 514.159C825.812 514.704 825.473 515.372 825.326 516.093C825.179 516.814 825.229 517.562 825.47 518.257C825.712 518.952 826.136 519.569 826.698 520.044L839.769 531.098C840.296 531.542 840.927 531.847 841.603 531.984C842.279 532.121 842.978 532.085 843.637 531.88C844.295 531.676 844.892 531.309 845.371 530.813C845.85 530.317 846.197 529.709 846.379 529.044L850.861 512.547C851.049 511.839 851.045 511.093 850.849 510.387C850.652 509.681 850.27 509.041 849.742 508.532C849.214 508.023 848.56 507.665 847.848 507.495C847.135 507.324 846.389 507.347 845.688 507.562Z" fill="#6C63FF"/>
<path opacity="0.1" d="M205.213 290.966L187.661 296.4C186.958 296.616 186.326 297.018 185.831 297.563C185.337 298.108 184.998 298.777 184.851 299.498C184.704 300.219 184.754 300.966 184.995 301.661C185.237 302.356 185.661 302.974 186.223 303.448L199.294 314.502C199.821 314.947 200.452 315.252 201.128 315.388C201.804 315.525 202.503 315.489 203.162 315.285C203.82 315.08 204.416 314.713 204.896 314.217C205.375 313.722 205.722 313.113 205.904 312.448L210.386 295.952C210.574 295.243 210.57 294.498 210.374 293.792C210.177 293.086 209.795 292.445 209.267 291.936C208.74 291.428 208.085 291.07 207.373 290.899C206.66 290.728 205.914 290.752 205.213 290.966Z" fill="#6C63FF"/>
</g>
<defs>
<linearGradient id="paint0_linear" x1="795.515" y1="466.231" x2="592.617" y2="466.231" gradientUnits="userSpaceOnUse">
<stop stop-color="#808080" stop-opacity="0.25"/>
<stop offset="0.54" stop-color="#808080" stop-opacity="0.12"/>
<stop offset="1" stop-color="#808080" stop-opacity="0.1"/>
</linearGradient>
<clipPath id="clip0">
<rect width="1000" height="678" fill="white"/>
</clipPath>
</defs>
</svg>
