<svg width="280" height="47" viewBox="0 0 280 47" fill="none" xmlns="http://www.w3.org/2000/svg">
<path d="M15.9153 37H8.19531L0.595313 10.6H7.99531L12.3553 31.6L17.1153 10.6H23.3553L28.1953 31.56L32.5553 10.6H39.6753L32.0353 37H24.5553L21.4353 24.2L20.2353 17.76H20.1553L18.9953 24.2L15.9153 37ZM48.0088 16.6C51.3421 16.6 53.9288 17.52 55.7688 19.36C57.6354 21.1733 58.5687 23.72 58.5687 27C58.5687 30.28 57.6354 32.84 55.7688 34.68C53.9288 36.4933 51.3421 37.4 48.0088 37.4C44.6754 37.4 42.0754 36.4933 40.2088 34.68C38.3688 32.84 37.4488 30.28 37.4488 27C37.4488 23.72 38.3688 21.1733 40.2088 19.36C42.0754 17.52 44.6754 16.6 48.0088 16.6ZM48.0088 21.44C46.7288 21.44 45.7821 21.88 45.1688 22.76C44.5554 23.64 44.2488 25.0533 44.2488 27C44.2488 28.9467 44.5554 30.36 45.1688 31.24C45.7821 32.12 46.7288 32.56 48.0088 32.56C49.2888 32.56 50.2354 32.12 50.8488 31.24C51.4621 30.36 51.7688 28.9467 51.7688 27C51.7688 25.0533 51.4621 23.64 50.8488 22.76C50.2354 21.88 49.2888 21.44 48.0088 21.44ZM72.8313 16.6C73.7379 16.6 74.4579 16.7467 74.9913 17.04L74.2713 22.8C74.0046 22.64 73.6446 22.5067 73.1913 22.4C72.7379 22.2667 72.2579 22.2 71.7513 22.2C70.4713 22.2 69.4046 22.6133 68.5513 23.44C67.6979 24.24 67.2713 25.4 67.2713 26.92V37H60.4713V17H66.4713L66.7513 21.32C67.2313 19.8 67.9779 18.64 68.9913 17.84C70.0313 17.0133 71.3113 16.6 72.8313 16.6ZM95.7044 8.52V37H89.5844L89.3444 33.2C88.7577 34.5067 87.891 35.5333 86.7444 36.28C85.6244 37.0267 84.3177 37.4 82.8244 37.4C80.2377 37.4 78.211 36.4933 76.7444 34.68C75.3044 32.8667 74.5844 30.3333 74.5844 27.08C74.5844 23.7733 75.3177 21.2 76.7844 19.36C78.251 17.52 80.2777 16.6 82.8644 16.6C84.2777 16.6 85.491 16.9333 86.5044 17.6C87.5177 18.2667 88.3177 19.1867 88.9044 20.36V8.52H95.7044ZM85.1844 32.4C86.2777 32.4 87.1444 32.0133 87.7844 31.24C88.451 30.44 88.8244 29.2933 88.9044 27.8V26.2C88.8244 24.7333 88.451 23.6 87.7844 22.8C87.1444 22 86.2777 21.6 85.1844 21.6C83.9844 21.6 83.051 22.04 82.3844 22.92C81.7444 23.8 81.4244 25.16 81.4244 27C81.4244 28.84 81.7444 30.2 82.3844 31.08C83.051 31.96 83.9844 32.4 85.1844 32.4Z" fill="#9533C2"/>
<path d="M121.222 15.92H112.622V37H105.742V15.92H97.1016V10.6H121.222V15.92ZM132.456 16.6C133.363 16.6 134.083 16.7467 134.616 17.04L133.896 22.8C133.63 22.64 133.27 22.5067 132.816 22.4C132.363 22.2667 131.883 22.2 131.376 22.2C130.096 22.2 129.03 22.6133 128.176 23.44C127.323 24.24 126.896 25.4 126.896 26.92V37H120.096V17H126.096L126.376 21.32C126.856 19.8 127.603 18.64 128.616 17.84C129.656 17.0133 130.936 16.6 132.456 16.6ZM154.369 33.12C154.876 33.12 155.289 33.0667 155.609 32.96L155.089 36.76C154.316 37.1867 153.409 37.4 152.369 37.4C149.489 37.4 147.769 36.3733 147.209 34.32C146.009 36.3733 143.636 37.4 140.089 37.4C138.089 37.4 136.556 36.9733 135.489 36.12C134.423 35.2667 133.889 34.0267 133.889 32.4C133.889 30.6933 134.489 29.32 135.689 28.28C136.916 27.2133 138.916 26.4 141.689 25.84L146.209 24.96V24.24C146.209 23.3333 145.956 22.6133 145.449 22.08C144.943 21.5467 144.249 21.28 143.369 21.28C142.356 21.28 141.529 21.52 140.889 22C140.249 22.48 139.836 23.2667 139.649 24.36L134.129 22.76C134.476 20.8133 135.436 19.3067 137.009 18.24C138.583 17.1467 140.703 16.6 143.369 16.6C146.489 16.6 148.863 17.24 150.489 18.52C152.116 19.8 152.929 21.72 152.929 24.28V31.56C152.929 32.6 153.409 33.12 154.369 33.12ZM142.569 33C143.503 33 144.343 32.7467 145.089 32.24C145.836 31.7067 146.209 31.0133 146.209 30.16V28.44L142.969 29.2C142.116 29.4133 141.503 29.68 141.129 30C140.783 30.2933 140.609 30.72 140.609 31.28C140.609 31.84 140.783 32.2667 141.129 32.56C141.476 32.8533 141.956 33 142.569 33ZM165.695 16.6C168.709 16.6 170.975 17.1733 172.495 18.32C174.015 19.4667 174.962 20.96 175.335 22.8L169.015 24.88C168.749 22.5867 167.722 21.44 165.935 21.44C163.295 21.44 161.975 23.32 161.975 27.08C161.975 30.7333 163.295 32.56 165.935 32.56C167.829 32.56 168.935 31.48 169.255 29.32L175.375 31.28C175.082 33.0933 174.109 34.5733 172.455 35.72C170.829 36.84 168.669 37.4 165.975 37.4C162.509 37.4 159.842 36.4933 157.975 34.68C156.109 32.8667 155.175 30.3067 155.175 27C155.175 23.72 156.095 21.1733 157.935 19.36C159.802 17.52 162.389 16.6 165.695 16.6ZM187.027 28.8L183.787 32.4V37H176.987V8.52H183.787V25.4L191.427 17H198.947L191.587 24.84L199.387 37H191.867L187.027 28.8ZM218.256 26.72C218.256 27.6267 218.189 28.3733 218.056 28.96H204.416C204.629 30.2133 205.083 31.1333 205.776 31.72C206.496 32.3067 207.443 32.6 208.616 32.6C209.603 32.6 210.403 32.4133 211.016 32.04C211.656 31.6667 212.083 31.12 212.296 30.4L217.816 32.16C217.256 33.8667 216.163 35.1733 214.536 36.08C212.936 36.96 210.963 37.4 208.616 37.4C205.123 37.4 202.443 36.4933 200.576 34.68C198.736 32.8667 197.816 30.3067 197.816 27C197.816 23.6933 198.723 21.1333 200.536 19.32C202.349 17.5067 204.923 16.6 208.256 16.6C211.483 16.6 213.949 17.4933 215.656 19.28C217.389 21.04 218.256 23.52 218.256 26.72ZM208.216 21.36C206.056 21.36 204.776 22.6667 204.376 25.28H211.896C211.576 22.6667 210.349 21.36 208.216 21.36ZM232.417 16.6C233.324 16.6 234.044 16.7467 234.577 17.04L233.857 22.8C233.591 22.64 233.231 22.5067 232.777 22.4C232.324 22.2667 231.844 22.2 231.337 22.2C230.057 22.2 228.991 22.6133 228.137 23.44C227.284 24.24 226.857 25.4 226.857 26.92V37H220.057V17H226.057L226.337 21.32C226.817 19.8 227.564 18.64 228.577 17.84C229.617 17.0133 230.897 16.6 232.417 16.6Z" fill="#2639A1"/>
<path d="M259 27.6303C261.553 27.6303 263.63 25.5531 263.63 23C263.63 20.4469 261.553 18.3698 259 18.3698C256.447 18.3698 254.37 20.4469 254.37 23C254.37 25.5531 256.447 27.6303 259 27.6303ZM259 20.2003C260.544 20.2003 261.8 21.4561 261.8 23C261.8 24.5439 260.544 25.7998 259 25.7998C257.456 25.7998 256.2 24.5439 256.2 23C256.2 21.4561 257.456 20.2003 259 20.2003Z" fill="#9533C2"/>
<path d="M279.085 22.0847H275.458C274.998 13.7227 268.277 7.00185 259.915 6.54194V2.91525C259.915 2.40988 259.505 2 259 2C258.495 2 258.085 2.40988 258.085 2.91525V7.43126C258.085 7.93663 258.495 8.34651 259 8.34651C267.08 8.34651 273.653 14.92 273.653 23C273.653 31.08 267.08 37.6535 259 37.6535C250.92 37.6535 244.347 31.08 244.347 23C244.347 17.389 247.619 12.1974 252.683 9.774C253.139 9.55571 253.332 9.0093 253.114 8.55336C252.895 8.09756 252.349 7.90475 251.893 8.12288C249.127 9.44634 246.787 11.5119 245.125 14.0961C243.583 16.4947 242.7 19.2395 242.544 22.0847H238.915C238.41 22.0847 238 22.4946 238 23C238 23.5054 238.41 23.9153 238.915 23.9153H242.542C243.002 32.2773 249.723 38.9981 258.085 39.4581V43.0847C258.085 43.5901 258.495 44 259 44C259.505 44 259.915 43.5901 259.915 43.0847V39.4581C268.277 38.9981 274.998 32.2773 275.458 23.9153H279.085C279.59 23.9153 280 23.5054 280 23C280 22.4946 279.59 22.0847 279.085 22.0847Z" fill="#9533C2"/>
</svg>
