<svg width="245" height="532" viewBox="0 0 245 532" fill="none" xmlns="http://www.w3.org/2000/svg">
<rect width="245" height="530.507" transform="translate(0 0.941162)" fill="#2639A1"/>
<g filter="url(#filter0_d)">
<circle cx="123.48" cy="266.195" r="58.8" fill="#4958AD" fill-opacity="0.97"/>
</g>
<g clip-path="url(#clip0)">
<path d="M123.48 273.541C127.531 273.541 130.827 270.245 130.827 266.195C130.827 262.144 127.531 258.848 123.48 258.848C119.429 258.848 116.133 262.144 116.133 266.195C116.133 270.245 119.429 273.541 123.48 273.541ZM123.48 261.752C125.93 261.752 127.922 263.745 127.922 266.195C127.922 268.644 125.93 270.637 123.48 270.637C121.03 270.637 119.038 268.644 119.038 266.195C119.038 263.745 121.03 261.752 123.48 261.752Z" fill="white"/>
<path d="M155.348 264.743H149.593C148.864 251.475 138.2 240.811 124.932 240.081V234.327C124.932 233.525 124.282 232.875 123.48 232.875C122.678 232.875 122.028 233.525 122.028 234.327V241.492C122.028 242.294 122.678 242.945 123.48 242.945C136.3 242.945 146.73 253.374 146.73 266.195C146.73 279.015 136.3 289.445 123.48 289.445C110.66 289.445 100.23 279.015 100.23 266.195C100.23 257.292 105.422 249.055 113.457 245.209C114.181 244.863 114.487 243.996 114.14 243.273C113.794 242.55 112.926 242.244 112.203 242.59C107.815 244.69 104.102 247.967 101.465 252.067C99.0184 255.873 97.6178 260.228 97.3692 264.743H91.6122C90.8103 264.743 90.16 265.393 90.16 266.195C90.16 266.997 90.8103 267.647 91.6122 267.647H97.3665C98.0963 280.915 108.76 291.578 122.028 292.308V298.063C122.028 298.864 122.678 299.515 123.48 299.515C124.282 299.515 124.932 298.864 124.932 298.063V292.308C138.2 291.578 148.864 280.915 149.593 267.647H155.348C156.15 267.647 156.8 266.997 156.8 266.195C156.8 265.393 156.15 264.743 155.348 264.743Z" fill="white"/>
</g>
<path d="M79.621 177.743C79.2943 177.743 79.033 177.65 78.837 177.465C78.6519 177.269 78.5593 177.013 78.5593 176.698V167.878H75.5866C74.9333 167.878 74.6066 167.589 74.6066 167.012C74.6066 166.435 74.9333 166.146 75.5866 166.146H83.639C84.2923 166.146 84.619 166.435 84.619 167.012C84.619 167.589 84.2923 167.878 83.639 167.878H80.6663V176.698C80.6663 177.013 80.5683 177.269 80.3723 177.465C80.1872 177.65 79.9368 177.743 79.621 177.743ZM87.7085 169.478C88.8192 169.478 89.6413 169.756 90.1749 170.311C90.7193 170.856 90.9915 171.689 90.9915 172.81V176.796C90.9915 177.09 90.9044 177.324 90.7302 177.498C90.556 177.661 90.3164 177.743 90.0115 177.743C89.7284 177.743 89.4943 177.656 89.3092 177.482C89.135 177.307 89.0479 177.079 89.0479 176.796V176.436C88.8628 176.861 88.5688 177.193 88.1659 177.433C87.7739 177.672 87.3165 177.792 86.7939 177.792C86.2603 177.792 85.7758 177.683 85.3402 177.465C84.9046 177.248 84.5616 176.948 84.3112 176.567C84.0608 176.186 83.9355 175.761 83.9355 175.293C83.9355 174.705 84.0825 174.242 84.3765 173.905C84.6814 173.567 85.1714 173.322 85.8465 173.17C86.5216 173.017 87.4526 172.941 88.6395 172.941H89.0479V172.565C89.0479 172.032 88.9335 171.645 88.7049 171.406C88.4762 171.155 88.106 171.03 87.5942 171.03C87.2784 171.03 86.9572 171.079 86.6305 171.177C86.3039 171.264 85.9173 171.395 85.4709 171.569C85.1878 171.711 84.9809 171.781 84.8502 171.781C84.6542 171.781 84.4909 171.711 84.3602 171.569C84.2404 171.427 84.1805 171.242 84.1805 171.014C84.1805 170.829 84.2241 170.671 84.3112 170.54C84.4092 170.398 84.5671 170.268 84.7849 170.148C85.166 169.941 85.6179 169.778 86.1405 169.658C86.6741 169.538 87.1968 169.478 87.7085 169.478ZM87.2022 176.322C87.7466 176.322 88.1876 176.142 88.5252 175.783C88.8736 175.413 89.0479 174.939 89.0479 174.362V174.019H88.7539C88.0243 174.019 87.4581 174.052 87.0552 174.117C86.6523 174.182 86.3638 174.297 86.1895 174.46C86.0153 174.623 85.9282 174.847 85.9282 175.13C85.9282 175.478 86.048 175.767 86.2875 175.995C86.538 176.213 86.8429 176.322 87.2022 176.322ZM97.4928 169.478C98.1788 169.478 98.7886 169.653 99.3222 170.001C99.8666 170.349 100.286 170.845 100.58 171.487C100.885 172.119 101.037 172.848 101.037 173.676C101.037 174.504 100.885 175.228 100.58 175.848C100.286 176.469 99.8721 176.948 99.3385 177.286C98.805 177.623 98.1897 177.792 97.4928 177.792C96.9266 177.792 96.4203 177.672 95.9738 177.433C95.5274 177.193 95.1844 176.861 94.9448 176.436V179.768C94.9448 180.051 94.8523 180.275 94.6672 180.438C94.4821 180.601 94.2371 180.683 93.9322 180.683C93.6273 180.683 93.3768 180.596 93.1808 180.422C92.9957 180.247 92.9032 180.019 92.9032 179.736V170.475C92.9032 170.181 92.9903 169.947 93.1645 169.772C93.3496 169.598 93.5946 169.511 93.8995 169.511C94.2044 169.511 94.4494 169.598 94.6345 169.772C94.8196 169.947 94.9122 170.181 94.9122 170.475V170.883C95.1517 170.437 95.4947 170.094 95.9412 169.854C96.3985 169.604 96.9157 169.478 97.4928 169.478ZM96.9538 176.208C97.5963 176.208 98.0972 175.99 98.4565 175.554C98.8158 175.108 98.9955 174.482 98.9955 173.676C98.9955 172.848 98.8158 172.206 98.4565 171.749C98.0972 171.291 97.5963 171.063 96.9538 171.063C96.3005 171.063 95.7942 171.286 95.4348 171.732C95.0864 172.179 94.9122 172.816 94.9122 173.643C94.9122 174.46 95.0864 175.092 95.4348 175.538C95.7942 175.984 96.3005 176.208 96.9538 176.208ZM110.969 176.24C111.513 176.273 111.786 176.518 111.786 176.975C111.786 177.237 111.677 177.438 111.459 177.58C111.252 177.71 110.953 177.765 110.561 177.743L110.12 177.71C108.29 177.58 107.376 176.6 107.376 174.77V171.21H106.559C106.265 171.21 106.036 171.144 105.873 171.014C105.721 170.883 105.644 170.692 105.644 170.442C105.644 170.192 105.721 170.001 105.873 169.87C106.036 169.74 106.265 169.674 106.559 169.674H107.376V168.172C107.376 167.878 107.468 167.644 107.653 167.469C107.838 167.295 108.089 167.208 108.405 167.208C108.71 167.208 108.955 167.295 109.14 167.469C109.325 167.644 109.417 167.878 109.417 168.172V169.674H110.806C111.1 169.674 111.323 169.74 111.475 169.87C111.639 170.001 111.72 170.192 111.72 170.442C111.72 170.692 111.639 170.883 111.475 171.014C111.323 171.144 111.1 171.21 110.806 171.21H109.417V174.917C109.417 175.723 109.788 176.153 110.528 176.208L110.969 176.24ZM116.329 177.792C115.512 177.792 114.793 177.623 114.173 177.286C113.563 176.948 113.089 176.464 112.752 175.832C112.414 175.2 112.245 174.465 112.245 173.627C112.245 172.789 112.414 172.059 112.752 171.438C113.089 170.807 113.563 170.322 114.173 169.985C114.793 169.647 115.512 169.478 116.329 169.478C117.145 169.478 117.859 169.647 118.468 169.985C119.089 170.322 119.563 170.807 119.889 171.438C120.227 172.059 120.396 172.789 120.396 173.627C120.396 174.465 120.227 175.2 119.889 175.832C119.563 176.464 119.089 176.948 118.468 177.286C117.859 177.623 117.145 177.792 116.329 177.792ZM116.312 176.208C116.977 176.208 117.483 175.99 117.831 175.554C118.18 175.119 118.354 174.476 118.354 173.627C118.354 172.789 118.18 172.152 117.831 171.716C117.483 171.27 116.982 171.046 116.329 171.046C115.675 171.046 115.169 171.27 114.81 171.716C114.461 172.152 114.287 172.789 114.287 173.627C114.287 174.476 114.461 175.119 114.81 175.554C115.158 175.99 115.659 176.208 116.312 176.208ZM130.648 169.511C130.931 169.489 131.154 169.549 131.317 169.691C131.481 169.832 131.562 170.045 131.562 170.328C131.562 170.622 131.492 170.839 131.35 170.981C131.209 171.123 130.953 171.215 130.582 171.259L130.092 171.308C129.45 171.373 128.976 171.591 128.671 171.961C128.377 172.331 128.23 172.794 128.23 173.349V176.779C128.23 177.095 128.132 177.34 127.936 177.514C127.74 177.678 127.495 177.759 127.201 177.759C126.907 177.759 126.662 177.678 126.466 177.514C126.281 177.34 126.189 177.095 126.189 176.779V170.458C126.189 170.153 126.281 169.919 126.466 169.756C126.662 169.593 126.902 169.511 127.185 169.511C127.468 169.511 127.697 169.593 127.871 169.756C128.045 169.908 128.132 170.132 128.132 170.426V171.079C128.339 170.6 128.644 170.23 129.047 169.968C129.461 169.707 129.918 169.56 130.419 169.527L130.648 169.511ZM138.439 175.473C138.625 175.473 138.772 175.543 138.88 175.685C139 175.827 139.06 176.017 139.06 176.257C139.06 176.594 138.859 176.877 138.456 177.106C138.086 177.313 137.666 177.482 137.198 177.612C136.73 177.732 136.283 177.792 135.859 177.792C134.574 177.792 133.556 177.422 132.804 176.681C132.053 175.941 131.677 174.928 131.677 173.643C131.677 172.827 131.841 172.103 132.167 171.471C132.494 170.839 132.951 170.349 133.539 170.001C134.138 169.653 134.813 169.478 135.565 169.478C136.283 169.478 136.91 169.636 137.443 169.952C137.977 170.268 138.39 170.714 138.684 171.291C138.978 171.868 139.125 172.549 139.125 173.333C139.125 173.801 138.919 174.035 138.505 174.035H133.686C133.752 174.787 133.964 175.342 134.323 175.701C134.683 176.05 135.205 176.224 135.891 176.224C136.24 176.224 136.545 176.18 136.806 176.093C137.078 176.006 137.383 175.886 137.721 175.734C138.047 175.56 138.287 175.473 138.439 175.473ZM135.614 170.916C135.058 170.916 134.612 171.09 134.274 171.438C133.948 171.787 133.752 172.288 133.686 172.941H137.378C137.356 172.277 137.193 171.776 136.888 171.438C136.583 171.09 136.158 170.916 135.614 170.916ZM144.177 177.792C143.382 177.792 142.679 177.623 142.07 177.286C141.471 176.948 141.008 176.469 140.681 175.848C140.355 175.228 140.191 174.504 140.191 173.676C140.191 172.848 140.36 172.119 140.698 171.487C141.046 170.845 141.531 170.349 142.151 170.001C142.772 169.653 143.485 169.478 144.291 169.478C144.716 169.478 145.14 169.538 145.565 169.658C146 169.778 146.382 169.941 146.708 170.148C147.057 170.377 147.231 170.665 147.231 171.014C147.231 171.253 147.171 171.449 147.051 171.602C146.942 171.743 146.795 171.814 146.61 171.814C146.49 171.814 146.365 171.787 146.235 171.732C146.104 171.678 145.973 171.613 145.843 171.536C145.603 171.395 145.374 171.286 145.157 171.21C144.939 171.123 144.688 171.079 144.405 171.079C143.73 171.079 143.207 171.302 142.837 171.749C142.478 172.184 142.298 172.816 142.298 173.643C142.298 174.46 142.478 175.092 142.837 175.538C143.207 175.974 143.73 176.191 144.405 176.191C144.677 176.191 144.917 176.153 145.124 176.077C145.342 175.99 145.581 175.876 145.843 175.734C146.006 175.636 146.147 175.565 146.267 175.522C146.387 175.467 146.507 175.44 146.627 175.44C146.801 175.44 146.948 175.516 147.068 175.669C147.187 175.821 147.247 176.012 147.247 176.24C147.247 176.425 147.204 176.589 147.117 176.73C147.04 176.861 146.91 176.981 146.725 177.09C146.387 177.307 145.995 177.482 145.549 177.612C145.102 177.732 144.645 177.792 144.177 177.792ZM152.087 177.792C151.27 177.792 150.551 177.623 149.931 177.286C149.321 176.948 148.847 176.464 148.51 175.832C148.172 175.2 148.003 174.465 148.003 173.627C148.003 172.789 148.172 172.059 148.51 171.438C148.847 170.807 149.321 170.322 149.931 169.985C150.551 169.647 151.27 169.478 152.087 169.478C152.903 169.478 153.616 169.647 154.226 169.985C154.847 170.322 155.321 170.807 155.647 171.438C155.985 172.059 156.154 172.789 156.154 173.627C156.154 174.465 155.985 175.2 155.647 175.832C155.321 176.464 154.847 176.948 154.226 177.286C153.616 177.623 152.903 177.792 152.087 177.792ZM152.07 176.208C152.734 176.208 153.241 175.99 153.589 175.554C153.938 175.119 154.112 174.476 154.112 173.627C154.112 172.789 153.938 172.152 153.589 171.716C153.241 171.27 152.74 171.046 152.087 171.046C151.433 171.046 150.927 171.27 150.568 171.716C150.219 172.152 150.045 172.789 150.045 173.627C150.045 174.476 150.219 175.119 150.568 175.554C150.916 175.99 151.417 176.208 152.07 176.208ZM162.135 169.511C162.418 169.489 162.641 169.549 162.804 169.691C162.968 169.832 163.049 170.045 163.049 170.328C163.049 170.622 162.979 170.839 162.837 170.981C162.695 171.123 162.44 171.215 162.069 171.259L161.579 171.308C160.937 171.373 160.463 171.591 160.158 171.961C159.864 172.331 159.717 172.794 159.717 173.349V176.779C159.717 177.095 159.619 177.34 159.423 177.514C159.227 177.678 158.982 177.759 158.688 177.759C158.394 177.759 158.149 177.678 157.953 177.514C157.768 177.34 157.676 177.095 157.676 176.779V170.458C157.676 170.153 157.768 169.919 157.953 169.756C158.149 169.593 158.389 169.511 158.672 169.511C158.955 169.511 159.184 169.593 159.358 169.756C159.532 169.908 159.619 170.132 159.619 170.426V171.079C159.826 170.6 160.131 170.23 160.534 169.968C160.948 169.707 161.405 169.56 161.906 169.527L162.135 169.511ZM170.269 166.065C170.574 166.065 170.825 166.152 171.021 166.326C171.217 166.5 171.315 166.729 171.315 167.012V176.779C171.315 177.073 171.222 177.307 171.037 177.482C170.852 177.656 170.607 177.743 170.302 177.743C169.997 177.743 169.752 177.656 169.567 177.482C169.382 177.307 169.289 177.073 169.289 176.779V176.371C169.05 176.817 168.701 177.166 168.244 177.416C167.798 177.667 167.286 177.792 166.709 177.792C166.023 177.792 165.408 177.618 164.863 177.269C164.33 176.921 163.91 176.431 163.605 175.799C163.311 175.157 163.164 174.422 163.164 173.594C163.164 172.767 163.311 172.043 163.605 171.422C163.91 170.801 164.33 170.322 164.863 169.985C165.397 169.647 166.012 169.478 166.709 169.478C167.286 169.478 167.798 169.598 168.244 169.838C168.691 170.077 169.034 170.415 169.273 170.85V166.979C169.273 166.707 169.36 166.489 169.534 166.326C169.72 166.152 169.965 166.065 170.269 166.065ZM167.248 176.208C167.901 176.208 168.402 175.984 168.75 175.538C169.11 175.092 169.289 174.455 169.289 173.627C169.289 172.799 169.11 172.168 168.75 171.732C168.402 171.286 167.907 171.063 167.264 171.063C166.611 171.063 166.104 171.28 165.745 171.716C165.386 172.152 165.206 172.778 165.206 173.594C165.206 174.422 165.386 175.064 165.745 175.522C166.104 175.979 166.605 176.208 167.248 176.208Z" fill="white"/>
<path opacity="0.1" d="M36.9985 273.522L36.5891 277.785C36.5729 277.955 36.6028 278.127 36.6757 278.282C36.7485 278.438 36.8617 278.57 37.0034 278.667C37.1451 278.763 37.3101 278.82 37.4812 278.831C37.6523 278.842 37.8233 278.807 37.9762 278.73L41.5279 276.918C41.6714 276.845 41.7941 276.737 41.8846 276.604C41.9752 276.471 42.0306 276.317 42.0459 276.157C42.0611 275.996 42.0355 275.835 41.9716 275.687C41.9077 275.539 41.8075 275.41 41.6803 275.311L38.5402 272.858C38.4048 272.753 38.2436 272.686 38.0735 272.664C37.9034 272.642 37.7306 272.667 37.5731 272.734C37.4156 272.802 37.2792 272.911 37.1781 273.05C37.077 273.188 37.015 273.351 36.9985 273.522Z" fill="#6C63FF"/>
<path opacity="0.1" d="M12.827 227.585L12.4176 231.848C12.4014 232.018 12.4313 232.19 12.5042 232.345C12.5771 232.5 12.6903 232.633 12.832 232.73C12.9737 232.826 13.1387 232.883 13.3098 232.894C13.4809 232.905 13.6518 232.87 13.8048 232.792L17.3564 230.981C17.4999 230.908 17.6227 230.8 17.7132 230.667C17.8037 230.534 17.8592 230.38 17.8744 230.22C17.8896 230.059 17.8641 229.898 17.8002 229.75C17.7363 229.602 17.6361 229.473 17.5089 229.374L14.3688 226.921C14.2334 226.816 14.0722 226.749 13.9021 226.727C13.732 226.705 13.5591 226.729 13.4016 226.797C13.2441 226.865 13.1077 226.974 13.0066 227.112C12.9056 227.251 12.8435 227.414 12.827 227.585Z" fill="#6C63FF"/>
<path opacity="0.1" d="M63.2758 149.417L71.4875 162.286C71.58 162.431 71.7096 162.548 71.8626 162.625C72.0156 162.702 72.1866 162.737 72.3576 162.725C72.5287 162.714 72.6935 162.657 72.835 162.56C72.9765 162.464 73.0895 162.331 73.1621 162.175L79.1506 149.302C79.2183 149.156 79.2481 148.995 79.2372 148.835C79.2263 148.674 79.1751 148.519 79.0883 148.383C79.0014 148.247 78.8818 148.136 78.7405 148.059C78.5991 147.981 78.4406 147.941 78.2795 147.941H64.0793C63.9071 147.941 63.7381 147.987 63.59 148.075C63.4419 148.163 63.3203 148.289 63.238 148.44C63.1557 148.591 63.1157 148.762 63.1224 148.934C63.129 149.106 63.182 149.273 63.2758 149.417Z" fill="#6C63FF"/>
<path opacity="0.1" d="M54.6938 215.793L50.5999 217.061C50.4359 217.111 50.2885 217.205 50.1732 217.332C50.0578 217.459 49.9789 217.615 49.9446 217.783C49.9103 217.951 49.9219 218.125 49.9782 218.287C50.0345 218.45 50.1334 218.594 50.2646 218.704L53.3132 221.282C53.4362 221.386 53.5833 221.457 53.7409 221.489C53.8985 221.52 54.0617 221.512 54.2153 221.464C54.3689 221.417 54.508 221.331 54.6198 221.216C54.7316 221.1 54.8125 220.958 54.855 220.803L55.9002 216.956C55.9443 216.791 55.9433 216.617 55.8974 216.452C55.8515 216.288 55.7624 216.138 55.6393 216.02C55.5163 215.901 55.3637 215.818 55.1974 215.778C55.0312 215.738 54.8573 215.743 54.6938 215.793Z" fill="#6C63FF"/>
<path opacity="0.1" d="M233.694 229.727L229.6 230.994C229.436 231.045 229.288 231.138 229.173 231.265C229.058 231.392 228.979 231.548 228.945 231.716C228.91 231.885 228.922 232.059 228.978 232.221C229.034 232.383 229.133 232.527 229.265 232.638L232.313 235.215C232.436 235.319 232.583 235.39 232.741 235.422C232.898 235.454 233.062 235.446 233.215 235.398C233.369 235.35 233.508 235.265 233.62 235.149C233.731 235.033 233.812 234.892 233.855 234.736L234.9 230.89C234.944 230.724 234.943 230.55 234.897 230.386C234.851 230.221 234.762 230.072 234.639 229.953C234.516 229.835 234.364 229.751 234.197 229.711C234.031 229.671 233.857 229.677 233.694 229.727Z" fill="#6C63FF"/>
<path opacity="0.1" d="M171.012 110.09L166.918 111.357C166.754 111.408 166.606 111.501 166.491 111.629C166.376 111.756 166.297 111.911 166.262 112.08C166.228 112.248 166.24 112.422 166.296 112.584C166.352 112.746 166.451 112.89 166.582 113.001L169.631 115.579C169.754 115.682 169.901 115.753 170.059 115.785C170.216 115.817 170.38 115.809 170.533 115.761C170.687 115.713 170.826 115.628 170.938 115.512C171.049 115.397 171.13 115.255 171.173 115.1L172.218 111.253C172.262 111.088 172.261 110.914 172.215 110.749C172.169 110.584 172.08 110.435 171.957 110.316C171.834 110.198 171.682 110.114 171.515 110.074C171.349 110.035 171.175 110.04 171.012 110.09Z" fill="#6C63FF"/>
<path opacity="0.1" d="M199.105 417.157L195.011 418.424C194.847 418.474 194.7 418.568 194.584 418.695C194.469 418.822 194.39 418.978 194.356 419.146C194.322 419.314 194.333 419.489 194.389 419.651C194.446 419.813 194.545 419.957 194.676 420.068L197.724 422.645C197.847 422.749 197.995 422.82 198.152 422.852C198.31 422.884 198.473 422.875 198.627 422.828C198.78 422.78 198.919 422.694 199.031 422.579C199.143 422.463 199.224 422.321 199.266 422.166L200.311 418.319C200.356 418.154 200.355 417.98 200.309 417.816C200.263 417.651 200.174 417.502 200.051 417.383C199.928 417.264 199.775 417.181 199.609 417.141C199.442 417.101 199.269 417.107 199.105 417.157Z" fill="#6C63FF"/>
<path opacity="0.1" d="M125.278 452.437L121.184 453.704C121.02 453.754 120.873 453.848 120.758 453.975C120.642 454.102 120.563 454.258 120.529 454.426C120.495 454.594 120.506 454.769 120.563 454.931C120.619 455.093 120.718 455.237 120.849 455.347L123.898 457.925C124.021 458.029 124.168 458.1 124.325 458.132C124.483 458.164 124.646 458.155 124.8 458.108C124.953 458.06 125.092 457.974 125.204 457.859C125.316 457.743 125.397 457.601 125.44 457.446L126.485 453.599C126.529 453.434 126.528 453.26 126.482 453.096C126.436 452.931 126.347 452.781 126.224 452.663C126.101 452.544 125.948 452.461 125.782 452.421C125.616 452.381 125.442 452.387 125.278 452.437Z" fill="#6C63FF"/>
<path opacity="0.1" d="M51.4517 101.597L47.3578 102.864C47.1937 102.914 47.0463 103.008 46.931 103.135C46.8157 103.262 46.7367 103.418 46.7024 103.586C46.6681 103.754 46.6797 103.929 46.736 104.091C46.7923 104.253 46.8913 104.397 47.0224 104.508L50.0711 107.085C50.194 107.189 50.3411 107.26 50.4987 107.292C50.6564 107.324 50.8195 107.316 50.9731 107.268C51.1267 107.22 51.2658 107.135 51.3776 107.019C51.4894 106.903 51.5703 106.761 51.6128 106.606L52.6581 102.759C52.7021 102.594 52.7011 102.42 52.6552 102.256C52.6094 102.091 52.5203 101.942 52.3972 101.823C52.2741 101.704 52.1215 101.621 51.9552 101.581C51.789 101.541 51.6151 101.547 51.4517 101.597Z" fill="#6C63FF"/>
<path opacity="0.1" d="M23.5768 324.554L23.1674 328.816C23.1512 328.987 23.1811 329.159 23.254 329.314C23.3269 329.469 23.4401 329.602 23.5818 329.699C23.7235 329.795 23.8885 329.852 24.0596 329.863C24.2307 329.874 24.4016 329.839 24.5546 329.761L28.1063 327.95C28.2498 327.877 28.3725 327.769 28.463 327.636C28.5536 327.503 28.609 327.349 28.6242 327.188C28.6394 327.028 28.6139 326.867 28.55 326.719C28.4861 326.571 28.3859 326.442 28.2587 326.343L25.1186 323.89C24.9832 323.784 24.822 323.717 24.6519 323.696C24.4818 323.674 24.3089 323.698 24.1514 323.766C23.9939 323.834 23.8575 323.943 23.7564 324.081C23.6554 324.22 23.5933 324.383 23.5768 324.554Z" fill="#6C63FF"/>
<path opacity="0.1" d="M63.4302 384.66L63.0208 388.923C63.0046 389.094 63.0345 389.266 63.1074 389.421C63.1802 389.576 63.2934 389.709 63.4351 389.805C63.5768 389.902 63.7418 389.959 63.9129 389.97C64.084 389.981 64.255 389.946 64.4079 389.868L67.9596 388.057C68.1031 387.984 68.2258 387.876 68.3163 387.742C68.4069 387.609 68.4623 387.455 68.4776 387.295C68.4928 387.135 68.4672 386.973 68.4033 386.826C68.3394 386.678 68.2392 386.549 68.112 386.45L64.9719 383.996C64.8365 383.891 64.6753 383.824 64.5052 383.802C64.3351 383.781 64.1623 383.805 64.0048 383.873C63.8473 383.941 63.7109 384.05 63.6098 384.188C63.5087 384.327 63.4467 384.49 63.4302 384.66Z" fill="#6C63FF"/>
<path opacity="0.1" d="M45.1368 442.154L44.7275 446.417C44.7113 446.587 44.7412 446.759 44.8141 446.914C44.8869 447.069 45.0001 447.202 45.1418 447.299C45.2835 447.395 45.4485 447.452 45.6196 447.463C45.7907 447.474 45.9617 447.439 46.1146 447.361L49.6663 445.55C49.8098 445.477 49.9325 445.369 50.023 445.236C50.1136 445.103 50.169 444.949 50.1842 444.789C50.1995 444.628 50.1739 444.467 50.11 444.319C50.0461 444.171 49.9459 444.042 49.8187 443.943L46.6786 441.49C46.5432 441.384 46.382 441.318 46.2119 441.296C46.0418 441.274 45.869 441.298 45.7115 441.366C45.554 441.434 45.4175 441.543 45.3165 441.681C45.2154 441.82 45.1534 441.983 45.1368 442.154Z" fill="#6C63FF"/>
<path opacity="0.1" d="M103.677 90.6174L111.889 103.486C111.982 103.631 112.111 103.748 112.264 103.825C112.417 103.902 112.588 103.937 112.759 103.925C112.93 103.914 113.095 103.857 113.237 103.76C113.378 103.664 113.491 103.531 113.564 103.375L119.552 90.5021C119.62 90.356 119.65 90.1952 119.639 90.0345C119.628 89.8739 119.577 89.7185 119.49 89.5829C119.403 89.4473 119.283 89.3357 119.142 89.2586C119.001 89.1814 118.842 89.1411 118.681 89.1414H104.481C104.309 89.1411 104.14 89.1873 103.991 89.2751C103.843 89.3629 103.722 89.489 103.639 89.6402C103.557 89.7914 103.517 89.962 103.524 90.134C103.53 90.306 103.583 90.4731 103.677 90.6174Z" fill="#6C63FF"/>
<path opacity="0.1" d="M95.1839 406.178L103.396 419.046C103.488 419.191 103.618 419.308 103.771 419.385C103.924 419.462 104.095 419.497 104.266 419.485C104.437 419.474 104.602 419.417 104.743 419.32C104.885 419.224 104.998 419.091 105.07 418.935L111.059 406.062C111.126 405.916 111.156 405.755 111.145 405.595C111.134 405.434 111.083 405.279 110.996 405.143C110.91 405.007 110.79 404.896 110.649 404.819C110.507 404.741 110.349 404.701 110.188 404.701H95.9874C95.8153 404.701 95.6462 404.747 95.4981 404.835C95.35 404.923 95.2284 405.049 95.1461 405.2C95.0638 405.351 95.0239 405.522 95.0305 405.694C95.0372 405.866 95.0902 406.033 95.1839 406.178Z" fill="#6C63FF"/>
<path opacity="0.1" d="M63.1706 56.6441L71.3824 69.513C71.4748 69.6573 71.6044 69.7741 71.7574 69.8513C71.9104 69.9285 72.0814 69.9633 72.2524 69.9519C72.4235 69.9406 72.5884 69.8836 72.7299 69.7869C72.8714 69.6901 72.9843 69.5572 73.0569 69.402L79.0454 56.5287C79.1131 56.3826 79.1429 56.2218 79.132 56.0611C79.1211 55.9005 79.0699 55.7451 78.9831 55.6095C78.8962 55.4739 78.7766 55.3623 78.6353 55.2852C78.4939 55.208 78.3354 55.1677 78.1743 55.168H63.9741C63.8019 55.1677 63.6329 55.2139 63.4848 55.3017C63.3367 55.3895 63.2151 55.5156 63.1328 55.6668C63.0505 55.818 63.0105 55.9886 63.0172 56.1606C63.0238 56.3327 63.0768 56.4997 63.1706 56.6441Z" fill="#6C63FF"/>
<path opacity="0.1" d="M189.917 71.6708L198.129 84.5397C198.222 84.684 198.351 84.8009 198.504 84.8781C198.657 84.9553 198.828 84.99 198.999 84.9787C199.17 84.9673 199.335 84.9103 199.477 84.8136C199.618 84.7169 199.731 84.5839 199.804 84.4287L205.792 71.5554C205.86 71.4093 205.89 71.2485 205.879 71.0878C205.868 70.9272 205.817 70.7719 205.73 70.6363C205.643 70.5006 205.523 70.3891 205.382 70.3119C205.241 70.2347 205.082 70.1944 204.921 70.1947H190.721C190.549 70.1944 190.38 70.2406 190.231 70.3284C190.083 70.4162 189.962 70.5424 189.879 70.6936C189.797 70.8448 189.757 71.0154 189.764 71.1874C189.771 71.3594 189.824 71.5264 189.917 71.6708Z" fill="#6C63FF"/>
<path opacity="0.1" d="M148.757 478.698L156.969 491.566C157.062 491.711 157.191 491.828 157.344 491.905C157.497 491.982 157.668 492.017 157.839 492.005C158.01 491.994 158.175 491.937 158.317 491.84C158.458 491.744 158.571 491.611 158.644 491.455L164.632 478.582C164.7 478.436 164.73 478.275 164.719 478.115C164.708 477.954 164.657 477.799 164.57 477.663C164.483 477.527 164.363 477.416 164.222 477.339C164.081 477.261 163.922 477.221 163.761 477.221H149.561C149.389 477.221 149.22 477.267 149.071 477.355C148.923 477.443 148.802 477.569 148.719 477.72C148.637 477.871 148.597 478.042 148.604 478.214C148.611 478.386 148.664 478.553 148.757 478.698Z" fill="#6C63FF"/>
<circle cx="36.5866" cy="44.0614" r="9.8" fill="white"/>
<circle cx="214.947" cy="44.0614" r="9.8" fill="white"/>
<g clip-path="url(#clip1)">
<path d="M215.883 48.6347C215.83 48.6347 215.778 48.6134 215.739 48.5751C215.691 48.5269 215.669 48.4575 215.683 48.3909L215.972 46.9474C215.98 46.9074 215.999 46.8711 216.028 46.8429L219.204 43.6669C219.442 43.4284 219.831 43.4284 220.07 43.6669L220.647 44.2443C220.886 44.4831 220.886 44.8715 220.647 45.1103L217.471 48.2864C217.443 48.3149 217.406 48.3341 217.366 48.3423L215.923 48.631C215.91 48.6334 215.896 48.6347 215.883 48.6347ZM216.36 47.0875L216.144 48.17L217.226 47.9536L220.359 44.8212C220.438 44.7416 220.438 44.6122 220.359 44.5326L219.781 43.9552C219.702 43.8755 219.572 43.8755 219.493 43.9552L216.36 47.0875ZM217.327 48.1418H217.331H217.327Z" fill="#2639A1"/>
<path d="M214.906 47.4097H212.048C211.484 47.4097 211.027 46.9519 211.027 46.3889V41.0805C211.027 40.5174 211.484 40.0597 212.048 40.0597H212.864C212.977 40.0597 213.068 40.1512 213.068 40.2639C213.068 40.3766 212.977 40.468 212.864 40.468H212.048C211.71 40.468 211.435 40.7428 211.435 41.0805V46.3889C211.435 46.7265 211.71 47.0014 212.048 47.0014H214.906C215.019 47.0014 215.11 47.0928 215.11 47.2055C215.11 47.3182 215.019 47.4097 214.906 47.4097Z" fill="#2639A1"/>
<path d="M217.764 43.7347C217.651 43.7347 217.56 43.6432 217.56 43.5305V41.0805C217.56 40.7428 217.285 40.468 216.948 40.468H216.131C216.018 40.468 215.927 40.3766 215.927 40.2639C215.927 40.1512 216.018 40.0597 216.131 40.0597H216.948C217.511 40.0597 217.968 40.5174 217.968 41.0805V43.5305C217.968 43.6432 217.877 43.7347 217.764 43.7347Z" fill="#2639A1"/>
<path d="M215.723 41.2847H213.273C212.935 41.2847 212.66 41.0099 212.66 40.6722V39.8556C212.66 39.7429 212.752 39.6514 212.864 39.6514H213.497C213.592 39.1859 214.005 38.8347 214.498 38.8347C214.99 38.8347 215.403 39.1859 215.498 39.6514H216.131C216.244 39.6514 216.335 39.7429 216.335 39.8556V40.6722C216.335 41.0099 216.06 41.2847 215.723 41.2847ZM213.068 40.0597V40.6722C213.068 40.7845 213.16 40.8764 213.273 40.8764H215.723C215.835 40.8764 215.927 40.7845 215.927 40.6722V40.0597H215.314C215.202 40.0597 215.11 39.9683 215.11 39.8556C215.11 39.5179 214.835 39.2431 214.498 39.2431C214.16 39.2431 213.885 39.5179 213.885 39.8556C213.885 39.9683 213.794 40.0597 213.681 40.0597H213.068Z" fill="#2639A1"/>
<path d="M216.539 42.5097H212.456C212.343 42.5097 212.252 42.4182 212.252 42.3055C212.252 42.1928 212.343 42.1013 212.456 42.1013H216.539C216.652 42.1013 216.743 42.1928 216.743 42.3055C216.743 42.4182 216.652 42.5097 216.539 42.5097Z" fill="#2639A1"/>
<path d="M216.539 43.7346H212.456C212.343 43.7346 212.252 43.6432 212.252 43.5305C212.252 43.4178 212.343 43.3263 212.456 43.3263H216.539C216.652 43.3263 216.743 43.4178 216.743 43.5305C216.743 43.6432 216.652 43.7346 216.539 43.7346Z" fill="#2639A1"/>
<path d="M216.539 44.9597H212.456C212.343 44.9597 212.252 44.8683 212.252 44.7556C212.252 44.6429 212.343 44.5514 212.456 44.5514H216.539C216.652 44.5514 216.743 44.6429 216.743 44.7556C216.743 44.8683 216.652 44.9597 216.539 44.9597Z" fill="#2639A1"/>
</g>
<g clip-path="url(#clip2)">
<path d="M38.8886 43.0688V41.8471C38.8886 41.6409 38.7209 41.4731 38.5147 41.4731C38.3085 41.4731 38.1407 41.6409 38.1407 41.8471V42.5303H37.8202V41.0484C37.8202 40.188 37.1202 39.488 36.2599 39.488C36.0049 39.488 35.7518 39.551 35.5281 39.67C35.4673 39.7023 35.4442 39.7778 35.4765 39.8386C35.5089 39.8993 35.5843 39.9225 35.6451 39.8901C35.833 39.7902 36.0455 39.7374 36.2599 39.7374C36.938 39.7374 37.4975 40.255 37.5642 40.9158H37.198C37.1291 40.9158 37.0733 40.9716 37.0733 41.0405C37.0733 41.1094 37.1291 41.1652 37.198 41.1652H37.5709V41.5616H37.198C37.1291 41.5616 37.0733 41.6174 37.0733 41.6863C37.0733 41.7552 37.1291 41.811 37.198 41.811H37.5709V42.2074H37.198C37.1291 42.2074 37.0733 42.2633 37.0733 42.3321C37.0733 42.401 37.1291 42.4568 37.198 42.4568H37.5709V42.8532H37.198C37.1291 42.8532 37.0733 42.909 37.0733 42.9779C37.0733 43.0468 37.1291 43.1026 37.198 43.1026H37.5642C37.4975 43.7634 36.938 44.281 36.2599 44.281C35.5817 44.281 35.0222 43.7634 34.9555 43.1026H35.3217C35.3906 43.1026 35.4464 43.0468 35.4464 42.9779C35.4464 42.909 35.3906 42.8532 35.3217 42.8532H34.9488V42.4568H35.3217C35.3906 42.4568 35.4464 42.401 35.4464 42.3321C35.4464 42.2633 35.3906 42.2074 35.3217 42.2074H34.9488V41.8109H35.3217C35.3906 41.8109 35.4464 41.7551 35.4464 41.6863C35.4464 41.6174 35.3906 41.5616 35.3217 41.5616H34.9488V41.1651H35.3217C35.3906 41.1651 35.4464 41.1093 35.4464 41.0405C35.4464 40.9716 35.3906 40.9158 35.3217 40.9158H34.9557C34.9837 40.6395 35.0982 40.3789 35.2858 40.1709C35.3319 40.1198 35.3278 40.0409 35.2766 39.9948C35.2255 39.9487 35.1467 39.9528 35.1006 40.004C34.8419 40.2909 34.6995 40.6618 34.6995 41.0484V42.5303H34.379V41.8471C34.379 41.6409 34.2113 41.4731 34.005 41.4731C33.7988 41.4731 33.6311 41.6409 33.6311 41.8471V43.0688C33.6311 44.3647 34.5737 45.4445 35.8093 45.6588V47.1719H34.682C34.4588 47.1719 34.2772 47.3535 34.2772 47.5766C34.2772 47.7998 34.4588 47.9813 34.682 47.9813H35.2359C35.3047 47.9813 35.3605 47.9255 35.3605 47.8567C35.3605 47.7878 35.3047 47.732 35.2359 47.732H34.682C34.5963 47.732 34.5265 47.6623 34.5265 47.5766C34.5265 47.4909 34.5963 47.4212 34.682 47.4212H37.8377C37.9234 47.4212 37.9932 47.4909 37.9932 47.5766C37.9932 47.6623 37.9234 47.732 37.8377 47.732H35.7345C35.6657 47.732 35.6099 47.7878 35.6099 47.8567C35.6099 47.9255 35.6657 47.9813 35.7345 47.9813H37.8378C38.0609 47.9813 38.2425 47.7998 38.2425 47.5766C38.2425 47.3534 38.0609 47.1719 37.8378 47.1719H36.7104V45.6588C37.946 45.4445 38.8886 44.3647 38.8886 43.0688ZM33.8804 43.0688V41.8471C33.8804 41.7783 33.9363 41.7224 34.0051 41.7224C34.0738 41.7224 34.1297 41.7783 34.1297 41.8471V43.0688C34.1297 44.2434 35.0853 45.1989 36.2599 45.1989C36.6929 45.1989 37.1099 45.0692 37.4659 44.8238C37.5226 44.7848 37.5369 44.7071 37.4978 44.6505C37.4588 44.5938 37.3811 44.5794 37.3245 44.6186C37.0102 44.8351 36.6421 44.9496 36.2599 44.9496C35.2228 44.9496 34.379 44.1059 34.379 43.0688V42.7796H34.6995V42.9699C34.6995 43.8303 35.3995 44.5303 36.2599 44.5303C37.1203 44.5303 37.8202 43.8303 37.8202 42.9699V42.7796H38.1407V43.0688C38.1407 43.5242 37.9751 43.964 37.6744 44.307C37.629 44.3588 37.6342 44.4376 37.686 44.4829C37.7377 44.5283 37.8165 44.5232 37.8619 44.4714C38.2025 44.0828 38.39 43.5847 38.39 43.0688V41.8471C38.39 41.7783 38.446 41.7224 38.5147 41.7224C38.5834 41.7224 38.6394 41.7783 38.6394 41.8471V43.0688C38.6394 44.3808 37.5719 45.4482 36.2599 45.4482C34.9479 45.4482 33.8804 44.3808 33.8804 43.0688ZM36.4611 47.1719H36.0586V45.6899C36.1251 45.695 36.1922 45.6976 36.2599 45.6976C36.3276 45.6976 36.3947 45.695 36.4611 45.6899V47.1719Z" fill="#2639A1"/>
</g>
<circle cx="115.313" cy="34.5894" r="2.28667" fill="white" fill-opacity="0.42"/>
<circle cx="123.153" cy="34.5879" r="2.28667" fill="white"/>
<circle cx="130.993" cy="34.5879" r="2.28667" fill="white" fill-opacity="0.42"/>
<path d="M25.2959 63.0565C25.3351 63.1131 25.3547 63.1741 25.3547 63.2394C25.3547 63.3178 25.3221 63.3853 25.2567 63.4419C25.1958 63.4942 25.1239 63.5203 25.0411 63.5203C24.9192 63.5203 24.8212 63.4659 24.7471 63.357L23.8717 61.9981C23.7715 61.8413 23.6648 61.7324 23.5515 61.6714C23.4383 61.6061 23.2902 61.5734 23.1073 61.5734H22.369V63.1675C22.369 63.2721 22.3385 63.3548 22.2775 63.4158C22.2209 63.4768 22.1403 63.5073 22.0358 63.5073C21.9356 63.5073 21.855 63.4768 21.7941 63.4158C21.7331 63.3548 21.7026 63.2721 21.7026 63.1675V59.1953C21.7026 59.0951 21.7309 59.0167 21.7875 58.9601C21.8485 58.8991 21.9313 58.8686 22.0358 58.8686H23.6626C24.1722 58.8686 24.5598 58.9819 24.8255 59.2083C25.0956 59.4348 25.2306 59.7659 25.2306 60.2014C25.2306 60.5629 25.1282 60.8569 24.9235 61.0834C24.7188 61.3055 24.427 61.4471 24.0481 61.5081C24.1613 61.5386 24.2637 61.593 24.3551 61.6714C24.4466 61.7498 24.5359 61.8587 24.623 61.9981L25.2959 63.0565ZM23.5842 61.0311C23.9239 61.0311 24.1744 60.9658 24.3355 60.8351C24.501 60.7001 24.5838 60.4932 24.5838 60.2145C24.5838 59.9357 24.5032 59.7332 24.3421 59.6069C24.1809 59.4762 23.9283 59.4109 23.5842 59.4109H22.3625V61.0311H23.5842ZM28.5654 62.671C28.6264 62.671 28.6765 62.695 28.7157 62.7429C28.7549 62.7908 28.7745 62.8518 28.7745 62.9258C28.7745 63.0521 28.6961 63.1588 28.5393 63.2459C28.3868 63.3331 28.2191 63.4006 28.0362 63.4485C27.8576 63.4964 27.6856 63.5203 27.5201 63.5203C27.0148 63.5203 26.6163 63.3744 26.3245 63.0826C26.0326 62.7864 25.8867 62.3835 25.8867 61.8739C25.8867 61.5473 25.9499 61.2576 26.0762 61.005C26.2069 60.7524 26.3876 60.5564 26.6185 60.417C26.8537 60.2776 27.1194 60.2079 27.4155 60.2079C27.8424 60.2079 28.1799 60.3451 28.4282 60.6195C28.6765 60.8939 28.8006 61.2642 28.8006 61.7302C28.8006 61.9044 28.7222 61.9915 28.5654 61.9915H26.5466C26.5902 62.6667 26.9146 63.0042 27.5201 63.0042C27.6812 63.0042 27.8206 62.9824 27.9382 62.9389C28.0558 62.8953 28.1799 62.8387 28.3106 62.769C28.3237 62.7603 28.3585 62.7429 28.4151 62.7167C28.4761 62.6863 28.5262 62.671 28.5654 62.671ZM27.4286 60.6914C27.176 60.6914 26.9734 60.772 26.821 60.9331C26.6686 61.0943 26.5771 61.3208 26.5466 61.6126H28.2322C28.2191 61.3164 28.1429 61.0899 28.0035 60.9331C27.8685 60.772 27.6769 60.6914 27.4286 60.6914ZM30.8279 63.5203C30.5186 63.5203 30.2464 63.4528 30.0112 63.3178C29.7804 63.1828 29.5996 62.9911 29.4689 62.7429C29.3426 62.4946 29.2795 62.2071 29.2795 61.8805C29.2795 61.5495 29.3448 61.2576 29.4755 61.005C29.6105 60.7524 29.7978 60.5564 30.0373 60.417C30.2769 60.2776 30.5513 60.2079 30.8605 60.2079C31.0261 60.2079 31.1916 60.2319 31.3571 60.2798C31.5269 60.3277 31.6772 60.3931 31.8079 60.4758C31.9473 60.5716 32.0169 60.6827 32.0169 60.809C32.0169 60.8831 31.9973 60.9462 31.9581 60.9985C31.9189 61.0464 31.8689 61.0703 31.8079 61.0703C31.7687 61.0703 31.7295 61.0616 31.6903 61.0442C31.6511 61.0224 31.601 60.9919 31.54 60.9527C31.4311 60.8831 31.3288 60.8308 31.2329 60.7959C31.1415 60.7567 31.0304 60.7371 30.8997 60.7371C30.6036 60.7371 30.3727 60.8373 30.2072 61.0377C30.0461 61.238 29.9655 61.5168 29.9655 61.8739C29.9655 62.2311 30.0461 62.5077 30.2072 62.7037C30.3684 62.8953 30.597 62.9911 30.8932 62.9911C31.0239 62.9911 31.1393 62.9715 31.2395 62.9323C31.3397 62.8931 31.442 62.8409 31.5465 62.7755C31.5945 62.7451 31.6424 62.7189 31.6903 62.6971C31.7382 62.6754 31.7817 62.6645 31.8209 62.6645C31.8819 62.6645 31.932 62.6906 31.9712 62.7429C32.0104 62.7908 32.03 62.8518 32.03 62.9258C32.03 62.9868 32.0126 63.0434 31.9777 63.0957C31.9473 63.1436 31.8928 63.1937 31.8144 63.2459C31.6837 63.3331 31.5313 63.4006 31.3571 63.4485C31.1829 63.4964 31.0065 63.5203 30.8279 63.5203ZM33.9403 63.5203C33.6267 63.5203 33.3502 63.4528 33.1106 63.3178C32.8754 63.1828 32.6925 62.9911 32.5618 62.7429C32.4355 62.4903 32.3723 62.1984 32.3723 61.8674C32.3723 61.532 32.4355 61.2402 32.5618 60.9919C32.6925 60.7393 32.8754 60.5455 33.1106 60.4105C33.3502 60.2755 33.6267 60.2079 33.9403 60.2079C34.2539 60.2079 34.5283 60.2755 34.7635 60.4105C35.0031 60.5455 35.186 60.7393 35.3123 60.9919C35.443 61.2402 35.5083 61.532 35.5083 61.8674C35.5083 62.1984 35.443 62.4903 35.3123 62.7429C35.186 62.9911 35.0031 63.1828 34.7635 63.3178C34.5283 63.4528 34.2539 63.5203 33.9403 63.5203ZM33.9403 62.9977C34.2322 62.9977 34.4543 62.9019 34.6067 62.7102C34.7635 62.5186 34.8419 62.2376 34.8419 61.8674C34.8419 61.5015 34.7635 61.2228 34.6067 61.0311C34.4499 60.8351 34.2278 60.7371 33.9403 60.7371C33.6529 60.7371 33.4307 60.8351 33.2739 61.0311C33.1171 61.2228 33.0387 61.5015 33.0387 61.8674C33.0387 62.2376 33.115 62.5186 33.2674 62.7102C33.4242 62.9019 33.6485 62.9977 33.9403 62.9977ZM37.8502 60.221C38.0593 60.2079 38.1638 60.2972 38.1638 60.4889C38.1638 60.5847 38.1399 60.6566 38.092 60.7045C38.0441 60.7524 37.9613 60.7807 37.8437 60.7894L37.6477 60.809C37.3733 60.8351 37.1686 60.931 37.0336 61.0965C36.9029 61.262 36.8376 61.4623 36.8376 61.6975V63.1937C36.8376 63.2982 36.8071 63.3766 36.7461 63.4289C36.6851 63.4811 36.6067 63.5073 36.5109 63.5073C36.4151 63.5073 36.3345 63.4811 36.2692 63.4289C36.2082 63.3766 36.1777 63.2982 36.1777 63.1937V60.5346C36.1777 60.4344 36.2082 60.3582 36.2692 60.3059C36.3345 60.2493 36.4151 60.221 36.5109 60.221C36.598 60.221 36.6699 60.2493 36.7265 60.3059C36.7875 60.3582 36.818 60.4323 36.818 60.5281V60.8417C36.9051 60.65 37.0314 60.5041 37.1969 60.4039C37.3624 60.3038 37.5497 60.245 37.7588 60.2275L37.8502 60.221ZM41.0479 58.8359C41.1481 58.8359 41.2287 58.8643 41.2897 58.9209C41.3507 58.9775 41.3811 59.0537 41.3811 59.1495V63.1871C41.3811 63.2873 41.3507 63.3657 41.2897 63.4223C41.2331 63.479 41.1547 63.5073 41.0545 63.5073C40.9543 63.5073 40.8737 63.479 40.8127 63.4223C40.7561 63.3657 40.7278 63.2873 40.7278 63.1871V62.9258C40.632 63.1175 40.4926 63.2655 40.3097 63.3701C40.1267 63.4703 39.9155 63.5203 39.6759 63.5203C39.4015 63.5203 39.1555 63.4507 38.9377 63.3113C38.7243 63.1719 38.5566 62.9759 38.4346 62.7233C38.317 62.4707 38.2582 62.181 38.2582 61.8543C38.2582 61.5233 38.317 61.2337 38.4346 60.9854C38.5566 60.7371 38.7243 60.5455 38.9377 60.4105C39.1511 60.2755 39.3972 60.2079 39.6759 60.2079C39.9155 60.2079 40.1246 60.2602 40.3031 60.3647C40.4861 60.4649 40.6255 60.6087 40.7213 60.7959V59.1365C40.7213 59.045 40.7496 58.9731 40.8062 58.9209C40.8672 58.8643 40.9478 58.8359 41.0479 58.8359ZM39.8327 62.9977C40.1159 62.9977 40.3358 62.8997 40.4926 62.7037C40.6494 62.5077 40.7278 62.2289 40.7278 61.8674C40.7278 61.5059 40.6494 61.2271 40.4926 61.0311C40.3402 60.8351 40.1202 60.7371 39.8327 60.7371C39.5453 60.7371 39.321 60.8351 39.1598 61.0311C39.003 61.2228 38.9246 61.4972 38.9246 61.8543C38.9246 62.2115 39.0052 62.4924 39.1663 62.6971C39.3275 62.8975 39.5496 62.9977 39.8327 62.9977ZM42.569 63.5073C42.4732 63.5073 42.3926 63.4811 42.3273 63.4289C42.2663 63.3766 42.2358 63.2982 42.2358 63.1937V60.5411C42.2358 60.4366 42.2663 60.3582 42.3273 60.3059C42.3926 60.2493 42.4732 60.221 42.569 60.221C42.6649 60.221 42.7433 60.2493 42.8042 60.3059C42.8652 60.3582 42.8957 60.4366 42.8957 60.5411V63.1937C42.8957 63.2982 42.8652 63.3766 42.8042 63.4289C42.7433 63.4811 42.6649 63.5073 42.569 63.5073ZM42.569 59.5807C42.4427 59.5807 42.3426 59.5459 42.2685 59.4762C42.1945 59.4065 42.1574 59.3151 42.1574 59.2018C42.1574 59.0886 42.1945 58.9993 42.2685 58.9339C42.3426 58.8643 42.4427 58.8294 42.569 58.8294C42.691 58.8294 42.789 58.8643 42.863 58.9339C42.9414 58.9993 42.9806 59.0886 42.9806 59.2018C42.9806 59.3151 42.9436 59.4065 42.8696 59.4762C42.7955 59.5459 42.6954 59.5807 42.569 59.5807ZM45.4711 60.2079C46.2333 60.2079 46.6144 60.637 46.6144 61.495V63.1937C46.6144 63.2939 46.5839 63.3723 46.5229 63.4289C46.4663 63.4811 46.3857 63.5073 46.2812 63.5073C46.181 63.5073 46.1004 63.479 46.0395 63.4223C45.9828 63.3657 45.9545 63.2895 45.9545 63.1937V61.5277C45.9545 61.2576 45.9001 61.0595 45.7912 60.9331C45.6867 60.8068 45.5212 60.7437 45.2947 60.7437C45.029 60.7437 44.8156 60.8264 44.6544 60.9919C44.4932 61.1575 44.4127 61.3796 44.4127 61.6583V63.1937C44.4127 63.2895 44.3822 63.3657 44.3212 63.4223C44.2646 63.479 44.1862 63.5073 44.086 63.5073C43.9858 63.5073 43.9052 63.479 43.8443 63.4223C43.7833 63.3657 43.7528 63.2895 43.7528 63.1937V60.5346C43.7528 60.4431 43.7833 60.3691 43.8443 60.3125C43.9096 60.2515 43.9902 60.221 44.086 60.221C44.1818 60.221 44.258 60.2493 44.3147 60.3059C44.3713 60.3626 44.3996 60.4366 44.3996 60.5281V60.7959C44.5041 60.6043 44.65 60.4584 44.8373 60.3582C45.0246 60.258 45.2359 60.2079 45.4711 60.2079ZM50.0913 60.221C50.1914 60.221 50.2698 60.2515 50.3265 60.3125C50.3874 60.3691 50.4179 60.4453 50.4179 60.5411V63.2198C50.4179 63.7076 50.2873 64.0757 50.0259 64.3239C49.7689 64.5722 49.3878 64.6963 48.8826 64.6963C48.4122 64.6963 48.0202 64.6071 47.7066 64.4285C47.5454 64.337 47.4649 64.2281 47.4649 64.1018C47.4649 64.0278 47.4845 63.9668 47.5237 63.9189C47.5672 63.871 47.6195 63.847 47.6805 63.847C47.7371 63.847 47.8264 63.8797 47.9483 63.945C48.1051 64.0191 48.251 64.0757 48.3861 64.1149C48.5211 64.1584 48.6822 64.1802 48.8695 64.1802C49.4706 64.1802 49.7711 63.8775 49.7711 63.2721V62.769C49.6797 62.9607 49.5403 63.1109 49.353 63.2198C49.1657 63.3243 48.9479 63.3766 48.6997 63.3766C48.4209 63.3766 48.1726 63.3113 47.9549 63.1806C47.7371 63.0499 47.5672 62.8648 47.4453 62.6253C47.3277 62.3857 47.2689 62.1091 47.2689 61.7955C47.2689 61.4819 47.3298 61.2054 47.4518 60.9658C47.5737 60.7263 47.7414 60.5411 47.9549 60.4105C48.1726 60.2755 48.4209 60.2079 48.6997 60.2079C48.9436 60.2079 49.157 60.2602 49.3399 60.3647C49.5272 60.4693 49.6688 60.6174 49.7646 60.809V60.5346C49.7646 60.4388 49.7929 60.3626 49.8495 60.3059C49.9105 60.2493 49.9911 60.221 50.0913 60.221ZM48.8565 62.8539C49.1396 62.8539 49.3617 62.7603 49.5229 62.573C49.684 62.3857 49.7646 62.1266 49.7646 61.7955C49.7646 61.4689 49.684 61.2119 49.5229 61.0246C49.3661 60.833 49.1439 60.7371 48.8565 60.7371C48.569 60.7371 48.3425 60.8308 48.177 61.0181C48.0158 61.2054 47.9353 61.4645 47.9353 61.7955C47.9353 62.1266 48.018 62.3857 48.1835 62.573C48.349 62.7603 48.5733 62.8539 48.8565 62.8539ZM52.3827 63.5203C51.9384 63.5203 51.5747 63.4289 51.2916 63.2459C51.2132 63.198 51.1566 63.1479 51.1217 63.0957C51.0912 63.0434 51.076 62.9846 51.076 62.9193C51.076 62.8496 51.0956 62.7908 51.1348 62.7429C51.174 62.695 51.2241 62.671 51.2851 62.671C51.3417 62.671 51.431 62.7059 51.5529 62.7755C51.6836 62.8452 51.8099 62.9019 51.9319 62.9454C52.0582 62.989 52.215 63.0107 52.4023 63.0107C52.6113 63.0107 52.7747 62.9737 52.8923 62.8997C53.0099 62.8256 53.0687 62.7211 53.0687 62.5861C53.0687 62.499 53.0447 62.4293 52.9968 62.377C52.9532 62.3247 52.8748 62.279 52.7616 62.2398C52.6484 62.1963 52.4807 62.1505 52.2585 62.1026C51.8752 62.0199 51.5987 61.9088 51.4288 61.7694C51.2633 61.6257 51.1805 61.4319 51.1805 61.1879C51.1805 61.0007 51.235 60.833 51.3439 60.6849C51.4528 60.5324 51.603 60.4148 51.7947 60.3321C51.9863 60.2493 52.2041 60.2079 52.448 60.2079C52.6222 60.2079 52.7921 60.2319 52.9576 60.2798C53.1231 60.3234 53.269 60.3887 53.3953 60.4758C53.5391 60.5716 53.6109 60.6827 53.6109 60.809C53.6109 60.8787 53.5892 60.9375 53.5456 60.9854C53.5064 61.0333 53.4585 61.0573 53.4019 61.0573C53.3627 61.0573 53.3235 61.0486 53.2843 61.0311C53.2451 61.0137 53.1928 60.9854 53.1275 60.9462C53.0099 60.8765 52.8988 60.8221 52.7943 60.7829C52.6941 60.7437 52.5678 60.7241 52.4153 60.7241C52.2324 60.7241 52.0843 60.7633 51.9711 60.8417C51.8622 60.9201 51.8077 61.0268 51.8077 61.1618C51.8077 61.2838 51.8578 61.3796 51.958 61.4493C52.0625 61.5146 52.2564 61.5778 52.5395 61.6387C52.8313 61.6997 53.06 61.7694 53.2255 61.8478C53.391 61.9262 53.5086 62.0242 53.5783 62.1418C53.6523 62.2551 53.6893 62.401 53.6893 62.5795C53.6893 62.8627 53.5696 63.0913 53.33 63.2655C53.0948 63.4354 52.779 63.5203 52.3827 63.5203Z" fill="white"/>
<path d="M211.187 59.0385C211.213 58.9688 211.252 58.9165 211.304 58.8817C211.357 58.8468 211.415 58.8294 211.481 58.8294C211.564 58.8294 211.635 58.8577 211.696 58.9143C211.762 58.9666 211.794 59.0363 211.794 59.1234C211.794 59.1713 211.786 59.2149 211.768 59.2541L210.324 63.2917C210.294 63.3657 210.246 63.4223 210.181 63.4615C210.115 63.5007 210.043 63.5203 209.965 63.5203C209.891 63.5203 209.821 63.5007 209.756 63.4615C209.691 63.4223 209.645 63.3657 209.619 63.2917L208.43 59.9205L207.215 63.2917C207.188 63.3657 207.143 63.4223 207.077 63.4615C207.012 63.5007 206.942 63.5203 206.868 63.5203C206.79 63.5203 206.718 63.5007 206.653 63.4615C206.592 63.4223 206.546 63.3657 206.515 63.2917L205.072 59.2541C205.054 59.2149 205.045 59.1713 205.045 59.1234C205.045 59.0363 205.078 58.9666 205.143 58.9143C205.209 58.8577 205.287 58.8294 205.379 58.8294C205.444 58.8294 205.503 58.8468 205.555 58.8817C205.612 58.9165 205.653 58.9688 205.679 59.0385L206.888 62.5142L208.116 59.0711C208.142 58.9971 208.184 58.9405 208.24 58.9013C208.301 58.8621 208.367 58.8425 208.436 58.8425C208.506 58.8425 208.569 58.8643 208.626 58.9078C208.682 58.947 208.726 59.0036 208.756 59.0777L209.959 62.5469L211.187 59.0385ZM213.44 63.5203C213.126 63.5203 212.849 63.4528 212.61 63.3178C212.375 63.1828 212.192 62.9911 212.061 62.7429C211.935 62.4903 211.872 62.1984 211.872 61.8674C211.872 61.532 211.935 61.2402 212.061 60.9919C212.192 60.7393 212.375 60.5455 212.61 60.4105C212.849 60.2755 213.126 60.2079 213.44 60.2079C213.753 60.2079 214.028 60.2755 214.263 60.4105C214.502 60.5455 214.685 60.7393 214.812 60.9919C214.942 61.2402 215.008 61.532 215.008 61.8674C215.008 62.1984 214.942 62.4903 214.812 62.7429C214.685 62.9911 214.502 63.1828 214.263 63.3178C214.028 63.4528 213.753 63.5203 213.44 63.5203ZM213.44 62.9977C213.731 62.9977 213.954 62.9019 214.106 62.7102C214.263 62.5186 214.341 62.2376 214.341 61.8674C214.341 61.5015 214.263 61.2228 214.106 61.0311C213.949 60.8351 213.727 60.7371 213.44 60.7371C213.152 60.7371 212.93 60.8351 212.773 61.0311C212.616 61.2228 212.538 61.5015 212.538 61.8674C212.538 62.2376 212.614 62.5186 212.767 62.7102C212.924 62.9019 213.148 62.9977 213.44 62.9977ZM217.35 60.221C217.559 60.2079 217.663 60.2972 217.663 60.4889C217.663 60.5847 217.639 60.6566 217.591 60.7045C217.543 60.7524 217.461 60.7807 217.343 60.7894L217.147 60.809C216.873 60.8351 216.668 60.931 216.533 61.0965C216.402 61.262 216.337 61.4623 216.337 61.6975V63.1937C216.337 63.2982 216.306 63.3766 216.245 63.4289C216.184 63.4811 216.106 63.5073 216.01 63.5073C215.914 63.5073 215.834 63.4811 215.768 63.4289C215.708 63.3766 215.677 63.2982 215.677 63.1937V60.5346C215.677 60.4344 215.708 60.3582 215.768 60.3059C215.834 60.2493 215.914 60.221 216.01 60.221C216.097 60.221 216.169 60.2493 216.226 60.3059C216.287 60.3582 216.317 60.4323 216.317 60.5281V60.8417C216.404 60.65 216.531 60.5041 216.696 60.4039C216.862 60.3038 217.049 60.245 217.258 60.2275L217.35 60.221ZM220.547 58.8359C220.647 58.8359 220.728 58.8643 220.789 58.9209C220.85 58.9775 220.88 59.0537 220.88 59.1495V63.1871C220.88 63.2873 220.85 63.3657 220.789 63.4223C220.732 63.479 220.654 63.5073 220.554 63.5073C220.454 63.5073 220.373 63.479 220.312 63.4223C220.255 63.3657 220.227 63.2873 220.227 63.1871V62.9258C220.131 63.1175 219.992 63.2655 219.809 63.3701C219.626 63.4703 219.415 63.5203 219.175 63.5203C218.901 63.5203 218.655 63.4507 218.437 63.3113C218.224 63.1719 218.056 62.9759 217.934 62.7233C217.816 62.4707 217.758 62.181 217.758 61.8543C217.758 61.5233 217.816 61.2337 217.934 60.9854C218.056 60.7371 218.224 60.5455 218.437 60.4105C218.65 60.2755 218.897 60.2079 219.175 60.2079C219.415 60.2079 219.624 60.2602 219.802 60.3647C219.985 60.4649 220.125 60.6087 220.221 60.7959V59.1365C220.221 59.045 220.249 58.9731 220.306 58.9209C220.367 58.8643 220.447 58.8359 220.547 58.8359ZM219.332 62.9977C219.615 62.9977 219.835 62.8997 219.992 62.7037C220.149 62.5077 220.227 62.2289 220.227 61.8674C220.227 61.5059 220.149 61.2271 219.992 61.0311C219.839 60.8351 219.62 60.7371 219.332 60.7371C219.045 60.7371 218.82 60.8351 218.659 61.0311C218.502 61.2228 218.424 61.4972 218.424 61.8543C218.424 62.2115 218.505 62.4924 218.666 62.6971C218.827 62.8975 219.049 62.9977 219.332 62.9977ZM222.846 63.5203C222.402 63.5203 222.038 63.4289 221.755 63.2459C221.676 63.198 221.62 63.1479 221.585 63.0957C221.554 63.0434 221.539 62.9846 221.539 62.9193C221.539 62.8496 221.559 62.7908 221.598 62.7429C221.637 62.695 221.687 62.671 221.748 62.671C221.805 62.671 221.894 62.7059 222.016 62.7755C222.147 62.8452 222.273 62.9019 222.395 62.9454C222.521 62.989 222.678 63.0107 222.865 63.0107C223.074 63.0107 223.238 62.9737 223.355 62.8997C223.473 62.8256 223.532 62.7211 223.532 62.5861C223.532 62.499 223.508 62.4293 223.46 62.377C223.416 62.3247 223.338 62.279 223.225 62.2398C223.112 62.1963 222.944 62.1505 222.722 62.1026C222.338 62.0199 222.062 61.9088 221.892 61.7694C221.726 61.6257 221.644 61.4319 221.644 61.1879C221.644 61.0007 221.698 60.833 221.807 60.6849C221.916 60.5324 222.066 60.4148 222.258 60.3321C222.449 60.2493 222.667 60.2079 222.911 60.2079C223.085 60.2079 223.255 60.2319 223.421 60.2798C223.586 60.3234 223.732 60.3887 223.858 60.4758C224.002 60.5716 224.074 60.6827 224.074 60.809C224.074 60.8787 224.052 60.9375 224.009 60.9854C223.97 61.0333 223.922 61.0573 223.865 61.0573C223.826 61.0573 223.787 61.0486 223.747 61.0311C223.708 61.0137 223.656 60.9854 223.591 60.9462C223.473 60.8765 223.362 60.8221 223.257 60.7829C223.157 60.7437 223.031 60.7241 222.878 60.7241C222.696 60.7241 222.547 60.7633 222.434 60.8417C222.325 60.9201 222.271 61.0268 222.271 61.1618C222.271 61.2838 222.321 61.3796 222.421 61.4493C222.526 61.5146 222.72 61.5778 223.003 61.6387C223.294 61.6997 223.523 61.7694 223.689 61.8478C223.854 61.9262 223.972 62.0242 224.041 62.1418C224.115 62.2551 224.152 62.401 224.152 62.5795C224.152 62.8627 224.033 63.0913 223.793 63.2655C223.558 63.4354 223.242 63.5203 222.846 63.5203Z" fill="white"/>
<defs>
<filter id="filter0_d" x="60.76" y="203.475" width="130.667" height="130.667" filterUnits="userSpaceOnUse" color-interpolation-filters="sRGB">
<feFlood flood-opacity="0" result="BackgroundImageFix"/>
<feColorMatrix in="SourceAlpha" type="matrix" values="0 0 0 0 0 0 0 0 0 0 0 0 0 0 0 0 0 0 127 0"/>
<feOffset dx="2.61333" dy="2.61333"/>
<feGaussianBlur stdDeviation="3.26667"/>
<feColorMatrix type="matrix" values="0 0 0 0 0.117647 0 0 0 0 0.0901961 0 0 0 0 0.141176 0 0 0 0.25 0"/>
<feBlend mode="normal" in2="BackgroundImageFix" result="effect1_dropShadow"/>
<feBlend mode="normal" in="SourceGraphic" in2="effect1_dropShadow" result="shape"/>
</filter>
<clipPath id="clip0">
<rect width="66.64" height="66.64" fill="white" transform="translate(90.16 232.875)"/>
</clipPath>
<clipPath id="clip1">
<rect width="9.8" height="9.8" fill="white" transform="translate(211.027 38.8347)"/>
</clipPath>
<clipPath id="clip2">
<rect width="8.49333" height="8.49333" fill="white" transform="translate(32.0133 39.488)"/>
</clipPath>
</defs>
</svg>
