<svg width="212" height="459" viewBox="0 0 212 459" fill="none" xmlns="http://www.w3.org/2000/svg">
<rect width="211.977" height="459" fill="#2639A1"/>
<g filter="url(#filter0_d)">
<circle cx="106.836" cy="229.5" r="50.8744" fill="#4958AD" fill-opacity="0.97"/>
</g>
<g clip-path="url(#clip0)">
<path d="M106.836 235.856C110.341 235.856 113.193 233.005 113.193 229.5C113.193 225.995 110.341 223.144 106.836 223.144C103.331 223.144 100.48 225.995 100.48 229.5C100.48 233.005 103.331 235.856 106.836 235.856ZM106.836 225.656C108.956 225.656 110.68 227.381 110.68 229.5C110.68 231.619 108.956 233.343 106.836 233.343C104.717 233.343 102.993 231.619 102.993 229.5C102.993 227.381 104.717 225.656 106.836 225.656Z" fill="white"/>
<path d="M134.409 228.244H129.43C128.798 216.764 119.572 207.538 108.093 206.906V201.928C108.093 201.234 107.53 200.671 106.836 200.671C106.142 200.671 105.58 201.234 105.58 201.928V208.127C105.58 208.821 106.142 209.384 106.836 209.384C117.928 209.384 126.953 218.408 126.953 229.5C126.953 240.592 117.928 249.616 106.836 249.616C95.744 249.616 86.7199 240.592 86.7199 229.5C86.7199 221.797 91.2121 214.67 98.1643 211.343C98.7903 211.044 99.055 210.294 98.7553 209.668C98.4558 209.042 97.7051 208.777 97.0796 209.077C93.2828 210.894 90.07 213.729 87.7889 217.277C85.6718 220.57 84.4599 224.338 84.2449 228.244H79.2638C78.5701 228.244 78.0074 228.806 78.0074 229.5C78.0074 230.194 78.5701 230.757 79.2638 230.757H84.2426C84.8739 242.236 94.1003 251.462 105.58 252.094V257.072C105.58 257.766 106.142 258.329 106.836 258.329C107.53 258.329 108.093 257.766 108.093 257.072V252.094C119.572 251.462 128.798 242.236 129.43 230.757H134.409C135.102 230.757 135.665 230.194 135.665 229.5C135.665 228.806 135.102 228.244 134.409 228.244Z" fill="white"/>
</g>
<path d="M68.8889 153.127C68.6063 153.127 68.3802 153.047 68.2106 152.887C68.0504 152.717 67.9703 152.496 67.9703 152.223V144.592H65.3984C64.8331 144.592 64.5505 144.342 64.5505 143.843C64.5505 143.343 64.8331 143.094 65.3984 143.094H72.3653C72.9306 143.094 73.2132 143.343 73.2132 143.843C73.2132 144.342 72.9306 144.592 72.3653 144.592H69.7933V152.223C69.7933 152.496 69.7086 152.717 69.539 152.887C69.3788 153.047 69.1621 153.127 68.8889 153.127ZM75.8863 145.977C76.8473 145.977 77.5586 146.217 78.0202 146.697C78.4913 147.168 78.7268 147.889 78.7268 148.86V152.308C78.7268 152.562 78.6515 152.765 78.5007 152.915C78.35 153.057 78.1427 153.127 77.8789 153.127C77.634 153.127 77.4314 153.052 77.2713 152.901C77.1205 152.75 77.0451 152.553 77.0451 152.308V151.997C76.885 152.364 76.6306 152.652 76.282 152.859C75.9429 153.066 75.5472 153.17 75.095 153.17C74.6333 153.17 74.2141 153.075 73.8372 152.887C73.4604 152.699 73.1636 152.44 72.9469 152.11C72.7302 151.78 72.6219 151.413 72.6219 151.008C72.6219 150.499 72.7491 150.098 73.0035 149.806C73.2673 149.514 73.6912 149.302 74.2753 149.17C74.8594 149.039 75.6649 148.973 76.6919 148.973H77.0451V148.648C77.0451 148.186 76.9462 147.851 76.7484 147.644C76.5505 147.427 76.2302 147.319 75.7874 147.319C75.5142 147.319 75.2363 147.362 74.9536 147.446C74.671 147.522 74.3366 147.635 73.9503 147.785C73.7053 147.908 73.5263 147.969 73.4133 147.969C73.2437 147.969 73.1024 147.908 72.9893 147.785C72.8857 147.663 72.8339 147.503 72.8339 147.305C72.8339 147.145 72.8716 147.008 72.9469 146.895C73.0317 146.773 73.1683 146.66 73.3568 146.556C73.6865 146.377 74.0775 146.236 74.5297 146.132C74.9913 146.028 75.4435 145.977 75.8863 145.977ZM75.4483 151.898C75.9193 151.898 76.3009 151.742 76.5929 151.431C76.8944 151.111 77.0451 150.701 77.0451 150.202V149.905H76.7908C76.1596 149.905 75.6697 149.934 75.3211 149.99C74.9725 150.047 74.7228 150.145 74.5721 150.287C74.4213 150.428 74.346 150.621 74.346 150.866C74.346 151.168 74.4496 151.417 74.6569 151.615C74.8736 151.804 75.1374 151.898 75.4483 151.898ZM84.3518 145.977C84.9454 145.977 85.4729 146.127 85.9346 146.429C86.4056 146.73 86.7684 147.159 87.0227 147.715C87.2865 148.261 87.4184 148.892 87.4184 149.608C87.4184 150.324 87.2865 150.951 87.0227 151.488C86.7684 152.025 86.4104 152.44 85.9487 152.732C85.4871 153.024 84.9548 153.17 84.3518 153.17C83.8619 153.17 83.4238 153.066 83.0376 152.859C82.6513 152.652 82.3545 152.364 82.1473 151.997V154.88C82.1473 155.125 82.0672 155.318 81.907 155.459C81.7469 155.6 81.5349 155.671 81.2711 155.671C81.0073 155.671 80.7906 155.596 80.621 155.445C80.4609 155.294 80.3808 155.096 80.3808 154.851V146.839C80.3808 146.584 80.4562 146.382 80.6069 146.231C80.7671 146.08 80.979 146.005 81.2428 146.005C81.5066 146.005 81.7186 146.08 81.8788 146.231C82.0389 146.382 82.119 146.584 82.119 146.839V147.192C82.3263 146.806 82.623 146.509 83.0093 146.302C83.405 146.085 83.8525 145.977 84.3518 145.977ZM83.8855 151.799C84.4413 151.799 84.8747 151.61 85.1856 151.234C85.4965 150.847 85.652 150.306 85.652 149.608C85.652 148.892 85.4965 148.337 85.1856 147.941C84.8747 147.545 84.4413 147.347 83.8855 147.347C83.3202 147.347 82.8821 147.541 82.5712 147.927C82.2697 148.313 82.119 148.864 82.119 149.58C82.119 150.287 82.2697 150.833 82.5712 151.22C82.8821 151.606 83.3202 151.799 83.8855 151.799ZM96.0115 151.827C96.4826 151.855 96.7181 152.067 96.7181 152.463C96.7181 152.689 96.6239 152.864 96.4355 152.986C96.2565 153.099 95.9974 153.146 95.6582 153.127L95.2767 153.099C93.6939 152.986 92.9025 152.138 92.9025 150.555V147.475H92.196C91.9416 147.475 91.7437 147.418 91.6024 147.305C91.4705 147.192 91.4046 147.027 91.4046 146.81C91.4046 146.594 91.4705 146.429 91.6024 146.316C91.7437 146.203 91.9416 146.146 92.196 146.146H92.9025V144.846C92.9025 144.592 92.9826 144.389 93.1428 144.238C93.3029 144.088 93.5196 144.012 93.7928 144.012C94.0566 144.012 94.2686 144.088 94.4288 144.238C94.5889 144.389 94.669 144.592 94.669 144.846V146.146H95.8702C96.1246 146.146 96.3177 146.203 96.4496 146.316C96.5909 146.429 96.6616 146.594 96.6616 146.81C96.6616 147.027 96.5909 147.192 96.4496 147.305C96.3177 147.418 96.1246 147.475 95.8702 147.475H94.669V150.683C94.669 151.38 94.9893 151.752 95.63 151.799L96.0115 151.827ZM100.649 153.17C99.9422 153.17 99.3204 153.024 98.7833 152.732C98.2558 152.44 97.8459 152.02 97.5539 151.474C97.2618 150.927 97.1158 150.292 97.1158 149.566C97.1158 148.841 97.2618 148.209 97.5539 147.672C97.8459 147.126 98.2558 146.707 98.7833 146.415C99.3204 146.123 99.9422 145.977 100.649 145.977C101.355 145.977 101.972 146.123 102.5 146.415C103.037 146.707 103.447 147.126 103.729 147.672C104.022 148.209 104.168 148.841 104.168 149.566C104.168 150.292 104.022 150.927 103.729 151.474C103.447 152.02 103.037 152.44 102.5 152.732C101.972 153.024 101.355 153.17 100.649 153.17ZM100.635 151.799C101.209 151.799 101.647 151.61 101.949 151.234C102.25 150.857 102.401 150.301 102.401 149.566C102.401 148.841 102.25 148.29 101.949 147.913C101.647 147.526 101.214 147.333 100.649 147.333C100.083 147.333 99.6454 147.526 99.3345 147.913C99.033 148.29 98.8823 148.841 98.8823 149.566C98.8823 150.301 99.033 150.857 99.3345 151.234C99.636 151.61 100.069 151.799 100.635 151.799ZM113.038 146.005C113.283 145.986 113.476 146.038 113.617 146.16C113.759 146.283 113.829 146.467 113.829 146.711C113.829 146.966 113.768 147.154 113.645 147.277C113.523 147.399 113.302 147.479 112.981 147.517L112.557 147.559C112.001 147.616 111.592 147.804 111.328 148.125C111.073 148.445 110.946 148.845 110.946 149.326V152.294C110.946 152.567 110.861 152.779 110.692 152.929C110.522 153.071 110.31 153.141 110.056 153.141C109.802 153.141 109.59 153.071 109.42 152.929C109.26 152.779 109.18 152.567 109.18 152.294V146.825C109.18 146.561 109.26 146.358 109.42 146.217C109.59 146.076 109.797 146.005 110.042 146.005C110.287 146.005 110.485 146.076 110.635 146.217C110.786 146.349 110.861 146.542 110.861 146.796V147.362C111.04 146.947 111.304 146.627 111.653 146.401C112.011 146.174 112.407 146.047 112.84 146.019L113.038 146.005ZM119.779 151.163C119.939 151.163 120.067 151.224 120.161 151.347C120.264 151.469 120.316 151.634 120.316 151.841C120.316 152.133 120.142 152.378 119.793 152.576C119.473 152.755 119.11 152.901 118.705 153.014C118.3 153.118 117.914 153.17 117.546 153.17C116.435 153.17 115.554 152.849 114.904 152.209C114.254 151.568 113.929 150.692 113.929 149.58C113.929 148.874 114.07 148.247 114.353 147.701C114.635 147.154 115.031 146.73 115.54 146.429C116.058 146.127 116.642 145.977 117.292 145.977C117.914 145.977 118.456 146.113 118.917 146.386C119.379 146.66 119.737 147.046 119.991 147.545C120.246 148.045 120.373 148.633 120.373 149.312C120.373 149.717 120.194 149.919 119.836 149.919H115.667C115.723 150.569 115.907 151.05 116.218 151.361C116.529 151.662 116.981 151.813 117.575 151.813C117.876 151.813 118.14 151.775 118.366 151.7C118.602 151.625 118.865 151.521 119.158 151.389C119.44 151.238 119.647 151.163 119.779 151.163ZM117.335 147.22C116.854 147.22 116.468 147.371 116.176 147.672C115.893 147.974 115.723 148.407 115.667 148.973H118.861C118.842 148.398 118.701 147.964 118.437 147.672C118.173 147.371 117.806 147.22 117.335 147.22ZM124.743 153.17C124.055 153.17 123.448 153.024 122.92 152.732C122.402 152.44 122.002 152.025 121.719 151.488C121.436 150.951 121.295 150.324 121.295 149.608C121.295 148.892 121.441 148.261 121.733 147.715C122.034 147.159 122.454 146.73 122.991 146.429C123.528 146.127 124.145 145.977 124.842 145.977C125.209 145.977 125.577 146.028 125.944 146.132C126.321 146.236 126.651 146.377 126.934 146.556C127.235 146.754 127.386 147.004 127.386 147.305C127.386 147.512 127.334 147.682 127.23 147.814C127.136 147.936 127.009 147.997 126.849 147.997C126.745 147.997 126.637 147.974 126.524 147.927C126.411 147.88 126.298 147.823 126.185 147.757C125.977 147.635 125.779 147.541 125.591 147.475C125.403 147.399 125.186 147.362 124.941 147.362C124.357 147.362 123.905 147.555 123.584 147.941C123.273 148.318 123.118 148.864 123.118 149.58C123.118 150.287 123.273 150.833 123.584 151.22C123.905 151.596 124.357 151.785 124.941 151.785C125.176 151.785 125.384 151.752 125.563 151.686C125.751 151.61 125.958 151.512 126.185 151.389C126.326 151.304 126.448 151.243 126.552 151.205C126.656 151.158 126.759 151.135 126.863 151.135C127.014 151.135 127.141 151.201 127.244 151.333C127.348 151.464 127.4 151.629 127.4 151.827C127.4 151.987 127.362 152.129 127.287 152.251C127.221 152.364 127.108 152.468 126.948 152.562C126.656 152.75 126.316 152.901 125.93 153.014C125.544 153.118 125.148 153.17 124.743 153.17ZM131.587 153.17C130.88 153.17 130.258 153.024 129.721 152.732C129.194 152.44 128.784 152.02 128.492 151.474C128.2 150.927 128.054 150.292 128.054 149.566C128.054 148.841 128.2 148.209 128.492 147.672C128.784 147.126 129.194 146.707 129.721 146.415C130.258 146.123 130.88 145.977 131.587 145.977C132.293 145.977 132.911 146.123 133.438 146.415C133.975 146.707 134.385 147.126 134.668 147.672C134.96 148.209 135.106 148.841 135.106 149.566C135.106 150.292 134.96 150.927 134.668 151.474C134.385 152.02 133.975 152.44 133.438 152.732C132.911 153.024 132.293 153.17 131.587 153.17ZM131.573 151.799C132.147 151.799 132.585 151.61 132.887 151.234C133.188 150.857 133.339 150.301 133.339 149.566C133.339 148.841 133.188 148.29 132.887 147.913C132.585 147.526 132.152 147.333 131.587 147.333C131.022 147.333 130.583 147.526 130.273 147.913C129.971 148.29 129.82 148.841 129.82 149.566C129.82 150.301 129.971 150.857 130.273 151.234C130.574 151.61 131.007 151.799 131.573 151.799ZM140.281 146.005C140.526 145.986 140.719 146.038 140.86 146.16C141.001 146.283 141.072 146.467 141.072 146.711C141.072 146.966 141.011 147.154 140.888 147.277C140.766 147.399 140.544 147.479 140.224 147.517L139.8 147.559C139.244 147.616 138.834 147.804 138.571 148.125C138.316 148.445 138.189 148.845 138.189 149.326V152.294C138.189 152.567 138.104 152.779 137.935 152.929C137.765 153.071 137.553 153.141 137.299 153.141C137.044 153.141 136.832 153.071 136.663 152.929C136.503 152.779 136.423 152.567 136.423 152.294V146.825C136.423 146.561 136.503 146.358 136.663 146.217C136.832 146.076 137.04 146.005 137.285 146.005C137.53 146.005 137.728 146.076 137.878 146.217C138.029 146.349 138.104 146.542 138.104 146.796V147.362C138.283 146.947 138.547 146.627 138.896 146.401C139.254 146.174 139.649 146.047 140.083 146.019L140.281 146.005ZM147.319 143.023C147.583 143.023 147.799 143.098 147.969 143.249C148.139 143.4 148.223 143.598 148.223 143.843V152.294C148.223 152.548 148.143 152.75 147.983 152.901C147.823 153.052 147.611 153.127 147.347 153.127C147.083 153.127 146.871 153.052 146.711 152.901C146.551 152.75 146.471 152.548 146.471 152.294V151.94C146.264 152.326 145.962 152.628 145.567 152.845C145.18 153.061 144.738 153.17 144.238 153.17C143.645 153.17 143.112 153.019 142.641 152.717C142.18 152.416 141.817 151.992 141.553 151.446C141.299 150.89 141.172 150.254 141.172 149.538C141.172 148.822 141.299 148.195 141.553 147.658C141.817 147.121 142.18 146.707 142.641 146.415C143.103 146.123 143.635 145.977 144.238 145.977C144.738 145.977 145.18 146.08 145.567 146.288C145.953 146.495 146.25 146.787 146.457 147.164V143.814C146.457 143.579 146.532 143.391 146.683 143.249C146.843 143.098 147.055 143.023 147.319 143.023ZM144.705 151.799C145.27 151.799 145.703 151.606 146.005 151.22C146.316 150.833 146.471 150.282 146.471 149.566C146.471 148.85 146.316 148.304 146.005 147.927C145.703 147.541 145.275 147.347 144.719 147.347C144.153 147.347 143.715 147.536 143.404 147.913C143.094 148.29 142.938 148.831 142.938 149.538C142.938 150.254 143.094 150.81 143.404 151.205C143.715 151.601 144.149 151.799 144.705 151.799Z" fill="white"/>
<path opacity="0.1" d="M32.0115 235.84L31.6572 239.528C31.6432 239.676 31.6691 239.824 31.7322 239.958C31.7952 240.093 31.8932 240.208 32.0158 240.291C32.1384 240.375 32.2811 240.424 32.4292 240.433C32.5772 240.443 32.7251 240.412 32.8574 240.345L35.9304 238.778C36.0545 238.715 36.1607 238.621 36.239 238.506C36.3174 238.391 36.3654 238.258 36.3785 238.119C36.3917 237.981 36.3696 237.841 36.3143 237.713C36.259 237.585 36.1723 237.473 36.0623 237.388L33.3454 235.265C33.2282 235.174 33.0888 235.116 32.9416 235.097C32.7944 235.079 32.6449 235.1 32.5086 235.158C32.3723 235.217 32.2543 235.311 32.1669 235.431C32.0794 235.551 32.0258 235.692 32.0115 235.84Z" fill="#6C63FF"/>
<path opacity="0.1" d="M11.0981 196.094L10.7439 199.783C10.7298 199.93 10.7557 200.079 10.8188 200.213C10.8818 200.347 10.9798 200.462 11.1024 200.546C11.225 200.629 11.3677 200.678 11.5158 200.688C11.6638 200.697 11.8117 200.667 11.944 200.6L15.017 199.033C15.1411 198.97 15.2473 198.876 15.3257 198.761C15.404 198.646 15.452 198.513 15.4651 198.374C15.4783 198.235 15.4562 198.096 15.4009 197.968C15.3456 197.84 15.2589 197.728 15.1489 197.643L12.432 195.52C12.3149 195.429 12.1754 195.371 12.0282 195.352C11.881 195.333 11.7315 195.354 11.5952 195.413C11.4589 195.472 11.3409 195.566 11.2535 195.686C11.166 195.806 11.1124 195.947 11.0981 196.094Z" fill="#6C63FF"/>
<path opacity="0.1" d="M54.7469 128.463L61.8518 139.598C61.9318 139.722 62.0439 139.823 62.1763 139.89C62.3087 139.957 62.4566 139.987 62.6046 139.977C62.7526 139.967 62.8952 139.918 63.0177 139.834C63.1401 139.751 63.2378 139.636 63.3007 139.501L68.4819 128.363C68.5405 128.237 68.5663 128.098 68.5569 127.959C68.5474 127.82 68.5031 127.685 68.428 127.568C68.3529 127.451 68.2494 127.354 68.1271 127.287C68.0048 127.221 67.8676 127.186 67.7283 127.186H55.4421C55.2931 127.186 55.1469 127.226 55.0187 127.302C54.8906 127.378 54.7854 127.487 54.7142 127.618C54.643 127.748 54.6084 127.896 54.6142 128.045C54.6199 128.194 54.6658 128.338 54.7469 128.463Z" fill="#6C63FF"/>
<path opacity="0.1" d="M47.3217 185.892L43.7796 186.989C43.6377 187.032 43.5101 187.113 43.4104 187.223C43.3106 187.333 43.2423 187.468 43.2126 187.614C43.1829 187.759 43.1929 187.91 43.2417 188.05C43.2904 188.191 43.376 188.315 43.4895 188.411L46.1272 190.641C46.2336 190.731 46.3608 190.792 46.4972 190.82C46.6336 190.847 46.7747 190.84 46.9076 190.799C47.0405 190.758 47.1609 190.684 47.2576 190.584C47.3543 190.484 47.4243 190.361 47.4611 190.227L48.3655 186.898C48.4036 186.755 48.4027 186.605 48.363 186.462C48.3233 186.32 48.2462 186.191 48.1398 186.088C48.0333 185.986 47.9013 185.913 47.7574 185.879C47.6136 185.844 47.4631 185.849 47.3217 185.892Z" fill="#6C63FF"/>
<path opacity="0.1" d="M202.194 197.948L198.652 199.044C198.51 199.088 198.383 199.169 198.283 199.279C198.183 199.389 198.115 199.524 198.085 199.669C198.056 199.815 198.066 199.965 198.114 200.106C198.163 200.246 198.249 200.371 198.362 200.466L201 202.697C201.106 202.786 201.233 202.848 201.37 202.875C201.506 202.903 201.647 202.896 201.78 202.854C201.913 202.813 202.033 202.739 202.13 202.639C202.227 202.539 202.297 202.416 202.334 202.282L203.238 198.954C203.276 198.811 203.275 198.66 203.236 198.518C203.196 198.375 203.119 198.246 203.012 198.144C202.906 198.041 202.774 197.969 202.63 197.934C202.486 197.9 202.336 197.905 202.194 197.948Z" fill="#6C63FF"/>
<path opacity="0.1" d="M147.961 94.4367L144.419 95.533C144.277 95.5767 144.15 95.6578 144.05 95.7678C143.95 95.8778 143.882 96.0126 143.852 96.1581C143.822 96.3035 143.832 96.4543 143.881 96.5946C143.93 96.7348 144.015 96.8594 144.129 96.9552L146.767 99.1854C146.873 99.2751 147 99.3366 147.137 99.3642C147.273 99.3918 147.414 99.3846 147.547 99.3433C147.68 99.3021 147.8 99.228 147.897 99.128C147.994 99.028 148.064 98.9052 148.101 98.771L149.005 95.4426C149.043 95.2997 149.042 95.1492 149.002 95.0068C148.963 94.8643 148.886 94.7351 148.779 94.6325C148.673 94.5298 148.541 94.4576 148.397 94.4232C148.253 94.3887 148.103 94.3934 147.961 94.4367Z" fill="#6C63FF"/>
<path opacity="0.1" d="M172.268 360.114L168.726 361.21C168.584 361.254 168.456 361.335 168.356 361.445C168.257 361.555 168.188 361.69 168.159 361.835C168.129 361.981 168.139 362.132 168.188 362.272C168.236 362.412 168.322 362.537 168.436 362.633L171.073 364.863C171.18 364.953 171.307 365.014 171.443 365.042C171.58 365.069 171.721 365.062 171.854 365.021C171.987 364.979 172.107 364.905 172.204 364.805C172.3 364.705 172.37 364.583 172.407 364.448L173.312 361.12C173.35 360.977 173.349 360.827 173.309 360.684C173.269 360.542 173.192 360.412 173.086 360.31C172.979 360.207 172.847 360.135 172.704 360.101C172.56 360.066 172.409 360.071 172.268 360.114Z" fill="#6C63FF"/>
<path opacity="0.1" d="M108.392 390.639L104.85 391.735C104.708 391.779 104.581 391.86 104.481 391.97C104.381 392.08 104.313 392.214 104.283 392.36C104.253 392.505 104.263 392.656 104.312 392.796C104.361 392.937 104.446 393.061 104.56 393.157L107.198 395.387C107.304 395.477 107.431 395.539 107.568 395.566C107.704 395.594 107.845 395.587 107.978 395.545C108.111 395.504 108.231 395.43 108.328 395.33C108.425 395.23 108.495 395.107 108.532 394.973L109.436 391.644C109.474 391.502 109.473 391.351 109.433 391.209C109.394 391.066 109.317 390.937 109.21 390.834C109.104 390.732 108.972 390.659 108.828 390.625C108.684 390.591 108.534 390.595 108.392 390.639Z" fill="#6C63FF"/>
<path opacity="0.1" d="M44.5166 87.0882L40.9745 88.1845C40.8325 88.2282 40.705 88.3093 40.6052 88.4193C40.5054 88.5293 40.4371 88.6641 40.4075 88.8095C40.3778 88.955 40.3878 89.1058 40.4365 89.2461C40.4852 89.3863 40.5708 89.5109 40.6843 89.6067L43.3221 91.8369C43.4284 91.9266 43.5557 91.9881 43.6921 92.0157C43.8285 92.0433 43.9696 92.0361 44.1025 91.9948C44.2354 91.9535 44.3557 91.8795 44.4525 91.7795C44.5492 91.6795 44.6192 91.5567 44.656 91.4225L45.5604 88.0941C45.5984 87.9512 45.5976 87.8007 45.5579 87.6583C45.5182 87.5158 45.4411 87.3866 45.3346 87.284C45.2281 87.1813 45.0961 87.1091 44.9523 87.0746C44.8084 87.0402 44.658 87.0449 44.5166 87.0882Z" fill="#6C63FF"/>
<path opacity="0.1" d="M20.3989 279.993L20.0447 283.681C20.0307 283.829 20.0566 283.977 20.1197 284.112C20.1827 284.246 20.2807 284.361 20.4033 284.444C20.5259 284.528 20.6686 284.577 20.8167 284.586C20.9647 284.596 21.1126 284.566 21.2449 284.499L24.3179 282.931C24.442 282.868 24.5482 282.775 24.6265 282.66C24.7049 282.544 24.7528 282.411 24.766 282.273C24.7792 282.134 24.7571 281.994 24.7018 281.866C24.6465 281.738 24.5598 281.627 24.4497 281.541L21.7329 279.418C21.6157 279.327 21.4763 279.269 21.3291 279.251C21.1819 279.232 21.0324 279.253 20.8961 279.312C20.7598 279.37 20.6418 279.464 20.5544 279.584C20.4669 279.704 20.4132 279.845 20.3989 279.993Z" fill="#6C63FF"/>
<path opacity="0.1" d="M54.8805 331.998L54.5262 335.686C54.5122 335.834 54.5381 335.982 54.6012 336.117C54.6642 336.251 54.7622 336.366 54.8848 336.449C55.0074 336.533 55.1501 336.582 55.2982 336.591C55.4462 336.601 55.5941 336.571 55.7264 336.503L58.7994 334.936C58.9235 334.873 59.0297 334.78 59.108 334.664C59.1864 334.549 59.2344 334.416 59.2475 334.277C59.2607 334.139 59.2386 333.999 59.1833 333.871C59.128 333.743 59.0413 333.632 58.9313 333.546L56.2144 331.423C56.0972 331.332 55.9578 331.274 55.8106 331.255C55.6634 331.237 55.5139 331.258 55.3776 331.316C55.2413 331.375 55.1233 331.469 55.0359 331.589C54.9484 331.709 54.8947 331.85 54.8805 331.998Z" fill="#6C63FF"/>
<path opacity="0.1" d="M39.0529 381.742L38.6987 385.43C38.6847 385.578 38.7106 385.726 38.7736 385.86C38.8367 385.995 38.9346 386.11 39.0572 386.193C39.1798 386.277 39.3226 386.326 39.4706 386.335C39.6187 386.345 39.7665 386.314 39.8989 386.247L42.9718 384.68C43.096 384.617 43.2021 384.523 43.2805 384.408C43.3588 384.293 43.4068 384.16 43.42 384.021C43.4331 383.883 43.411 383.743 43.3557 383.615C43.3005 383.487 43.2138 383.375 43.1037 383.29L40.3868 381.167C40.2697 381.076 40.1302 381.018 39.9831 380.999C39.8359 380.981 39.6863 381.002 39.5501 381.06C39.4138 381.119 39.2958 381.213 39.2083 381.333C39.1209 381.453 39.0672 381.594 39.0529 381.742Z" fill="#6C63FF"/>
<path opacity="0.1" d="M89.7026 77.5888L96.8076 88.7231C96.8876 88.848 96.9997 88.949 97.1321 89.0158C97.2645 89.0826 97.4124 89.1127 97.5604 89.1029C97.7084 89.0931 97.851 89.0438 97.9734 88.9601C98.0959 88.8764 98.1936 88.7614 98.2564 88.6271L103.438 77.4889C103.496 77.3625 103.522 77.2234 103.513 77.0844C103.503 76.9454 103.459 76.811 103.384 76.6937C103.309 76.5763 103.205 76.4798 103.083 76.413C102.961 76.3463 102.823 76.3114 102.684 76.3116H90.3979C90.2489 76.3114 90.1026 76.3514 89.9745 76.4273C89.8464 76.5033 89.7412 76.6125 89.6699 76.7433C89.5987 76.8741 89.5642 77.0217 89.5699 77.1705C89.5757 77.3193 89.6215 77.4638 89.7026 77.5888Z" fill="#6C63FF"/>
<path opacity="0.1" d="M82.3541 350.615L89.4591 361.749C89.5391 361.874 89.6511 361.975 89.7836 362.042C89.916 362.109 90.0639 362.139 90.2119 362.129C90.3598 362.119 90.5025 362.07 90.6249 361.986C90.7473 361.902 90.8451 361.787 90.9079 361.653L96.0892 350.515C96.1478 350.388 96.1735 350.249 96.1641 350.11C96.1547 349.971 96.1104 349.837 96.0353 349.72C95.9601 349.602 95.8567 349.506 95.7344 349.439C95.6121 349.372 95.4749 349.337 95.3355 349.338H83.0494C82.9004 349.337 82.7541 349.377 82.626 349.453C82.4979 349.529 82.3926 349.638 82.3214 349.769C82.2502 349.9 82.2157 350.048 82.2214 350.196C82.2272 350.345 82.273 350.49 82.3541 350.615Z" fill="#6C63FF"/>
<path opacity="0.1" d="M54.6559 48.1947L61.7608 59.3291C61.8408 59.4539 61.9529 59.555 62.0853 59.6218C62.2177 59.6886 62.3656 59.7187 62.5136 59.7088C62.6616 59.699 62.8042 59.6497 62.9266 59.566C63.0491 59.4823 63.1468 59.3673 63.2096 59.233L68.3909 48.0949C68.4495 47.9685 68.4753 47.8294 68.4658 47.6904C68.4564 47.5514 68.4121 47.417 68.337 47.2996C68.2619 47.1823 68.1584 47.0858 68.0361 47.019C67.9138 46.9522 67.7766 46.9174 67.6373 46.9176H55.3511C55.2021 46.9173 55.0559 46.9573 54.9277 47.0333C54.7996 47.1093 54.6944 47.2184 54.6232 47.3492C54.552 47.48 54.5174 47.6277 54.5232 47.7765C54.5289 47.9253 54.5748 48.0698 54.6559 48.1947Z" fill="#6C63FF"/>
<path opacity="0.1" d="M164.318 61.1959L171.423 72.3303C171.503 72.4551 171.615 72.5562 171.748 72.623C171.88 72.6898 172.028 72.7199 172.176 72.7101C172.324 72.7003 172.467 72.6509 172.589 72.5672C172.712 72.4835 172.809 72.3685 172.872 72.2342L178.053 61.0961C178.112 60.9697 178.138 60.8306 178.128 60.6916C178.119 60.5526 178.075 60.4182 178 60.3009C177.924 60.1835 177.821 60.087 177.699 60.0202C177.576 59.9535 177.439 59.9186 177.3 59.9188H165.014C164.865 59.9186 164.718 59.9585 164.59 60.0345C164.462 60.1105 164.357 60.2196 164.286 60.3505C164.215 60.4813 164.18 60.6289 164.186 60.7777C164.191 60.9265 164.237 61.071 164.318 61.1959Z" fill="#6C63FF"/>
<path opacity="0.1" d="M128.706 413.36L135.811 424.494C135.891 424.619 136.003 424.72 136.136 424.787C136.268 424.854 136.416 424.884 136.564 424.874C136.712 424.864 136.855 424.815 136.977 424.731C137.1 424.647 137.197 424.532 137.26 424.398L142.441 413.26C142.5 413.133 142.526 412.994 142.516 412.855C142.507 412.716 142.463 412.582 142.388 412.465C142.312 412.347 142.209 412.251 142.087 412.184C141.964 412.117 141.827 412.082 141.688 412.083H129.402C129.253 412.082 129.106 412.122 128.978 412.198C128.85 412.274 128.745 412.383 128.674 412.514C128.602 412.645 128.568 412.793 128.574 412.941C128.579 413.09 128.625 413.235 128.706 413.36Z" fill="#6C63FF"/>
<circle cx="31.6551" cy="37.3079" r="8.47906" fill="white"/>
<circle cx="185.974" cy="37.3079" r="8.47906" fill="white"/>
<g clip-path="url(#clip1)">
<path d="M186.785 41.2647C186.738 41.2647 186.693 41.2463 186.66 41.2131C186.618 41.1714 186.599 41.1114 186.611 41.0538L186.861 39.8049C186.868 39.7703 186.884 39.7388 186.909 39.7144L189.657 36.9665C189.864 36.7602 190.2 36.7602 190.407 36.9665L190.906 37.4661C191.113 37.6727 191.113 38.0087 190.906 38.2154L188.158 40.9633C188.134 40.9881 188.102 41.0047 188.068 41.0117L186.819 41.2615C186.808 41.2636 186.796 41.2647 186.785 41.2647ZM187.197 39.9261L187.01 40.8626L187.947 40.6754L190.657 37.9653C190.726 37.8964 190.726 37.7844 190.657 37.7155L190.157 37.2159C190.088 37.147 189.976 37.147 189.907 37.2159L187.197 39.9261ZM188.033 40.8383H188.037H188.033Z" fill="#2639A1"/>
<path d="M185.939 40.2049H183.466C182.979 40.2049 182.583 39.8088 182.583 39.3216V34.7288C182.583 34.2416 182.979 33.8456 183.466 33.8456H184.172C184.27 33.8456 184.349 33.9247 184.349 34.0222C184.349 34.1197 184.27 34.1989 184.172 34.1989H183.466C183.174 34.1989 182.936 34.4366 182.936 34.7288V39.3216C182.936 39.6138 183.174 39.8516 183.466 39.8516H185.939C186.036 39.8516 186.115 39.9307 186.115 40.0282C186.115 40.1257 186.036 40.2049 185.939 40.2049Z" fill="#2639A1"/>
<path d="M188.412 37.0252C188.314 37.0252 188.235 36.9461 188.235 36.8486V34.7288C188.235 34.4366 187.997 34.1989 187.705 34.1989H186.999C186.901 34.1989 186.822 34.1197 186.822 34.0222C186.822 33.9247 186.901 33.8456 186.999 33.8456H187.705C188.193 33.8456 188.589 34.2416 188.589 34.7288V36.8486C188.589 36.9461 188.509 37.0252 188.412 37.0252Z" fill="#2639A1"/>
<path d="M186.645 34.9055H184.526C184.233 34.9055 183.996 34.6678 183.996 34.3756V33.669C183.996 33.5715 184.075 33.4924 184.172 33.4924H184.72C184.802 33.0896 185.159 32.7858 185.586 32.7858C186.012 32.7858 186.369 33.0896 186.451 33.4924H186.999C187.096 33.4924 187.175 33.5715 187.175 33.669V34.3756C187.175 34.6678 186.938 34.9055 186.645 34.9055ZM184.349 33.8456V34.3756C184.349 34.4727 184.428 34.5522 184.526 34.5522H186.645C186.743 34.5522 186.822 34.4727 186.822 34.3756V33.8456H186.292C186.195 33.8456 186.115 33.7665 186.115 33.669C186.115 33.3768 185.878 33.1391 185.586 33.1391C185.293 33.1391 185.056 33.3768 185.056 33.669C185.056 33.7665 184.976 33.8456 184.879 33.8456H184.349Z" fill="#2639A1"/>
<path d="M187.352 35.9654H183.819C183.722 35.9654 183.642 35.8862 183.642 35.7887C183.642 35.6912 183.722 35.6121 183.819 35.6121H187.352C187.45 35.6121 187.529 35.6912 187.529 35.7887C187.529 35.8862 187.45 35.9654 187.352 35.9654Z" fill="#2639A1"/>
<path d="M187.352 37.0252H183.819C183.722 37.0252 183.642 36.946 183.642 36.8485C183.642 36.751 183.722 36.6719 183.819 36.6719H187.352C187.45 36.6719 187.529 36.751 187.529 36.8485C187.529 36.946 187.45 37.0252 187.352 37.0252Z" fill="#2639A1"/>
<path d="M187.352 38.0852H183.819C183.722 38.0852 183.642 38.0061 183.642 37.9086C183.642 37.8111 183.722 37.7319 183.819 37.7319H187.352C187.45 37.7319 187.529 37.8111 187.529 37.9086C187.529 38.0061 187.45 38.0852 187.352 38.0852Z" fill="#2639A1"/>
</g>
<g clip-path="url(#clip2)">
<path d="M33.6469 36.4491V35.392C33.6469 35.2136 33.5017 35.0685 33.3233 35.0685C33.1449 35.0685 32.9998 35.2136 32.9998 35.392V35.9832H32.7225V34.701C32.7225 33.9566 32.1168 33.351 31.3724 33.351C31.1518 33.351 30.9329 33.4054 30.7393 33.5084C30.6867 33.5363 30.6667 33.6016 30.6947 33.6542C30.7227 33.7068 30.7879 33.7268 30.8406 33.6988C31.0031 33.6124 31.187 33.5667 31.3724 33.5667C31.9592 33.5667 32.4433 34.0145 32.501 34.5863H32.1841C32.1245 34.5863 32.0762 34.6346 32.0762 34.6942C32.0762 34.7537 32.1245 34.802 32.1841 34.802H32.5067V35.1451H32.1841C32.1245 35.1451 32.0762 35.1933 32.0762 35.2529C32.0762 35.3125 32.1245 35.3608 32.1841 35.3608H32.5067V35.7038H32.1841C32.1245 35.7038 32.0762 35.7521 32.0762 35.8117C32.0762 35.8713 32.1245 35.9195 32.1841 35.9195H32.5067V36.2626H32.1841C32.1245 36.2626 32.0762 36.3108 32.0762 36.3704C32.0762 36.43 32.1245 36.4783 32.1841 36.4783H32.501C32.4433 37.0501 31.9592 37.4979 31.3724 37.4979C30.7857 37.4979 30.3016 37.0501 30.2439 36.4783H30.5608C30.6203 36.4783 30.6686 36.43 30.6686 36.3704C30.6686 36.3108 30.6203 36.2626 30.5608 36.2626H30.2381V35.9195H30.5608C30.6203 35.9195 30.6686 35.8713 30.6686 35.8117C30.6686 35.7521 30.6203 35.7038 30.5608 35.7038H30.2381V35.3607H30.5608C30.6203 35.3607 30.6686 35.3125 30.6686 35.2529C30.6686 35.1933 30.6203 35.145 30.5608 35.145H30.2381V34.802H30.5608C30.6203 34.802 30.6686 34.7537 30.6686 34.6941C30.6686 34.6346 30.6203 34.5863 30.5608 34.5863H30.2441C30.2682 34.3472 30.3674 34.1217 30.5296 33.9418C30.5695 33.8975 30.566 33.8293 30.5217 33.7894C30.4775 33.7495 30.4093 33.7531 30.3694 33.7973C30.1456 34.0456 30.0224 34.3665 30.0224 34.701V35.9831H29.7451V35.392C29.7451 35.2136 29.6 35.0684 29.4215 35.0684C29.2431 35.0684 29.098 35.2136 29.098 35.392V36.449C29.098 37.5703 29.9135 38.5045 30.9826 38.6899V39.9991H30.0072C29.8141 39.9991 29.657 40.1562 29.657 40.3493C29.657 40.5424 29.8141 40.6994 30.0072 40.6994H30.4865C30.5461 40.6994 30.5943 40.6512 30.5943 40.5916C30.5943 40.532 30.5461 40.4837 30.4865 40.4837H30.0072C29.9331 40.4837 29.8727 40.4234 29.8727 40.3493C29.8727 40.2751 29.9331 40.2148 30.0072 40.2148H32.7376C32.8118 40.2148 32.8721 40.2751 32.8721 40.3493C32.8721 40.4234 32.8118 40.4837 32.7376 40.4837H30.9179C30.8583 40.4837 30.8101 40.532 30.8101 40.5916C30.8101 40.6512 30.8583 40.6994 30.9179 40.6994H32.7376C32.9307 40.6994 33.0878 40.5424 33.0878 40.3493C33.0878 40.1562 32.9307 39.9991 32.7376 39.9991H31.7623V38.6899C32.8313 38.5045 33.6469 37.5703 33.6469 36.4491ZM29.3137 36.4491V35.392C29.3137 35.3325 29.3621 35.2842 29.4216 35.2842C29.481 35.2842 29.5294 35.3325 29.5294 35.392V36.4491C29.5294 37.4653 30.3562 38.2921 31.3724 38.2921C31.7471 38.2921 32.1079 38.1799 32.4159 37.9675C32.465 37.9337 32.4773 37.8666 32.4435 37.8175C32.4098 37.7685 32.3426 37.7561 32.2935 37.7899C32.0217 37.9773 31.7031 38.0764 31.3724 38.0764C30.4751 38.0764 29.7451 37.3464 29.7451 36.449V36.1988H30.0224V36.3635C30.0224 37.1079 30.628 37.7136 31.3724 37.7136C32.1169 37.7136 32.7225 37.1079 32.7225 36.3635V36.1988H32.9998V36.449C32.9998 36.8431 32.8565 37.2236 32.5963 37.5204C32.557 37.5652 32.5615 37.6333 32.6063 37.6726C32.6511 37.7119 32.7193 37.7074 32.7585 37.6626C33.0532 37.3264 33.2155 36.8955 33.2155 36.449V35.392C33.2155 35.3325 33.2639 35.2841 33.3233 35.2841C33.3828 35.2841 33.4312 35.3325 33.4312 35.392V36.449C33.4312 37.5842 32.5077 38.5078 31.3725 38.5078C30.2373 38.5078 29.3137 37.5842 29.3137 36.4491ZM31.5466 39.9991H31.1983V38.7169C31.2558 38.7213 31.3139 38.7235 31.3724 38.7235C31.431 38.7235 31.4891 38.7213 31.5466 38.7169V39.9991Z" fill="#2639A1"/>
</g>
<circle cx="99.7703" cy="29.1115" r="1.97845" fill="white" fill-opacity="0.42"/>
<circle cx="106.554" cy="29.1115" r="1.97845" fill="white"/>
<circle cx="113.337" cy="29.1115" r="1.97845" fill="white" fill-opacity="0.42"/>
<path d="M21.8863 53.6863C21.9202 53.7353 21.9372 53.7881 21.9372 53.8446C21.9372 53.9124 21.9089 53.9708 21.8524 54.0198C21.7996 54.0651 21.7374 54.0877 21.6658 54.0877C21.5603 54.0877 21.4755 54.0406 21.4115 53.9463L20.654 52.7706C20.5673 52.6349 20.475 52.5407 20.377 52.4879C20.279 52.4314 20.1509 52.4032 19.9926 52.4032H19.3539V53.7824C19.3539 53.8729 19.3275 53.9445 19.2747 53.9972C19.2258 54.05 19.156 54.0764 19.0656 54.0764C18.9789 54.0764 18.9092 54.05 18.8564 53.9972C18.8037 53.9445 18.7773 53.8729 18.7773 53.7824V50.3456C18.7773 50.2589 18.8018 50.1911 18.8508 50.1421C18.9036 50.0893 18.9752 50.0629 19.0656 50.0629H20.4731C20.914 50.0629 21.2494 50.1609 21.4793 50.3569C21.7129 50.5528 21.8298 50.8392 21.8298 51.2161C21.8298 51.5289 21.7412 51.7832 21.5641 51.9792C21.387 52.1714 21.1345 52.2939 20.8066 52.3466C20.9046 52.373 20.9932 52.4201 21.0723 52.4879C21.1514 52.5558 21.2287 52.65 21.3041 52.7706L21.8863 53.6863ZM20.4053 51.934C20.6992 51.934 20.9159 51.8775 21.0553 51.7644C21.1986 51.6476 21.2702 51.4686 21.2702 51.2274C21.2702 50.9862 21.2004 50.811 21.061 50.7017C20.9216 50.5886 20.703 50.5321 20.4053 50.5321H19.3482V51.934H20.4053ZM24.7151 53.3528C24.7678 53.3528 24.8112 53.3735 24.8451 53.415C24.879 53.4564 24.896 53.5092 24.896 53.5733C24.896 53.6826 24.8281 53.7749 24.6925 53.8503C24.5606 53.9256 24.4155 53.984 24.2572 54.0255C24.1027 54.0669 23.9538 54.0877 23.8106 54.0877C23.3735 54.0877 23.0287 53.9614 22.7762 53.7089C22.5237 53.4527 22.3975 53.1041 22.3975 52.6632C22.3975 52.3805 22.4521 52.1299 22.5614 51.9114C22.6745 51.6928 22.8308 51.5232 23.0306 51.4026C23.2341 51.282 23.4639 51.2217 23.7202 51.2217C24.0895 51.2217 24.3816 51.3404 24.5964 51.5779C24.8112 51.8153 24.9186 52.1356 24.9186 52.5388C24.9186 52.6896 24.8507 52.7649 24.7151 52.7649H22.9684C23.0061 53.349 23.2868 53.6411 23.8106 53.6411C23.9501 53.6411 24.0707 53.6223 24.1724 53.5846C24.2742 53.5469 24.3816 53.4979 24.4946 53.4376C24.5059 53.4301 24.5361 53.415 24.5851 53.3924C24.6378 53.366 24.6812 53.3528 24.7151 53.3528ZM23.7315 51.64C23.5129 51.64 23.3377 51.7098 23.2058 51.8492C23.0739 51.9886 22.9948 52.1846 22.9684 52.4371H24.4268C24.4155 52.1808 24.3495 51.9849 24.2289 51.8492C24.1121 51.7098 23.9463 51.64 23.7315 51.64ZM26.6726 54.0877C26.405 54.0877 26.1695 54.0293 25.966 53.9124C25.7663 53.7956 25.6099 53.6298 25.4968 53.415C25.3875 53.2002 25.3329 52.9515 25.3329 52.6688C25.3329 52.3824 25.3894 52.1299 25.5025 51.9114C25.6193 51.6928 25.7814 51.5232 25.9886 51.4026C26.1959 51.282 26.4333 51.2217 26.7009 51.2217C26.8441 51.2217 26.9873 51.2425 27.1305 51.2839C27.2774 51.3254 27.4074 51.3819 27.5205 51.4535C27.6411 51.5364 27.7014 51.6325 27.7014 51.7418C27.7014 51.8059 27.6844 51.8605 27.6505 51.9057C27.6166 51.9472 27.5733 51.9679 27.5205 51.9679C27.4866 51.9679 27.4527 51.9604 27.4188 51.9453C27.3848 51.9264 27.3415 51.9001 27.2887 51.8661C27.1945 51.8059 27.106 51.7606 27.0231 51.7305C26.9439 51.6966 26.8478 51.6796 26.7348 51.6796C26.4785 51.6796 26.2788 51.7663 26.1356 51.9396C25.9962 52.113 25.9264 52.3542 25.9264 52.6632C25.9264 52.9722 25.9962 53.2115 26.1356 53.3811C26.275 53.5469 26.4729 53.6298 26.7291 53.6298C26.8422 53.6298 26.942 53.6128 27.0287 53.5789C27.1154 53.545 27.204 53.4998 27.2944 53.4433C27.3358 53.4169 27.3773 53.3943 27.4188 53.3754C27.4602 53.3566 27.4979 53.3472 27.5318 53.3472C27.5846 53.3472 27.6279 53.3698 27.6618 53.415C27.6957 53.4564 27.7127 53.5092 27.7127 53.5733C27.7127 53.626 27.6976 53.675 27.6675 53.7202C27.6411 53.7617 27.594 53.805 27.5262 53.8503C27.4131 53.9256 27.2812 53.984 27.1305 54.0255C26.9797 54.0669 26.8271 54.0877 26.6726 54.0877ZM29.3655 54.0877C29.0942 54.0877 28.8549 54.0293 28.6476 53.9124C28.4441 53.7956 28.2859 53.6298 28.1728 53.415C28.0635 53.1964 28.0089 52.9439 28.0089 52.6575C28.0089 52.3674 28.0635 52.1149 28.1728 51.9001C28.2859 51.6815 28.4441 51.5138 28.6476 51.397C28.8549 51.2802 29.0942 51.2217 29.3655 51.2217C29.6369 51.2217 29.8743 51.2802 30.0778 51.397C30.285 51.5138 30.4433 51.6815 30.5526 51.9001C30.6657 52.1149 30.7222 52.3674 30.7222 52.6575C30.7222 52.9439 30.6657 53.1964 30.5526 53.415C30.4433 53.6298 30.285 53.7956 30.0778 53.9124C29.8743 54.0293 29.6369 54.0877 29.3655 54.0877ZM29.3655 53.6354C29.618 53.6354 29.8102 53.5525 29.9421 53.3867C30.0778 53.2209 30.1456 52.9778 30.1456 52.6575C30.1456 52.341 30.0778 52.0998 29.9421 51.934C29.8065 51.7644 29.6143 51.6796 29.3655 51.6796C29.1168 51.6796 28.9246 51.7644 28.789 51.934C28.6533 52.0998 28.5855 52.341 28.5855 52.6575C28.5855 52.9778 28.6514 53.2209 28.7833 53.3867C28.919 53.5525 29.1131 53.6354 29.3655 53.6354ZM32.7484 51.233C32.9293 51.2217 33.0198 51.299 33.0198 51.4648C33.0198 51.5477 32.999 51.6099 32.9576 51.6513C32.9161 51.6928 32.8445 51.7173 32.7428 51.7248L32.5732 51.7418C32.3358 51.7644 32.1587 51.8473 32.0418 51.9905C31.9288 52.1337 31.8723 52.3071 31.8723 52.5106V53.805C31.8723 53.8955 31.8459 53.9633 31.7931 54.0085C31.7404 54.0537 31.6725 54.0764 31.5896 54.0764C31.5067 54.0764 31.437 54.0537 31.3805 54.0085C31.3277 53.9633 31.3013 53.8955 31.3013 53.805V51.5044C31.3013 51.4177 31.3277 51.3518 31.3805 51.3065C31.437 51.2575 31.5067 51.233 31.5896 51.233C31.665 51.233 31.7272 51.2575 31.7762 51.3065C31.8289 51.3518 31.8553 51.4158 31.8553 51.4987V51.7701C31.9307 51.6042 32.0399 51.478 32.1831 51.3913C32.3264 51.3046 32.4884 51.2538 32.6693 51.2387L32.7484 51.233ZM35.5151 50.0347C35.6018 50.0347 35.6715 50.0592 35.7243 50.1082C35.777 50.1571 35.8034 50.2231 35.8034 50.306V53.7994C35.8034 53.8861 35.777 53.9539 35.7243 54.0029C35.6753 54.0519 35.6074 54.0764 35.5208 54.0764C35.4341 54.0764 35.3644 54.0519 35.3116 54.0029C35.2626 53.9539 35.2381 53.8861 35.2381 53.7994V53.5733C35.1552 53.7391 35.0346 53.8672 34.8764 53.9577C34.7181 54.0443 34.5353 54.0877 34.328 54.0877C34.0906 54.0877 33.8777 54.0274 33.6893 53.9068C33.5046 53.7862 33.3595 53.6166 33.254 53.398C33.1523 53.1795 33.1014 52.9289 33.1014 52.6462C33.1014 52.3598 33.1523 52.1092 33.254 51.8944C33.3595 51.6796 33.5046 51.5138 33.6893 51.397C33.8739 51.2802 34.0869 51.2217 34.328 51.2217C34.5353 51.2217 34.7162 51.267 34.8707 51.3574C35.029 51.4441 35.1496 51.5684 35.2325 51.7305V50.2947C35.2325 50.2156 35.257 50.1534 35.306 50.1082C35.3587 50.0592 35.4284 50.0347 35.5151 50.0347ZM34.4637 53.6354C34.7087 53.6354 34.899 53.5507 35.0346 53.3811C35.1703 53.2115 35.2381 52.9703 35.2381 52.6575C35.2381 52.3447 35.1703 52.1036 35.0346 51.934C34.9027 51.7644 34.7124 51.6796 34.4637 51.6796C34.215 51.6796 34.0209 51.7644 33.8815 51.934C33.7458 52.0998 33.678 52.3372 33.678 52.6462C33.678 52.9552 33.7477 53.1983 33.8871 53.3754C34.0266 53.5488 34.2188 53.6354 34.4637 53.6354ZM36.8312 54.0764C36.7483 54.0764 36.6786 54.0537 36.622 54.0085C36.5693 53.9633 36.5429 53.8955 36.5429 53.805V51.51C36.5429 51.4196 36.5693 51.3518 36.622 51.3065C36.6786 51.2575 36.7483 51.233 36.8312 51.233C36.9141 51.233 36.9819 51.2575 37.0347 51.3065C37.0874 51.3518 37.1138 51.4196 37.1138 51.51V53.805C37.1138 53.8955 37.0874 53.9633 37.0347 54.0085C36.9819 54.0537 36.9141 54.0764 36.8312 54.0764ZM36.8312 50.6791C36.7219 50.6791 36.6352 50.6489 36.5712 50.5886C36.5071 50.5283 36.4751 50.4492 36.4751 50.3512C36.4751 50.2532 36.5071 50.176 36.5712 50.1195C36.6352 50.0592 36.7219 50.029 36.8312 50.029C36.9367 50.029 37.0215 50.0592 37.0855 50.1195C37.1534 50.176 37.1873 50.2532 37.1873 50.3512C37.1873 50.4492 37.1553 50.5283 37.0912 50.5886C37.0271 50.6489 36.9405 50.6791 36.8312 50.6791ZM39.342 51.2217C40.0015 51.2217 40.3313 51.5929 40.3313 52.3353V53.805C40.3313 53.8917 40.3049 53.9595 40.2521 54.0085C40.2031 54.0537 40.1334 54.0764 40.043 54.0764C39.9563 54.0764 39.8866 54.0519 39.8338 54.0029C39.7848 53.9539 39.7603 53.8879 39.7603 53.805V52.3636C39.7603 52.1299 39.7132 51.9585 39.619 51.8492C39.5286 51.7399 39.3854 51.6853 39.1894 51.6853C38.9595 51.6853 38.7749 51.7569 38.6355 51.9001C38.496 52.0433 38.4263 52.2355 38.4263 52.4766V53.805C38.4263 53.8879 38.3999 53.9539 38.3472 54.0029C38.2982 54.0519 38.2303 54.0764 38.1437 54.0764C38.057 54.0764 37.9873 54.0519 37.9345 54.0029C37.8818 53.9539 37.8554 53.8879 37.8554 53.805V51.5044C37.8554 51.4252 37.8818 51.3612 37.9345 51.3122C37.991 51.2594 38.0608 51.233 38.1437 51.233C38.2266 51.233 38.2925 51.2575 38.3415 51.3065C38.3905 51.3555 38.415 51.4196 38.415 51.4987V51.7305C38.5054 51.5647 38.6317 51.4384 38.7937 51.3518C38.9558 51.2651 39.1385 51.2217 39.342 51.2217ZM43.3395 51.233C43.4262 51.233 43.494 51.2594 43.543 51.3122C43.5957 51.3612 43.6221 51.4271 43.6221 51.51V53.8276C43.6221 54.2497 43.5091 54.5681 43.283 54.7829C43.0606 54.9978 42.7309 55.1052 42.2937 55.1052C41.8867 55.1052 41.5476 55.0279 41.2762 54.8734C41.1368 54.7943 41.0671 54.7 41.0671 54.5908C41.0671 54.5267 41.084 54.4739 41.118 54.4325C41.1556 54.391 41.2009 54.3703 41.2536 54.3703C41.3026 54.3703 41.3799 54.3986 41.4854 54.4551C41.6211 54.5192 41.7473 54.5681 41.8641 54.6021C41.9809 54.6397 42.1204 54.6586 42.2824 54.6586C42.8025 54.6586 43.0625 54.3967 43.0625 53.8729V53.4376C42.9834 53.6034 42.8628 53.7334 42.7007 53.8276C42.5387 53.9181 42.3503 53.9633 42.1355 53.9633C41.8943 53.9633 41.6795 53.9068 41.491 53.7937C41.3026 53.6807 41.1556 53.5205 41.0501 53.3132C40.9484 53.106 40.8975 52.8667 40.8975 52.5953C40.8975 52.324 40.9503 52.0847 41.0558 51.8775C41.1613 51.6702 41.3064 51.51 41.491 51.397C41.6795 51.2802 41.8943 51.2217 42.1355 51.2217C42.3465 51.2217 42.5311 51.267 42.6894 51.3574C42.8515 51.4478 42.9739 51.576 43.0568 51.7418V51.5044C43.0568 51.4215 43.0813 51.3555 43.1303 51.3065C43.1831 51.2575 43.2528 51.233 43.3395 51.233ZM42.2711 53.5111C42.5161 53.5111 42.7083 53.4301 42.8477 53.268C42.9871 53.106 43.0568 52.8818 43.0568 52.5953C43.0568 52.3127 42.9871 52.0904 42.8477 51.9283C42.712 51.7625 42.5198 51.6796 42.2711 51.6796C42.0224 51.6796 41.8264 51.7606 41.6832 51.9227C41.5438 52.0847 41.4741 52.3089 41.4741 52.5953C41.4741 52.8818 41.5457 53.106 41.6889 53.268C41.8321 53.4301 42.0262 53.5111 42.2711 53.5111ZM45.322 54.0877C44.9376 54.0877 44.623 54.0085 44.378 53.8503C44.3102 53.8088 44.2612 53.7655 44.2311 53.7202C44.2047 53.675 44.1915 53.6241 44.1915 53.5676C44.1915 53.5073 44.2084 53.4564 44.2424 53.415C44.2763 53.3735 44.3196 53.3528 44.3724 53.3528C44.4214 53.3528 44.4986 53.383 44.6041 53.4433C44.7172 53.5036 44.8265 53.5525 44.932 53.5902C45.0413 53.6279 45.1769 53.6468 45.339 53.6468C45.5199 53.6468 45.6612 53.6147 45.7629 53.5507C45.8647 53.4866 45.9156 53.3961 45.9156 53.2793C45.9156 53.204 45.8948 53.1437 45.8534 53.0984C45.8157 53.0532 45.7479 53.0136 45.6499 52.9797C45.5519 52.942 45.4068 52.9025 45.2146 52.861C44.883 52.7894 44.6437 52.6933 44.4967 52.5727C44.3535 52.4484 44.2819 52.2807 44.2819 52.0696C44.2819 51.9076 44.329 51.7625 44.4233 51.6344C44.5175 51.5025 44.6475 51.4007 44.8133 51.3291C44.9791 51.2575 45.1675 51.2217 45.3786 51.2217C45.5293 51.2217 45.6763 51.2425 45.8195 51.2839C45.9627 51.3216 46.0889 51.3781 46.1982 51.4535C46.3226 51.5364 46.3847 51.6325 46.3847 51.7418C46.3847 51.8021 46.3659 51.853 46.3282 51.8944C46.2943 51.9359 46.2528 51.9566 46.2039 51.9566C46.1699 51.9566 46.136 51.9491 46.1021 51.934C46.0682 51.9189 46.023 51.8944 45.9664 51.8605C45.8647 51.8002 45.7686 51.7531 45.6782 51.7192C45.5915 51.6853 45.4822 51.6683 45.3503 51.6683C45.192 51.6683 45.0639 51.7022 44.9659 51.7701C44.8717 51.8379 44.8246 51.9302 44.8246 52.047C44.8246 52.1526 44.8679 52.2355 44.9546 52.2958C45.045 52.3523 45.2127 52.4069 45.4577 52.4597C45.7102 52.5124 45.908 52.5727 46.0512 52.6406C46.1944 52.7084 46.2962 52.7932 46.3565 52.8949C46.4205 52.9929 46.4526 53.1192 46.4526 53.2737C46.4526 53.5186 46.3489 53.7165 46.1417 53.8672C45.9382 54.0142 45.665 54.0877 45.322 54.0877Z" fill="white"/>
<path d="M182.721 50.2099C182.744 50.1496 182.778 50.1044 182.823 50.0742C182.868 50.0441 182.919 50.029 182.975 50.029C183.047 50.029 183.109 50.0535 183.162 50.1025C183.219 50.1477 183.247 50.208 183.247 50.2834C183.247 50.3248 183.239 50.3625 183.224 50.3964L181.975 53.8898C181.949 53.9539 181.907 54.0029 181.851 54.0368C181.794 54.0707 181.732 54.0877 181.664 54.0877C181.6 54.0877 181.54 54.0707 181.483 54.0368C181.427 54.0029 181.387 53.9539 181.364 53.8898L180.336 50.973L179.284 53.8898C179.262 53.9539 179.222 54.0029 179.166 54.0368C179.109 54.0707 179.049 54.0877 178.985 54.0877C178.917 54.0877 178.855 54.0707 178.798 54.0368C178.745 54.0029 178.706 53.9539 178.679 53.8898L177.43 50.3964C177.415 50.3625 177.408 50.3248 177.408 50.2834C177.408 50.208 177.436 50.1477 177.492 50.1025C177.549 50.0535 177.617 50.029 177.696 50.029C177.752 50.029 177.803 50.0441 177.848 50.0742C177.897 50.1044 177.933 50.1496 177.956 50.2099L179.002 53.2171L180.064 50.2382C180.087 50.1741 180.123 50.1251 180.172 50.0912C180.224 50.0573 180.281 50.0403 180.341 50.0403C180.402 50.0403 180.456 50.0592 180.505 50.0969C180.554 50.1308 180.592 50.1798 180.618 50.2438L181.658 53.2454L182.721 50.2099ZM184.67 54.0877C184.399 54.0877 184.16 54.0293 183.952 53.9124C183.749 53.7956 183.591 53.6298 183.478 53.415C183.368 53.1964 183.314 52.9439 183.314 52.6575C183.314 52.3674 183.368 52.1149 183.478 51.9001C183.591 51.6815 183.749 51.5138 183.952 51.397C184.16 51.2802 184.399 51.2217 184.67 51.2217C184.942 51.2217 185.179 51.2802 185.383 51.397C185.59 51.5138 185.748 51.6815 185.857 51.9001C185.97 52.1149 186.027 52.3674 186.027 52.6575C186.027 52.9439 185.97 53.1964 185.857 53.415C185.748 53.6298 185.59 53.7956 185.383 53.9124C185.179 54.0293 184.942 54.0877 184.67 54.0877ZM184.67 53.6354C184.923 53.6354 185.115 53.5525 185.247 53.3867C185.383 53.2209 185.45 52.9778 185.45 52.6575C185.45 52.341 185.383 52.0998 185.247 51.934C185.111 51.7644 184.919 51.6796 184.67 51.6796C184.422 51.6796 184.229 51.7644 184.094 51.934C183.958 52.0998 183.89 52.341 183.89 52.6575C183.89 52.9778 183.956 53.2209 184.088 53.3867C184.224 53.5525 184.418 53.6354 184.67 53.6354ZM188.053 51.233C188.234 51.2217 188.325 51.299 188.325 51.4648C188.325 51.5477 188.304 51.6099 188.262 51.6513C188.221 51.6928 188.149 51.7173 188.048 51.7248L187.878 51.7418C187.641 51.7644 187.463 51.8473 187.347 51.9905C187.234 52.1337 187.177 52.3071 187.177 52.5106V53.805C187.177 53.8955 187.151 53.9633 187.098 54.0085C187.045 54.0537 186.977 54.0764 186.894 54.0764C186.811 54.0764 186.742 54.0537 186.685 54.0085C186.632 53.9633 186.606 53.8955 186.606 53.805V51.5044C186.606 51.4177 186.632 51.3518 186.685 51.3065C186.742 51.2575 186.811 51.233 186.894 51.233C186.97 51.233 187.032 51.2575 187.081 51.3065C187.134 51.3518 187.16 51.4158 187.16 51.4987V51.7701C187.235 51.6042 187.345 51.478 187.488 51.3913C187.631 51.3046 187.793 51.2538 187.974 51.2387L188.053 51.233ZM190.82 50.0347C190.907 50.0347 190.976 50.0592 191.029 50.1082C191.082 50.1571 191.108 50.2231 191.108 50.306V53.7994C191.108 53.8861 191.082 53.9539 191.029 54.0029C190.98 54.0519 190.912 54.0764 190.826 54.0764C190.739 54.0764 190.669 54.0519 190.616 54.0029C190.567 53.9539 190.543 53.8861 190.543 53.7994V53.5733C190.46 53.7391 190.339 53.8672 190.181 53.9577C190.023 54.0443 189.84 54.0877 189.633 54.0877C189.395 54.0877 189.182 54.0274 188.994 53.9068C188.809 53.7862 188.664 53.6166 188.559 53.398C188.457 53.1795 188.406 52.9289 188.406 52.6462C188.406 52.3598 188.457 52.1092 188.559 51.8944C188.664 51.6796 188.809 51.5138 188.994 51.397C189.179 51.2802 189.392 51.2217 189.633 51.2217C189.84 51.2217 190.021 51.267 190.175 51.3574C190.334 51.4441 190.454 51.5684 190.537 51.7305V50.2947C190.537 50.2156 190.562 50.1534 190.611 50.1082C190.663 50.0592 190.733 50.0347 190.82 50.0347ZM189.768 53.6354C190.013 53.6354 190.204 53.5507 190.339 53.3811C190.475 53.2115 190.543 52.9703 190.543 52.6575C190.543 52.3447 190.475 52.1036 190.339 51.934C190.208 51.7644 190.017 51.6796 189.768 51.6796C189.52 51.6796 189.326 51.7644 189.186 51.934C189.051 52.0998 188.983 52.3372 188.983 52.6462C188.983 52.9552 189.052 53.1983 189.192 53.3754C189.331 53.5488 189.524 53.6354 189.768 53.6354ZM192.809 54.0877C192.424 54.0877 192.11 54.0085 191.865 53.8503C191.797 53.8088 191.748 53.7655 191.718 53.7202C191.691 53.675 191.678 53.6241 191.678 53.5676C191.678 53.5073 191.695 53.4564 191.729 53.415C191.763 53.3735 191.806 53.3528 191.859 53.3528C191.908 53.3528 191.985 53.383 192.091 53.4433C192.204 53.5036 192.313 53.5525 192.419 53.5902C192.528 53.6279 192.664 53.6468 192.826 53.6468C193.006 53.6468 193.148 53.6147 193.25 53.5507C193.351 53.4866 193.402 53.3961 193.402 53.2793C193.402 53.204 193.381 53.1437 193.34 53.0984C193.302 53.0532 193.234 53.0136 193.136 52.9797C193.038 52.942 192.893 52.9025 192.701 52.861C192.37 52.7894 192.13 52.6933 191.983 52.5727C191.84 52.4484 191.769 52.2807 191.769 52.0696C191.769 51.9076 191.816 51.7625 191.91 51.6344C192.004 51.5025 192.134 51.4007 192.3 51.3291C192.466 51.2575 192.654 51.2217 192.865 51.2217C193.016 51.2217 193.163 51.2425 193.306 51.2839C193.449 51.3216 193.576 51.3781 193.685 51.4535C193.809 51.5364 193.871 51.6325 193.871 51.7418C193.871 51.8021 193.852 51.853 193.815 51.8944C193.781 51.9359 193.739 51.9566 193.69 51.9566C193.657 51.9566 193.623 51.9491 193.589 51.934C193.555 51.9189 193.51 51.8944 193.453 51.8605C193.351 51.8002 193.255 51.7531 193.165 51.7192C193.078 51.6853 192.969 51.6683 192.837 51.6683C192.679 51.6683 192.55 51.7022 192.453 51.7701C192.358 51.8379 192.311 51.9302 192.311 52.047C192.311 52.1526 192.355 52.2355 192.441 52.2958C192.532 52.3523 192.699 52.4069 192.944 52.4597C193.197 52.5124 193.395 52.5727 193.538 52.6406C193.681 52.7084 193.783 52.7932 193.843 52.8949C193.907 52.9929 193.939 53.1192 193.939 53.2737C193.939 53.5186 193.836 53.7165 193.628 53.8672C193.425 54.0142 193.152 54.0877 192.809 54.0877Z" fill="white"/>
<defs>
<filter id="filter0_d" x="52.5702" y="175.234" width="113.054" height="113.054" filterUnits="userSpaceOnUse" color-interpolation-filters="sRGB">
<feFlood flood-opacity="0" result="BackgroundImageFix"/>
<feColorMatrix in="SourceAlpha" type="matrix" values="0 0 0 0 0 0 0 0 0 0 0 0 0 0 0 0 0 0 127 0"/>
<feOffset dx="2.26108" dy="2.26108"/>
<feGaussianBlur stdDeviation="2.82635"/>
<feColorMatrix type="matrix" values="0 0 0 0 0.117647 0 0 0 0 0.0901961 0 0 0 0 0.141176 0 0 0 0.25 0"/>
<feBlend mode="normal" in2="BackgroundImageFix" result="effect1_dropShadow"/>
<feBlend mode="normal" in="SourceGraphic" in2="effect1_dropShadow" result="shape"/>
</filter>
<clipPath id="clip0">
<rect width="57.6576" height="57.6576" fill="white" transform="translate(78.0074 200.671)"/>
</clipPath>
<clipPath id="clip1">
<rect width="8.47906" height="8.47906" fill="white" transform="translate(182.582 32.7858)"/>
</clipPath>
<clipPath id="clip2">
<rect width="7.34852" height="7.34852" fill="white" transform="translate(27.6983 33.351)"/>
</clipPath>
</defs>
</svg>
