<svg width="75" height="75" viewBox="0 0 75 75" fill="none" xmlns="http://www.w3.org/2000/svg">
<circle cx="37.5" cy="37.5" r="37.5" fill="#9533C2"/>
<path d="M45.8 37.001C45.8 36.8418 45.7368 36.6892 45.6243 36.5767C45.5117 36.4642 45.3591 36.401 45.2 36.401C45.0409 36.401 44.8883 36.4642 44.7757 36.5767C44.6632 36.6892 44.6 36.8418 44.6 37.001C44.6 39.7062 43.5254 42.3006 41.6125 44.2135C39.6996 46.1263 37.1052 47.201 34.4 47.201C31.6948 47.201 29.1004 46.1263 27.1875 44.2135C25.2746 42.3006 24.2 39.7062 24.2 37.001C24.2 36.8418 24.1368 36.6892 24.0243 36.5767C23.9117 36.4642 23.7591 36.401 23.6 36.401C23.4409 36.401 23.2883 36.4642 23.1757 36.5767C23.0632 36.6892 23 36.8418 23 37.001C23.0048 39.9177 24.127 42.7217 26.1358 44.8365C28.1446 46.9512 30.8874 48.2158 33.8 48.3704V50.801H29C28.8409 50.801 28.6883 50.8642 28.5757 50.9767C28.4632 51.0892 28.4 51.2418 28.4 51.401C28.4 51.5601 28.4632 51.7127 28.5757 51.8252C28.6883 51.9378 28.8409 52.001 29 52.001H39.8C39.9591 52.001 40.1117 51.9378 40.2243 51.8252C40.3368 51.7127 40.4 51.5601 40.4 51.401C40.4 51.2418 40.3368 51.0892 40.2243 50.9767C40.1117 50.8642 39.9591 50.801 39.8 50.801H35V48.3704C37.9126 48.2158 40.6554 46.9512 42.6642 44.8365C44.673 42.7217 45.7952 39.9177 45.8 37.001Z" fill="white"/>
<path d="M51.2 22.001H41C40.5448 22.003 40.1072 22.1774 39.7754 22.4892C39.4437 22.8009 39.2423 23.2267 39.212 23.681C38.0642 22.7721 36.6832 22.2054 35.2277 22.0462C33.7723 21.8869 32.3015 22.1415 30.9843 22.7807C29.667 23.4199 28.5569 24.4177 27.7813 25.6596C27.0058 26.9014 26.5963 28.3369 26.6 29.801V37.001C26.6 39.0697 27.4218 41.0536 28.8846 42.5164C30.3473 43.9792 32.3313 44.801 34.4 44.801C36.4687 44.801 38.4526 43.9792 39.9154 42.5164C41.3782 41.0536 42.2 39.0697 42.2 37.001V34.001H51.2C51.6774 34.001 52.1352 33.8113 52.4728 33.4738C52.8103 33.1362 53 32.6784 53 32.201V23.801C53 23.3236 52.8103 22.8657 52.4728 22.5282C52.1352 22.1906 51.6774 22.001 51.2 22.001ZM41 36.401H38C37.8409 36.401 37.6882 36.4642 37.5757 36.5767C37.4632 36.6892 37.4 36.8418 37.4 37.001C37.4 37.1601 37.4632 37.3127 37.5757 37.4252C37.6882 37.5378 37.8409 37.601 38 37.601H40.9694C40.8221 39.2418 40.0663 40.7681 38.8504 41.8797C37.6346 42.9914 36.0468 43.6078 34.3994 43.6078C32.752 43.6078 31.1642 42.9914 29.9483 41.8797C28.7325 40.7681 27.9766 39.2418 27.8294 37.601H30.8C30.9591 37.601 31.1117 37.5378 31.2242 37.4252C31.3368 37.3127 31.4 37.1601 31.4 37.001C31.4 36.8418 31.3368 36.6892 31.2242 36.5767C31.1117 36.4642 30.9591 36.401 30.8 36.401H27.8V34.001H30.8C30.9591 34.001 31.1117 33.9378 31.2242 33.8252C31.3368 33.7127 31.4 33.5601 31.4 33.401C31.4 33.2418 31.3368 33.0892 31.2242 32.9767C31.1117 32.8642 30.9591 32.801 30.8 32.801H27.8V30.401H30.8C30.9591 30.401 31.1117 30.3378 31.2242 30.2252C31.3368 30.1127 31.4 29.9601 31.4 29.801C31.4 29.6418 31.3368 29.4892 31.2242 29.3767C31.1117 29.2642 30.9591 29.201 30.8 29.201H27.8306C27.943 27.9343 28.4199 26.7272 29.2038 25.7258C29.9876 24.7244 31.0447 23.9715 32.2474 23.5582C33.45 23.1448 34.7466 23.0887 35.9805 23.3966C37.2143 23.7045 38.3326 24.3632 39.2 25.2932V29.201H38C37.8409 29.201 37.6882 29.2642 37.5757 29.3767C37.4632 29.4892 37.4 29.6418 37.4 29.801C37.4 29.9601 37.4632 30.1127 37.5757 30.2252C37.6882 30.3378 37.8409 30.401 38 30.401H39.2V31.3526L37.5758 32.9768C37.4919 33.0607 37.4348 33.1676 37.4116 33.284C37.3885 33.4003 37.4004 33.5209 37.4458 33.6306C37.4912 33.7402 37.5681 33.8339 37.6667 33.8998C37.7654 33.9657 37.8813 34.0009 38 34.001H41V36.401ZM51.8 32.201C51.8 32.3601 51.7368 32.5127 51.6243 32.6252C51.5117 32.7378 51.3591 32.801 51.2 32.801H39.4484L40.2242 32.0252C40.3367 31.9127 40.4 31.7601 40.4 31.601V23.801C40.4 23.6418 40.4632 23.4892 40.5757 23.3767C40.6882 23.2642 40.8409 23.201 41 23.201H51.2C51.3591 23.201 51.5117 23.2642 51.6243 23.3767C51.7368 23.4892 51.8 23.6418 51.8 23.801V32.201Z" fill="white"/>
<path d="M48.8 25.601H43.4C43.2409 25.601 43.0883 25.6642 42.9757 25.7767C42.8632 25.8892 42.8 26.0418 42.8 26.201C42.8 26.3601 42.8632 26.5127 42.9757 26.6252C43.0883 26.7378 43.2409 26.801 43.4 26.801H48.8C48.9591 26.801 49.1117 26.7378 49.2243 26.6252C49.3368 26.5127 49.4 26.3601 49.4 26.201C49.4 26.0418 49.3368 25.8892 49.2243 25.7767C49.1117 25.6642 48.9591 25.601 48.8 25.601Z" fill="white"/>
<path d="M48.8 29.201H43.4C43.2409 29.201 43.0883 29.2642 42.9757 29.3767C42.8632 29.4892 42.8 29.6418 42.8 29.801C42.8 29.9601 42.8632 30.1127 42.9757 30.2252C43.0883 30.3378 43.2409 30.401 43.4 30.401H48.8C48.9591 30.401 49.1117 30.3378 49.2243 30.2252C49.3368 30.1127 49.4 29.9601 49.4 29.801C49.4 29.6418 49.3368 29.4892 49.2243 29.3767C49.1117 29.2642 48.9591 29.201 48.8 29.201Z" fill="white"/>
</svg>
