<svg width="75" height="75" viewBox="0 0 75 75" fill="none" xmlns="http://www.w3.org/2000/svg">
<circle cx="37.5" cy="37.5" r="37.5" fill="#9533C2"/>
<path d="M29.7656 28.7344H41.1094C41.2461 28.7344 41.3773 28.6801 41.474 28.5834C41.5707 28.4867 41.625 28.3555 41.625 28.2188C41.625 28.082 41.5707 27.9508 41.474 27.8541C41.3773 27.7574 41.2461 27.7031 41.1094 27.7031H29.7656C29.6289 27.7031 29.4977 27.7574 29.401 27.8541C29.3043 27.9508 29.25 28.082 29.25 28.2188C29.25 28.3555 29.3043 28.4867 29.401 28.5834C29.4977 28.6801 29.6289 28.7344 29.7656 28.7344Z" fill="white"/>
<path d="M29.7656 31.8281H41.1094C41.2461 31.8281 41.3773 31.7738 41.474 31.6771C41.5707 31.5804 41.625 31.4493 41.625 31.3125C41.625 31.1757 41.5707 31.0446 41.474 30.9479C41.3773 30.8512 41.2461 30.7969 41.1094 30.7969H29.7656C29.6289 30.7969 29.4977 30.8512 29.401 30.9479C29.3043 31.0446 29.25 31.1757 29.25 31.3125C29.25 31.4493 29.3043 31.5804 29.401 31.6771C29.4977 31.7738 29.6289 31.8281 29.7656 31.8281Z" fill="white"/>
<path d="M29.7656 34.9219H41.1094C41.2461 34.9219 41.3773 34.8676 41.474 34.7709C41.5707 34.6742 41.625 34.543 41.625 34.4062C41.625 34.2695 41.5707 34.1383 41.474 34.0416C41.3773 33.9449 41.2461 33.8906 41.1094 33.8906H29.7656C29.6289 33.8906 29.4977 33.9449 29.401 34.0416C29.3043 34.1383 29.25 34.2695 29.25 34.4062C29.25 34.543 29.3043 34.6742 29.401 34.7709C29.4977 34.8676 29.6289 34.9219 29.7656 34.9219Z" fill="white"/>
<path d="M29.7656 38.0156H41.1094C41.2461 38.0156 41.3773 37.9613 41.474 37.8646C41.5707 37.7679 41.625 37.6368 41.625 37.5C41.625 37.3632 41.5707 37.2321 41.474 37.1354C41.3773 37.0387 41.2461 36.9844 41.1094 36.9844H29.7656C29.6289 36.9844 29.4977 37.0387 29.401 37.1354C29.3043 37.2321 29.25 37.3632 29.25 37.5C29.25 37.6368 29.3043 37.7679 29.401 37.8646C29.4977 37.9613 29.6289 38.0156 29.7656 38.0156Z" fill="white"/>
<path d="M29.7656 41.1094H33.8906C34.0274 41.1094 34.1585 41.0551 34.2552 40.9584C34.3519 40.8617 34.4062 40.7305 34.4062 40.5938C34.4062 40.457 34.3519 40.3258 34.2552 40.2291C34.1585 40.1324 34.0274 40.0781 33.8906 40.0781H29.7656C29.6289 40.0781 29.4977 40.1324 29.401 40.2291C29.3043 40.3258 29.25 40.457 29.25 40.5938C29.25 40.7305 29.3043 40.8617 29.401 40.9584C29.4977 41.0551 29.6289 41.1094 29.7656 41.1094Z" fill="white"/>
<path d="M50.1413 34.2139C49.7873 34.0068 49.3655 33.9487 48.9687 34.0523C48.5719 34.1559 48.2323 34.4127 48.0246 34.7663L46.7812 36.8877V24.0937C46.7812 23.957 46.7269 23.8258 46.6302 23.7291C46.5335 23.6324 46.4024 23.5781 46.2656 23.5781H42.3542C42.3542 23.5781 40.8049 22.0003 40.7429 22.0534C40.6945 22.0387 40.6443 22.0313 40.5937 22.0312H25.6406C25.5039 22.0312 25.3727 22.0856 25.276 22.1823C25.1793 22.279 25.125 22.4101 25.125 22.5469V24.159C24.6821 24.2732 24.2897 24.5314 24.0095 24.8929C23.7294 25.2545 23.5773 25.6989 23.5773 26.1562C23.5773 26.6136 23.7294 27.058 24.0095 27.4196C24.2897 27.7811 24.6821 28.0393 25.125 28.1535V29.3153C24.6821 29.4295 24.2897 29.6876 24.0095 30.0492C23.7294 30.4107 23.5773 30.8551 23.5773 31.3125C23.5773 31.7699 23.7294 32.2143 24.0095 32.5758C24.2897 32.9374 24.6821 33.1955 25.125 33.3097V34.4715C24.6821 34.5857 24.2897 34.8439 24.0095 35.2054C23.7294 35.567 23.5773 36.0114 23.5773 36.4687C23.5773 36.9261 23.7294 37.3705 24.0095 37.7321C24.2897 38.0936 24.6821 38.3518 25.125 38.466V39.1122C24.6821 39.2263 24.2897 39.4845 24.0095 39.846C23.7294 40.2076 23.5773 40.652 23.5773 41.1094C23.5773 41.5668 23.7294 42.0112 24.0095 42.3727C24.2897 42.7342 24.6821 42.9924 25.125 43.1066V46.2656C25.125 46.4024 25.1793 46.5335 25.276 46.6302C25.3727 46.7269 25.5039 46.7812 25.6406 46.7812H26.1562V48.3281C26.1562 48.4649 26.2106 48.596 26.3073 48.6927C26.404 48.7894 26.5351 48.8437 26.6719 48.8437H39.7747L39.4213 49.4466C39.3897 49.5007 39.3683 49.5602 39.3581 49.622C39.3576 49.625 39.3568 49.6275 39.3563 49.6305L39.355 49.639V49.6409L38.9425 52.3763C38.9272 52.4782 38.9427 52.5824 38.9871 52.6754C39.0315 52.7683 39.1028 52.8459 39.1917 52.898C39.2806 52.9501 39.3831 52.9744 39.4859 52.9677C39.5887 52.961 39.6872 52.9236 39.7686 52.8604L41.9618 51.1576C42.1023 51.0485 42.171 50.9817 42.1601 50.8921L43.3605 48.8437H46.2656C46.4024 48.8437 46.5335 48.7894 46.6302 48.6927C46.7269 48.596 46.7812 48.4649 46.7812 48.3281V43.0067L50.6935 36.3305C50.9005 35.9765 50.9586 35.5548 50.8551 35.158C50.7515 34.7612 50.4948 34.4217 50.1413 34.2139ZM49.229 35.0495C49.3277 35.0237 49.4317 35.0278 49.5281 35.0612C49.6245 35.0946 49.7087 35.1559 49.7703 35.2372C49.8318 35.3185 49.8679 35.4162 49.8739 35.518C49.8799 35.6199 49.8556 35.7212 49.804 35.8091L49.5433 36.2539L48.6539 35.7324L48.9146 35.2877C48.9487 35.2292 48.994 35.178 49.0479 35.1371C49.1019 35.0962 49.1634 35.0664 49.229 35.0495ZM41.4614 50.0446L40.572 49.5232L47.3501 37.9569L48.2396 38.4783L41.4614 50.0446ZM41.1094 23.7917L42.9583 25.6406H41.1094V23.7917ZM47.8715 37.0671L48.1322 36.6224L49.0219 37.1438L48.7612 37.5886L47.8715 37.0671ZM45.75 24.6094V38.5312C45.75 38.5647 45.7533 38.5981 45.7598 38.6309L44.7187 40.4073V26.1562C44.7188 26.0886 44.7055 26.0217 44.6797 25.9592C44.6539 25.8967 44.616 25.84 44.5682 25.7922L44.5677 25.7916L43.3855 24.6094H45.75ZM26.1562 23.0625H40.0781V26.1562C40.0781 26.293 40.1324 26.4242 40.2291 26.5209C40.3258 26.6175 40.457 26.6719 40.5937 26.6719H43.6875V42.167L41.5877 45.75H26.1562V43.1066C26.5132 43.0147 26.839 42.8287 27.0996 42.5681C27.3603 42.3074 27.5462 41.9816 27.6381 41.6246C27.6722 41.4921 27.6522 41.3515 27.5827 41.2338C27.5131 41.116 27.3996 41.0307 27.2671 40.9966C27.2015 40.9797 27.1332 40.9759 27.0662 40.9854C26.9991 40.9949 26.9346 41.0176 26.8762 41.052C26.7585 41.1216 26.6731 41.2351 26.6391 41.3676C26.6049 41.5002 26.5446 41.6246 26.4617 41.7335C26.3788 41.8425 26.2749 41.9338 26.1562 42.002V38.466C26.5132 38.3741 26.839 38.1881 27.0996 37.9274C27.3603 37.6668 27.5462 37.341 27.6381 36.984C27.6722 36.8515 27.6522 36.7109 27.5827 36.5931C27.5131 36.4754 27.3996 36.39 27.2671 36.356C27.1346 36.3219 26.994 36.3418 26.8762 36.4114C26.7585 36.481 26.6731 36.5945 26.6391 36.7269C26.6049 36.8595 26.5446 36.984 26.4617 37.0929C26.3788 37.2019 26.2749 37.2932 26.1562 37.3614V33.3098C26.5132 33.2178 26.839 33.0319 27.0996 32.7712C27.3603 32.5105 27.5462 32.1847 27.6381 31.8277C27.6722 31.6953 27.6522 31.5547 27.5827 31.4369C27.5131 31.3191 27.3996 31.2338 27.2671 31.1997C27.1346 31.1656 26.994 31.1856 26.8762 31.2551C26.7585 31.3247 26.6731 31.4382 26.6391 31.5707C26.6049 31.7033 26.5446 31.8277 26.4617 31.9367C26.3788 32.0456 26.2749 32.1369 26.1562 32.2052V28.1535C26.5132 28.0616 26.839 27.8756 27.0996 27.6149C27.3603 27.3543 27.5462 27.0285 27.6381 26.6715C27.6722 26.539 27.6522 26.3984 27.5827 26.2806C27.5131 26.1629 27.3996 26.0775 27.2671 26.0435C27.1346 26.0094 26.994 26.0293 26.8762 26.0989C26.7585 26.1685 26.6731 26.282 26.6391 26.4144C26.6049 26.547 26.5446 26.6715 26.4617 26.7804C26.3788 26.8894 26.2749 26.9807 26.1562 27.0489V23.0625ZM24.6094 26.1562C24.6096 25.9755 24.6574 25.7979 24.7479 25.6414C24.8384 25.4849 24.9684 25.3549 25.125 25.2645V27.048C24.9684 26.9576 24.8384 26.8276 24.7479 26.6711C24.6574 26.5146 24.6096 26.337 24.6094 26.1562ZM24.6094 31.3125C24.6096 31.1317 24.6574 30.9542 24.7479 30.7977C24.8384 30.6411 24.9684 30.5112 25.125 30.4208V32.2042C24.9684 32.1138 24.8384 31.9838 24.7479 31.8273C24.6574 31.6708 24.6096 31.4933 24.6094 31.3125ZM24.6094 36.4687C24.6096 36.288 24.6574 36.1104 24.7479 35.9539C24.8384 35.7974 24.9684 35.6674 25.125 35.577V37.3605C24.9684 37.2701 24.8384 37.1401 24.7479 36.9836C24.6574 36.8271 24.6096 36.6495 24.6094 36.4687ZM24.6094 41.1094C24.6096 40.9286 24.6574 40.751 24.7479 40.5945C24.8384 40.438 24.9684 40.3081 25.125 40.2177V42.0011C24.9684 41.9107 24.8384 41.7807 24.7479 41.6242C24.6574 41.4677 24.6096 41.2902 24.6094 41.1094ZM27.1875 47.8125V46.7812H40.9834L40.379 47.8125H27.1875ZM40.2625 50.5373L40.7278 50.81L40.1542 51.2553L40.2625 50.5373ZM45.75 47.8125H43.9646L45.75 44.7664V47.8125Z" fill="white"/>
</svg>
