<svg width="585" height="388" viewBox="0 0 585 388" fill="none" xmlns="http://www.w3.org/2000/svg">
<g clip-path="url(#clip0)">
<path d="M504.857 375.648L382.623 376.053C350.195 366.302 323.626 332.435 323.458 281.657C323.426 274.008 324.003 266.368 325.185 258.811L423.639 236.676L499.59 219.602C505.186 224.618 510.401 230.044 515.191 235.835L442.565 274.211L408.303 292.316L446.803 279.024L526.71 251.438C531.693 259.062 536.133 267.028 539.997 275.277L515.887 300.212L543.161 282.344C543.278 282.618 543.394 282.892 543.51 283.166C560.795 324.231 539.348 375.533 504.857 375.648Z" fill="#F2F2F2"/>
<path d="M484.77 208.11C466.285 213.422 443.559 220.134 420.193 227.111C386.41 237.201 351.29 247.849 325.721 255.633L325.738 255.542C326.683 250.08 328.905 244.919 332.222 240.48C351.163 215.837 375.28 198.621 402.122 192.228H402.124C409.672 190.426 417.403 189.503 425.162 189.478C446.518 189.407 466.746 196.109 484.77 208.11Z" fill="#F2F2F2"/>
<path d="M134.865 298.876L113.731 362.214L108.542 377.775C106.044 381.553 103.067 384.99 99.6847 388H99.1887C72.5624 388 48.3838 386.629 30.5672 384.403L33.0469 365.379L38.369 324.576L45.1735 272.321C49.1961 269.698 53.4081 267.377 57.7748 265.379L63.7741 319.576L66.6058 345.143L67.427 317.767L69.1282 260.944C74.493 259.208 79.9795 257.873 85.5423 256.952L94.4533 277.284L90.2404 256.269C90.4217 256.248 90.6031 256.221 90.7844 256.2C117.837 252.939 142.288 276.612 134.865 298.876Z" fill="#F2F2F2"/>
<path d="M35.4359 279.675C34.4334 292.616 33.3082 308.556 32.1883 324.966C31.2497 338.76 30.3218 352.881 29.4846 365.816C29.0687 372.268 28.674 378.426 28.3167 384.104C25.2878 383.704 22.4561 383.272 19.8484 382.824C17.2758 378.252 15.0769 373.48 13.2731 368.554C8.68698 356.029 6.93251 342.896 8.47367 329.923V329.918C9.09331 324.687 10.2477 319.533 11.9186 314.538C16.4749 301.009 24.6004 288.963 35.4359 279.675Z" fill="#F2F2F2"/>
<path d="M198.377 375.038C198.377 382.178 154.233 387.963 99.6846 388H99.1887C72.5624 388 48.3838 386.629 30.5672 384.403C29.8046 384.302 29.0527 384.206 28.3168 384.104C25.2878 383.704 22.4561 383.272 19.8484 382.824C7.38583 380.652 0 377.957 0 375.038C0 372.674 4.83145 370.464 13.2732 368.554C17.7313 367.545 23.192 366.627 29.4846 365.816C30.6419 365.662 31.8293 365.516 33.0469 365.379C50.5969 363.324 73.7783 362.075 99.1887 362.075C104.127 362.075 108.985 362.123 113.731 362.214C161.614 363.132 198.377 368.522 198.377 375.038Z" fill="#3F3D56"/>
<path d="M79.9528 261.562L82.445 281.015C82.445 281.015 83.4419 287.499 84.4388 290.991C84.4388 290.991 83.4419 309.446 91.417 322.415L96.4015 331.892L97.3984 345.858L109.86 347.355L107.367 326.405C107.367 326.405 106.37 316.429 107.367 312.439C108.364 308.449 102.383 289.993 102.383 289.993C102.383 289.993 110.358 264.056 104.377 257.571C98.3953 251.087 79.9528 261.562 79.9528 261.562Z" fill="#A0616A"/>
<path d="M101.884 341.868C101.884 341.868 96.4015 341.868 95.9031 343.364C95.4046 344.861 87.4295 358.328 87.4295 358.328C87.4295 358.328 80.4512 369.302 90.4202 369.801C100.389 370.299 103.38 365.81 103.38 365.81C103.38 365.81 112.352 351.345 112.85 348.851C113.349 346.357 109.105 341.012 109.105 341.012C109.105 341.012 103.38 344.861 101.884 341.868Z" fill="#2F2E41"/>
<path d="M108.863 97.4575C118.222 97.4575 125.81 89.8647 125.81 80.4984C125.81 71.1322 118.222 63.5394 108.863 63.5394C99.503 63.5394 91.9155 71.1322 91.9155 80.4984C91.9155 89.8647 99.503 97.4575 108.863 97.4575Z" fill="#A0616A"/>
<path d="M95.1554 85.7358C95.1554 85.7358 95.1554 104.191 88.6756 105.688C82.1958 107.184 97.6476 124.143 106.121 122.148C114.595 120.153 118.084 106.685 118.084 106.685C118.084 106.685 110.607 97.2081 113.598 92.2202C116.589 87.2322 95.1554 85.7358 95.1554 85.7358Z" fill="#A0616A"/>
<path d="M102.383 111.424C100.004 111.349 97.6769 110.706 95.5967 109.548C93.5164 108.39 91.7432 106.751 90.4249 104.768C90.4249 104.768 83.4419 105.937 82.4451 106.436C81.4482 106.935 64.0025 112.421 60.015 123.894L75.9652 144.344C75.9652 144.344 72.4761 173.275 75.9652 186.243C78.043 194.011 77.5177 202.246 74.4699 209.687C74.4699 209.687 72.9746 210.186 75.4668 211.183C77.959 212.181 135.28 200.708 136.277 197.716C137.274 194.723 135.28 194.723 136.776 193.227C138.271 191.73 142.259 182.752 138.271 179.759C134.284 176.766 131.791 143.846 131.791 143.846L142.259 117.409C142.259 117.409 123.128 102.11 116.245 104.023C116.245 104.023 114.844 111.424 102.383 111.424Z" fill="#D0CDE1"/>
<path d="M108.863 251.586C108.863 251.586 107.866 273.533 109.86 282.012C111.853 290.492 111.853 293.984 111.853 293.984C111.853 293.984 108.863 308.449 110.358 321.916C111.853 335.384 108.613 357.092 108.613 357.092L120.825 360.822L128.302 322.914C128.302 322.914 134.283 299.47 130.794 288.497C130.794 288.497 132.788 255.077 134.283 251.586C135.779 248.094 108.863 251.586 108.863 251.586Z" fill="#A0616A"/>
<path d="M95.4876 83.5189C95.7123 81.9281 96.1875 80.1929 97.543 79.332C98.9502 78.4383 100.767 78.8049 102.429 78.9265C104.091 79.0482 106.128 78.6321 106.674 77.0564C107.015 76.074 106.647 74.8999 107.178 74.0062C108.024 72.584 110.606 72.7464 111.052 71.1525C111.193 70.6477 111.056 70.0843 111.259 69.6013C111.534 68.9498 112.305 68.6902 112.994 68.5306C115.511 67.9479 118.097 67.7198 120.677 67.8531C120.929 67.8984 121.19 67.8468 121.406 67.7087C121.52 67.5957 121.601 67.454 121.641 67.2987C122.225 65.5522 121.607 63.5706 120.445 62.1421C119.212 60.7663 117.691 59.6788 115.99 58.9567C112.225 57.1295 108.144 56.0442 103.97 55.76C100.79 55.5601 97.4529 55.9065 94.7448 57.5853C93.9422 58.0934 93.1973 58.6876 92.5235 59.3573C89.5775 62.3137 87.6568 66.1377 87.0434 70.2674C86.4487 74.3872 86.9093 78.5908 88.3822 82.4837C89.2426 84.8272 90.5998 87.2476 92.6996 88.6918C93.8251 89.4658 94.7955 90.1803 95.2629 88.8661C95.7585 87.4723 95.2695 85.0634 95.4876 83.5189Z" fill="#2F2E41"/>
<path d="M76.9621 206.694C76.9621 206.694 69.4854 216.67 70.9808 223.653C72.4761 230.636 77.959 242.109 77.959 242.109C77.959 242.109 74.9683 264.555 79.9528 264.555C84.9373 264.555 106.37 263.557 106.869 261.063C107.367 258.569 105.374 233.629 105.374 233.629C105.374 233.629 107.866 255.576 109.361 255.576C110.856 255.576 136.776 258.07 137.773 256.574C138.77 255.077 140.763 216.67 140.763 216.67C140.763 216.67 143.482 198.556 134.895 196.141C126.308 193.725 76.9621 206.694 76.9621 206.694Z" fill="#2F2E41"/>
<path d="M116.838 356.832C116.838 356.832 107.866 351.844 107.367 355.834C106.869 359.825 101.386 374.29 101.386 374.29C101.386 374.29 95.9031 385.762 107.866 386.261C119.829 386.76 122.819 381.273 122.819 378.779C122.819 376.285 121.479 359.175 121.479 359.175L116.838 356.832Z" fill="#2F2E41"/>
<path d="M147.742 144.344L150.234 166.292C150.234 166.292 153.224 178.263 151.231 183.251C149.237 188.239 141.76 211.183 141.76 211.183C141.76 211.183 139.766 198.713 134.782 197.217L137.773 168.785C137.773 168.785 130.636 151.044 132.211 148.692C133.785 146.34 147.742 144.344 147.742 144.344Z" fill="#A0616A"/>
<path d="M59.018 145.841L60.0149 165.793C60.0149 165.793 56.5258 183.251 63.504 201.706L64.5009 209.687L70.9807 222.157C70.9807 222.157 72.4761 210.186 75.4667 210.186C75.4667 210.186 72.4761 202.205 73.4729 197.716C74.4698 193.227 72.9745 169.284 72.9745 169.284L75.4667 149.916L59.018 145.841Z" fill="#A0616A"/>
<path d="M136.776 116.911H142.259C142.259 116.911 155.218 146.838 150.234 147.337C145.249 147.836 129.299 151.826 128.801 149.831C128.302 147.836 136.776 116.911 136.776 116.911Z" fill="#D0CDE1"/>
<path d="M64.501 119.405L60.015 123.894C60.015 123.894 54.0336 146.34 58.5196 148.834C63.0056 151.328 79.9528 154.32 80.9497 152.325C81.9466 150.33 64.501 119.405 64.501 119.405Z" fill="#D0CDE1"/>
<path d="M421.862 15.5452V361.455C421.858 365.576 420.219 369.526 417.307 372.439C414.394 375.352 410.445 376.989 406.327 376.99H265.997C263.957 376.993 261.936 376.594 260.05 375.815C258.165 375.036 256.451 373.892 255.008 372.448C253.565 371.005 252.421 369.292 251.641 367.405C250.861 365.519 250.46 363.497 250.462 361.455V15.5452C250.462 13.5037 250.864 11.4822 251.645 9.59611C252.425 7.71 253.569 5.99625 255.012 4.55271C256.454 3.10918 258.167 1.96414 260.052 1.18298C261.937 0.401829 263.957 -0.000135844 265.997 4.07836e-05H286.997V2.69496C286.997 6.08952 288.344 9.34525 290.742 11.7461C293.14 14.1469 296.393 15.4962 299.785 15.4972H371.158C373.888 15.503 376.548 14.6271 378.741 12.9997C379.185 12.677 379.605 12.3239 380 11.9431C381.249 10.7493 382.243 9.31404 382.921 7.72432C383.6 6.13459 383.948 4.42355 383.946 2.69496V4.07836e-05H406.327C408.368 -0.000584665 410.388 0.401074 412.273 1.18207C414.158 1.96306 415.87 3.10808 417.313 4.5517C418.756 5.99533 419.9 7.70925 420.68 9.59556C421.461 11.4819 421.862 13.5036 421.862 15.5452Z" fill="#3F3D56"/>
<path opacity="0.1" d="M355.693 147.096C377.782 147.096 395.688 143.512 395.688 139.091C395.688 134.67 377.782 131.086 355.693 131.086C333.604 131.086 315.697 134.67 315.697 139.091C315.697 143.512 333.604 147.096 355.693 147.096Z" fill="black"/>
<path opacity="0.1" d="M297.566 188.186C319.655 188.186 337.562 184.603 337.562 180.182C337.562 175.761 319.655 172.177 297.566 172.177C275.477 172.177 257.571 175.761 257.571 180.182C257.571 184.603 275.477 188.186 297.566 188.186Z" fill="black"/>
<path opacity="0.1" d="M330.629 263.431C352.718 263.431 370.624 259.847 370.624 255.426C370.624 251.005 352.718 247.421 330.629 247.421C308.54 247.421 290.634 251.005 290.634 255.426C290.634 259.847 308.54 263.431 330.629 263.431Z" fill="black"/>
<path opacity="0.1" d="M319.43 345.079C341.519 345.079 359.426 341.495 359.426 337.074C359.426 332.653 341.519 329.069 319.43 329.069C297.341 329.069 279.435 332.653 279.435 337.074C279.435 341.495 297.341 345.079 319.43 345.079Z" fill="black"/>
<path d="M458.348 215.325H336.762V227.213V245.318V255.504L346.941 245.318H458.348V215.325Z" fill="#6C63FF"/>
<path d="M168.514 138.746H290.1V150.635V168.739V178.926L279.921 168.739H168.514V138.746Z" fill="#6C63FF"/>
<path d="M432.289 222.607H363.887V228.157H432.289V222.607Z" fill="white"/>
<path d="M432.289 230.932H363.887V236.482H432.289V230.932Z" fill="white"/>
<path d="M257.642 146.562H189.241V152.112H257.642V146.562Z" fill="white"/>
<path d="M257.642 154.887H189.241V160.437H257.642V154.887Z" fill="white"/>
<path d="M585 63.313H355.693V85.7347V119.88V139.091L374.891 119.88H585V63.313Z" fill="#6C63FF"/>
<path d="M549.271 76.1205H391.422V88.9281H549.271V76.1205Z" fill="white"/>
<path d="M549.271 95.3318H391.422V108.139H549.271V95.3318Z" fill="white"/>
<path d="M304.947 321.069C310.783 331.901 323.171 336.551 323.171 336.551C323.171 336.551 326.096 323.639 320.259 312.807C314.422 301.975 302.034 297.325 302.034 297.325C302.034 297.325 299.11 310.237 304.947 321.069Z" fill="white"/>
<path d="M308.958 317.506C319.496 323.85 323.555 336.452 323.555 336.452C323.555 336.452 310.528 338.767 299.99 332.423C289.452 326.078 285.394 313.477 285.394 313.477C285.394 313.477 298.421 311.161 308.958 317.506Z" fill="#6C63FF"/>
</g>
<defs>
<clipPath id="clip0">
<rect width="585" height="388" fill="white"/>
</clipPath>
</defs>
</svg>
